<svg width="42" height="42" viewBox="0 0 42 42" fill="none" xmlns="http://www.w3.org/2000/svg">
<circle cx="21" cy="21" r="21" fill="#2ED198"/>
<path d="M12.0288 12C11.2255 12 10.4551 12.3191 9.88713 12.8871C9.31911 13.4551 9 14.2255 9 15.0288V16.5433C9 17.3466 9.31911 18.117 9.88713 18.685C10.4551 19.253 11.2255 19.5721 12.0288 19.5721H20.3582V24.1154C19.7557 24.1154 19.1779 24.3547 18.7519 24.7807C18.3259 25.2067 18.0865 25.7845 18.0865 26.387H9.75721C9.55639 26.387 9.36379 26.4668 9.22178 26.6088C9.07978 26.7508 9 26.9434 9 27.1442C9 27.3451 9.07978 27.5377 9.22178 27.6797C9.36379 27.8217 9.55639 27.9014 9.75721 27.9014H18.0865C18.0865 28.5039 18.3259 29.0817 18.7519 29.5077C19.1779 29.9337 19.7557 30.1731 20.3582 30.1731H21.8726C22.4751 30.1731 23.0529 29.9337 23.4789 29.5077C23.9049 29.0817 24.1442 28.5039 24.1442 27.9014H32.4736C32.6744 27.9014 32.867 27.8217 33.009 27.6797C33.151 27.5377 33.2308 27.3451 33.2308 27.1442C33.2308 26.9434 33.151 26.7508 33.009 26.6088C32.867 26.4668 32.6744 26.387 32.4736 26.387H24.1442C24.1442 25.7845 23.9049 25.2067 23.4789 24.7807C23.0529 24.3547 22.4751 24.1154 21.8726 24.1154V19.5721H30.2019C31.0052 19.5721 31.7756 19.253 32.3436 18.685C32.9117 18.117 33.2308 17.3466 33.2308 16.5433V15.0288C33.2308 14.2255 32.9117 13.4551 32.3436 12.8871C31.7756 12.3191 31.0052 12 30.2019 12H12.0288ZM12.7861 16.5433C12.5852 16.5433 12.3926 16.4635 12.2506 16.3215C12.1086 16.1795 12.0288 15.9869 12.0288 15.7861C12.0288 15.5852 12.1086 15.3926 12.2506 15.2506C12.3926 15.1086 12.5852 15.0288 12.7861 15.0288C12.9869 15.0288 13.1795 15.1086 13.3215 15.2506C13.4635 15.3926 13.5433 15.5852 13.5433 15.7861C13.5433 15.9869 13.4635 16.1795 13.3215 16.3215C13.1795 16.4635 12.9869 16.5433 12.7861 16.5433ZM15.8149 16.5433C15.6141 16.5433 15.4215 16.4635 15.2795 16.3215C15.1375 16.1795 15.0577 15.9869 15.0577 15.7861C15.0577 15.5852 15.1375 15.3926 15.2795 15.2506C15.4215 15.1086 15.6141 15.0288 15.8149 15.0288C16.0157 15.0288 16.2083 15.1086 16.3503 15.2506C16.4923 15.3926 16.5721 15.5852 16.5721 15.7861C16.5721 15.9869 16.4923 16.1795 16.3503 16.3215C16.2083 16.4635 16.0157 16.5433 15.8149 16.5433Z" fill="#030712"/>
</svg>
