<svg width="42" height="42" viewBox="0 0 42 42" fill="none" xmlns="http://www.w3.org/2000/svg">
<circle cx="21" cy="21" r="21" fill="#2ED198"/>
<g clip-path="url(#clip0_147_12)">
<g clip-path="url(#clip1_147_12)">
<path d="M11.4033 13.8083C11.4033 11.5775 15.9239 9.76929 21.5 9.76929C27.0761 9.76929 31.5966 11.5775 31.5966 13.8083V15.827C31.5966 18.0577 27.0761 19.8659 21.5 19.8659C15.9239 19.8659 11.4033 18.0577 11.4033 15.827V13.8083Z" fill="#030712"/>
<path d="M11.4033 19.3616V23.9048C11.4033 26.1326 15.9239 27.9423 21.5 27.9423C27.0761 27.9423 31.5966 26.1341 31.5966 23.9033V19.3616C30.9146 19.8529 30.1726 20.2549 29.3886 20.558C27.2699 21.406 24.4788 21.8846 21.5 21.8846C18.5226 21.8846 15.7315 21.4045 13.6129 20.558C12.8288 20.255 12.0868 19.8529 11.4048 19.3616H11.4033Z" fill="#030712"/>
<path d="M31.5966 27.4395C30.9146 27.9303 30.1725 28.3318 29.3886 28.6344C27.2684 29.4825 24.4789 29.961 21.4985 29.961C18.5211 29.961 15.73 29.4825 13.6113 28.6344C12.8273 28.3313 12.0853 27.9293 11.4033 27.438V29.961C11.4033 32.1918 15.9239 34 21.5 34C27.0761 34 31.5966 32.1918 31.5966 29.961V27.4395Z" fill="#030712"/>
</g>
</g>
<defs>
<clipPath id="clip0_147_12">
<rect width="25" height="25" fill="white" transform="translate(9 9)"/>
</clipPath>
<clipPath id="clip1_147_12">
<rect width="24.2308" height="24.2308" fill="white" transform="translate(9.38452 9.76929)"/>
</clipPath>
</defs>
</svg>
