<svg width="81" height="61" viewBox="0 0 81 61" fill="none" xmlns="http://www.w3.org/2000/svg">
<path d="M10.125 7.625C8.73281 7.625 7.59375 8.76875 7.59375 10.1667V13.6773L34.8838 36.1711C38.1586 38.8716 42.8572 38.8716 46.132 36.1711L73.4062 13.6773V10.1667C73.4062 8.76875 72.2672 7.625 70.875 7.625H10.125ZM7.59375 23.5422V50.8333C7.59375 52.2313 8.73281 53.375 10.125 53.375H70.875C72.2672 53.375 73.4062 52.2313 73.4062 50.8333V23.5422L50.9414 42.0646C44.8664 47.0685 36.1178 47.0685 30.0586 42.0646L7.59375 23.5422ZM0 10.1667C0 4.55911 4.54043 0 10.125 0H70.875C76.4596 0 81 4.55911 81 10.1667V50.8333C81 56.4409 76.4596 61 70.875 61H10.125C4.54043 61 0 56.4409 0 50.8333V10.1667Z" fill="#2ED198"/>
</svg>
