<svg width="63" height="63" viewBox="0 0 63 63" fill="none" xmlns="http://www.w3.org/2000/svg">
<path d="M23.625 11.8125C23.625 14.9454 22.3805 17.9499 20.1652 20.1652C17.9499 22.3805 14.9454 23.625 11.8125 23.625C8.67963 23.625 5.67507 22.3805 3.4598 20.1652C1.24453 17.9499 0 14.9454 0 11.8125C0 8.67963 1.24453 5.67507 3.4598 3.4598C5.67507 1.24453 8.67963 0 11.8125 0C14.9454 0 17.9499 1.24453 20.1652 3.4598C22.3805 5.67507 23.625 8.67963 23.625 11.8125ZM3.9375 11.8125C3.9375 13.9011 4.76719 15.9041 6.24403 17.381C7.72088 18.8578 9.72392 19.6875 11.8125 19.6875C13.9011 19.6875 15.9041 18.8578 17.381 17.381C18.8578 15.9041 19.6875 13.9011 19.6875 11.8125C19.6875 9.72392 18.8578 7.72088 17.381 6.24403C15.9041 4.76719 13.9011 3.9375 11.8125 3.9375C9.72392 3.9375 7.72088 4.76719 6.24403 6.24403C4.76719 7.72088 3.9375 9.72392 3.9375 11.8125Z" fill="#2ED198"/>
<path d="M35.4375 23.625H37.4062C39.3163 23.6248 41.1613 24.3188 42.5978 25.5777C44.0342 26.8367 44.9641 28.5748 45.2143 30.4684L57.4599 25.0267C58.0593 24.7597 58.716 24.6466 59.3702 24.6979C60.0244 24.7492 60.6554 24.9631 61.2058 25.3203C61.7563 25.6775 62.2088 26.1666 62.5221 26.7432C62.8354 27.3198 62.9997 27.9655 63 28.6217V58.0033C62.9994 58.659 62.8351 59.3042 62.522 59.8803C62.2089 60.4563 61.7568 60.9451 61.2069 61.3022C60.657 61.6593 60.0266 61.8734 59.3729 61.9251C58.7193 61.9768 58.0631 61.8645 57.4639 61.5983L45.2143 56.1566C44.9641 58.0502 44.0342 59.7883 42.5978 61.0473C41.1613 62.3062 39.3163 63.0002 37.4062 63H7.875C5.78642 63 3.78338 62.1703 2.30653 60.6935C0.829685 59.2166 0 57.2136 0 55.125V31.5C0 29.4114 0.829685 27.4084 2.30653 25.9315C3.78338 24.4547 5.78642 23.625 7.875 23.625H35.4375ZM59.0625 57.9994V28.6256L45.2812 34.7484V51.8766L59.0625 58.0033V57.9994ZM3.9375 31.5V55.125C3.9375 56.1693 4.35234 57.1708 5.09077 57.9092C5.82919 58.6477 6.83071 59.0625 7.875 59.0625H37.4062C38.4505 59.0625 39.4521 58.6477 40.1905 57.9092C40.9289 57.1708 41.3438 56.1693 41.3438 55.125V31.5C41.3438 30.4557 40.9289 29.4542 40.1905 28.7158C39.4521 27.9773 38.4505 27.5625 37.4062 27.5625H7.875C6.83071 27.5625 5.82919 27.9773 5.09077 28.7158C4.35234 29.4542 3.9375 30.4557 3.9375 31.5Z" fill="#2ED198"/>
<path d="M35.4375 23.625C38.5704 23.625 41.5749 22.3805 43.7902 20.1652C46.0055 17.9499 47.25 14.9454 47.25 11.8125C47.25 8.67963 46.0055 5.67507 43.7902 3.4598C41.5749 1.24453 38.5704 0 35.4375 0C32.3046 0 29.3001 1.24453 27.0848 3.4598C24.8695 5.67507 23.625 8.67963 23.625 11.8125C23.625 14.9454 24.8695 17.9499 27.0848 20.1652C29.3001 22.3805 32.3046 23.625 35.4375 23.625ZM27.5625 11.8125C27.5625 9.72392 28.3922 7.72088 29.869 6.24403C31.3459 4.76719 33.3489 3.9375 35.4375 3.9375C37.5261 3.9375 39.5291 4.76719 41.006 6.24403C42.4828 7.72088 43.3125 9.72392 43.3125 11.8125C43.3125 13.9011 42.4828 15.9041 41.006 17.381C39.5291 18.8578 37.5261 19.6875 35.4375 19.6875C33.3489 19.6875 31.3459 18.8578 29.869 17.381C28.3922 15.9041 27.5625 13.9011 27.5625 11.8125Z" fill="#2ED198"/>
</svg>
