<svg width="87" height="61" viewBox="0 0 87 61" fill="none" xmlns="http://www.w3.org/2000/svg">
<path d="M19.575 61C8.76797 61 0 52.2176 0 41.3929C0 32.842 5.46469 25.571 13.0772 22.8886C13.0636 22.521 13.05 22.1533 13.05 21.7857C13.05 9.74911 22.7831 0 34.8 0C42.8611 0 49.8891 4.38437 53.6545 10.9201C55.7208 9.53125 58.222 8.71429 60.9 8.71429C68.1047 8.71429 73.95 14.5692 73.95 21.7857C73.95 23.4469 73.6373 25.0263 73.08 26.4969C81.0187 28.1036 87 35.1431 87 43.5714C87 53.198 79.2108 61 69.6 61H19.575ZM30.3141 31.4531C29.0362 32.733 29.0362 34.8027 30.3141 36.069C31.5919 37.3353 33.6581 37.3489 34.9223 36.069L40.2239 30.7587V49.0179C40.2239 50.8288 41.6784 52.2857 43.4864 52.2857C45.2944 52.2857 46.7489 50.8288 46.7489 49.0179V30.7587L52.0505 36.069C53.3283 37.3489 55.3945 37.3489 56.6587 36.069C57.923 34.7891 57.9366 32.7194 56.6587 31.4531L45.7837 20.5603C44.5059 19.2804 42.4397 19.2804 41.1755 20.5603L30.3005 31.4531H30.3141Z" fill="#2ED198"/>
</svg>
