<svg width="69" height="61" viewBox="0 0 69 61" fill="none" xmlns="http://www.w3.org/2000/svg">
<path d="M43.0062 9.70552L44.0723 10.7607L43.0062 9.70552C42.1201 10.6008 41.625 11.8119 41.625 13.0714C41.625 14.331 42.1201 15.542 43.0062 16.4373L44.0723 15.3822L43.0062 16.4373C43.8929 17.3332 45.0987 17.8393 46.3594 17.8393C47.62 17.8393 48.8259 17.3332 49.7125 16.4373L48.6464 15.3822L49.7125 16.4373C50.5987 15.542 51.0938 14.331 51.0938 13.0714C51.0938 11.8119 50.5987 10.6008 49.7125 9.70552L48.6464 10.7607L49.7125 9.70552C48.8259 8.80969 47.62 8.30357 46.3594 8.30357C45.0987 8.30357 43.8929 8.80969 43.0062 9.70552ZM53.7875 51.2945L54.8536 50.2393L53.7875 51.2945C54.6741 52.1903 55.88 52.6964 57.1406 52.6964C58.4013 52.6964 59.6071 52.1903 60.4938 51.2945L59.4277 50.2393L60.4938 51.2945C61.3799 50.3992 61.875 49.1881 61.875 47.9286C61.875 46.669 61.3799 45.458 60.4938 44.5627C59.6071 43.6668 58.4013 43.1607 57.1406 43.1607C55.88 43.1607 54.6741 43.6668 53.7875 44.5627C52.9013 45.458 52.4062 46.669 52.4062 47.9286C52.4062 49.1881 52.9013 50.3992 53.7875 51.2945ZM52.7093 9.70552L53.7755 10.7607L52.7093 9.70552C51.8232 10.6008 51.3281 11.8119 51.3281 13.0714C51.3281 14.331 51.8232 15.542 52.7093 16.4373L53.7755 15.3822L52.7093 16.4373C53.596 17.3332 54.8018 17.8393 56.0625 17.8393C57.3232 17.8393 58.529 17.3332 59.4157 16.4373L58.3495 15.3822L59.4157 16.4373C60.3018 15.542 60.7969 14.331 60.7969 13.0714C60.7969 11.8119 60.3018 10.6008 59.4157 9.70552L58.3495 10.7607L59.4157 9.70552C58.529 8.80969 57.3232 8.30357 56.0625 8.30357C54.8018 8.30357 53.596 8.80969 52.7093 9.70552ZM1.5 8.71429C1.5 4.72164 4.71073 1.5 8.625 1.5H60.375C64.2893 1.5 67.5 4.72164 67.5 8.71429V17.4286C67.5 21.4212 64.2893 24.6429 60.375 24.6429H8.625C4.71073 24.6429 1.5 21.4212 1.5 17.4286V8.71429ZM1.5 43.5714C1.5 39.5788 4.71073 36.3571 8.625 36.3571H60.375C64.2893 36.3571 67.5 39.5788 67.5 43.5714V52.2857C67.5 56.2784 64.2893 59.5 60.375 59.5H8.625C4.71073 59.5 1.5 56.2784 1.5 52.2857V43.5714ZM43.0062 51.2945L44.0723 50.2393L43.0062 51.2945C43.8929 52.1903 45.0987 52.6964 46.3594 52.6964C47.62 52.6964 48.8259 52.1903 49.7125 51.2945L48.6464 50.2393L49.7125 51.2945C50.5987 50.3992 51.0938 49.1881 51.0938 47.9286C51.0938 46.669 50.5987 45.458 49.7125 44.5627C48.8259 43.6668 47.62 43.1607 46.3594 43.1607C45.0987 43.1607 43.8929 43.6668 43.0062 44.5627C42.1201 45.458 41.625 46.669 41.625 47.9286C41.625 49.1881 42.1201 50.3992 43.0062 51.2945Z" stroke="#2ED198" stroke-width="3"/>
</svg>
