<svg width="87" height="61" viewBox="0 0 87 61" fill="none" xmlns="http://www.w3.org/2000/svg">
<path d="M70.278 25.425L69.012 28.7344L72.4849 29.4373C79.047 30.7653 84 36.5933 84 43.5714C84 51.5458 77.5493 58 69.6 58H19.575C10.4295 58 3 50.5654 3 41.3929C3 34.1515 7.62657 27.99 14.0742 25.7181L16.1567 24.9843L16.0751 22.7778C16.0612 22.4009 16.05 22.0887 16.05 21.7857C16.05 11.4013 24.4446 3 34.8 3C41.7428 3 47.802 6.77138 51.0551 12.4177L52.66 15.2033L55.3281 13.4099C56.9165 12.3423 58.8382 11.7143 60.9 11.7143C66.4432 11.7143 70.95 16.2214 70.95 21.7857C70.95 23.0694 70.7085 24.2997 70.278 25.425Z" stroke="#2ED198" stroke-width="6"/>
</svg>
