<svg width="61" height="61" viewBox="0 0 61 61" fill="none" xmlns="http://www.w3.org/2000/svg">
<path d="M44.0394 49.5521L44.519 49.2089L44.102 48.792L12.208 16.898L11.7911 16.481L11.4479 16.9606C8.71985 20.7725 7.125 25.4488 7.125 30.5C7.125 43.405 17.595 53.875 30.5 53.875C35.5512 53.875 40.2275 52.2802 44.0394 49.5521ZM48.792 44.102L49.2089 44.519L49.5521 44.0394C52.2802 40.2275 53.875 35.5512 53.875 30.5C53.875 17.595 43.405 7.125 30.5 7.125C25.4488 7.125 20.7725 8.71985 16.9606 11.4479L16.481 11.7911L16.898 12.208L48.792 44.102ZM0.5 30.5C0.5 22.5435 3.66071 14.9129 9.2868 9.2868C14.9129 3.66071 22.5435 0.5 30.5 0.5C38.4565 0.5 46.0871 3.66071 51.7132 9.2868C57.3393 14.9129 60.5 22.5435 60.5 30.5C60.5 38.4565 57.3393 46.0871 51.7132 51.7132C46.0871 57.3393 38.4565 60.5 30.5 60.5C22.5435 60.5 14.9129 57.3393 9.2868 51.7132C3.66071 46.0871 0.5 38.4565 0.5 30.5Z" fill="#2ED198" stroke="#27B383"/>
</svg>
