<svg width="76" height="59" viewBox="0 0 76 59" fill="none" xmlns="http://www.w3.org/2000/svg">
<path d="M56.377 58.9842C54.5131 59.0888 52.7199 58.7053 50.9204 58.2934C49.6262 57.9955 48.3901 57.555 47.1861 57.0321C46.1656 56.5853 45.2223 55.9895 44.308 55.3462C43.3262 54.6586 42.399 53.9012 41.591 53.0392C40.8634 52.266 40.1938 51.4294 39.5725 50.5579C38.5585 49.1382 37.773 47.5981 37.2321 45.9724C36.7653 44.5749 36.3694 43.1362 36.276 41.6372C36.2213 40.7626 35.9895 39.8943 36.0732 39.0133C36.1794 37.9073 36.3082 36.8045 36.6237 35.7271C36.833 35.0077 37.0229 34.282 37.2772 33.5785C37.7054 32.3902 38.2784 31.262 38.8675 30.1465C39.785 28.4131 40.8602 26.7716 42.0353 25.1966C43.3036 23.4948 44.675 21.8818 46.1269 20.3259C47.0186 19.372 47.9265 18.434 48.8665 17.5277C49.3108 17.0967 49.7969 16.7101 50.2282 16.2632C50.782 15.6896 52.031 15.5407 52.7167 16.2569C54.0237 17.6227 55.4821 18.8396 56.7601 20.2403C57.6229 21.1878 58.5242 22.1037 59.3773 23.0607C59.6091 23.3205 59.7765 23.292 60.0405 22.9561C60.8904 21.8787 61.8143 20.8614 62.7801 19.8854C63.6428 19.0139 64.6505 18.9949 65.5229 19.8505C66.4017 20.7125 67.287 21.5649 68.1112 22.4808C69.2057 23.6913 70.1747 25.0001 71.0761 26.3437C72.6406 28.6729 73.8994 31.1638 74.7589 33.8352C75.1066 34.919 75.4446 36.006 75.7569 37.0993C75.9726 37.8503 75.9951 38.6394 75.9887 39.4063C75.979 41.0224 75.8213 42.6355 75.377 44.1978C74.804 46.2227 73.9734 48.1495 72.8499 49.9463C72.5344 50.4533 72.1288 50.8875 71.7811 51.3692C70.4451 53.2103 68.7808 54.7188 66.8363 55.904C65.1784 56.9149 63.4272 57.7451 61.5214 58.2395C60.7423 58.4423 59.9407 58.5025 59.1745 58.6958C58.2377 58.9303 57.3041 58.9145 56.3673 58.9937L56.377 58.9842ZM66.0283 42.1918C66.0315 41.1682 65.9253 40.3379 65.6903 39.5045C65.378 38.4049 64.8726 37.413 64.277 36.4496C64.0517 36.082 63.9004 36.082 63.5913 36.3704C63.0473 36.8774 62.5998 37.47 62.1169 38.0309C61.3057 38.9721 60.4654 39.8848 59.6574 40.8291C59.4482 41.0731 59.3065 41.0256 59.1584 40.8228C58.682 40.1732 58.1379 39.5774 57.6583 38.9341C56.7086 37.6538 55.6688 36.4433 54.6869 35.1852C53.8531 34.1141 52.9871 33.0683 52.1501 32.0004C51.7542 31.4965 51.5256 31.4743 51.1425 31.9655C50.0415 33.3789 48.9051 34.7669 47.9039 36.2563C47.2279 37.2609 46.5937 38.2971 46.2718 39.4443C45.776 41.1967 45.8887 42.9745 46.4295 44.7238C47.0154 46.6189 48.2066 48.0766 49.7711 49.2745C51.2133 50.3804 52.8712 50.9635 54.6644 51.16C57.6261 51.4832 60.3689 50.9794 62.7511 49.0653C63.5913 48.3903 64.3189 47.6234 64.8694 46.7329C65.7547 45.3037 66.1764 43.7224 66.0315 42.1918H66.0283Z" fill="#2ED198"/>
<path d="M27.9221 9.75094C22.8196 9.75094 17.7171 9.74777 12.6146 9.76045C12.2315 9.76045 12.0834 9.67172 12.0673 9.27559C11.9997 7.77667 12.0448 6.28091 12.0319 4.78199C12.0222 3.49538 12.0222 2.20561 12.0222 0.919003C12.0222 0.814427 12.0222 0.709851 12.0351 0.605274C12.0995 0.0697175 12.1574 0.0126759 12.7144 0.00950693C13.4902 0.00316898 14.2628 0.0158449 15.0387 0.0126759C24.2135 0.00633795 33.3916 0 42.5697 0C42.9012 0 43.236 0.0285208 43.5676 0.0443657C43.7898 0.0538726 43.9121 0.158449 43.925 0.380277C43.9378 0.564078 43.97 0.74471 43.97 0.92851C43.97 3.49221 43.9926 6.05591 43.9572 8.61645C43.9411 9.89355 44.1278 9.74143 42.8304 9.7446C37.8599 9.75728 32.8926 9.75094 27.9221 9.74777V9.75094Z" fill="#2ED198"/>
<path d="M13.0072 13.7914C17.0442 13.7914 21.0779 13.7914 25.1148 13.7914C25.9518 13.7914 25.9454 13.7882 25.9454 14.6185C25.9454 18.0505 25.9454 21.4825 25.9454 24.9145C25.9454 25.542 25.9486 25.5356 25.3337 25.4849C25.0536 25.4627 24.7736 25.4627 24.4935 25.4627C16.5838 25.4627 8.67412 25.4691 0.761207 25.4722C-0.0918934 25.4722 0.0304381 25.5103 0.0272188 24.7877C0.0111226 21.2638 0.0239996 17.7399 0.00146484 14.216C0.00146484 13.7597 0.226812 13.7724 0.542298 13.7724C4.69835 13.7724 8.85439 13.7724 13.0104 13.7724V13.7882L13.0072 13.7914Z" fill="#2ED198"/>
<path d="M23.151 29.519C26.5054 29.519 29.8567 29.519 33.2111 29.519C33.4783 29.519 33.7455 29.5602 34.0095 29.5476C34.3443 29.5317 34.3604 29.6997 34.2638 29.931C34.0739 30.3937 33.8743 30.85 33.6747 31.3095C33.0083 32.8465 32.5641 34.4405 32.2389 36.0852C31.917 37.7045 31.9556 39.3239 31.9556 40.9495C31.9556 41.184 31.8912 41.2506 31.682 41.2601C31.521 41.2664 31.3633 41.2981 31.2055 41.2981C25.0053 41.3013 18.8082 41.3013 12.6079 41.3108C12.2667 41.3108 12.08 41.2823 12.0671 40.8608C12.0478 40.1636 12.0317 39.4696 12.0317 38.7725C12.0285 36.0503 12.0317 33.3313 12.0317 30.6092C12.0317 30.4919 12.0349 30.3715 12.0414 30.2543C12.0864 29.5317 12.0864 29.5159 12.8526 29.5159C16.2875 29.5095 19.7193 29.5159 23.1542 29.5159L23.151 29.519Z" fill="#2ED198"/>
<path d="M13.0007 45.3513C17.0344 45.3513 21.0713 45.3513 25.105 45.3513C25.9485 45.3513 25.9453 45.3481 25.9453 46.1689C25.9453 48.929 25.9453 51.6892 25.9485 54.4494C25.9485 55.0452 25.9581 55.0483 25.3336 55.0483C21.5381 55.0483 17.7458 55.0452 13.9503 55.042C11.9319 55.042 9.91341 55.0959 7.89816 55.0261C5.11351 54.9311 2.87291 53.7776 1.29226 51.4674C0.390873 50.1523 -0.00831362 48.6977 0.00134413 47.1195C0.00134413 46.6474 0.0270981 46.172 0.00134413 45.6998C-0.0147521 45.4051 0.114018 45.3291 0.371558 45.3322C1.02506 45.3418 1.68179 45.3513 2.3353 45.3544C5.88935 45.3544 9.4434 45.3544 12.9974 45.3544V45.3481L13.0007 45.3513Z" fill="#2ED198"/>
<path d="M38.2912 13.7946C40.8827 13.7946 43.4742 13.7946 46.0689 13.7977C46.2459 13.7977 46.5067 13.7154 46.5807 13.9055C46.6451 14.0766 46.4262 14.2224 46.291 14.3428C45.3477 15.1984 44.4399 16.0826 43.5707 17.0111C42.3893 18.2787 41.2207 19.5558 40.1229 20.8963C38.9897 22.2748 37.9274 23.7008 37.0067 25.2251C36.8779 25.4374 36.7105 25.4596 36.5045 25.4596C35.0075 25.4596 33.5106 25.4596 32.0136 25.4659C31.4535 25.4659 30.8901 25.4754 30.3332 25.5103C30.0531 25.5261 29.9919 25.4216 29.9984 25.1712C30.0917 21.8058 30.0241 18.4403 30.0338 15.0748C30.0338 14.7738 30.0113 14.4696 29.9855 14.1685C29.963 13.896 30.0274 13.7692 30.3557 13.7724C33.0019 13.7851 35.6482 13.7787 38.2912 13.7787C38.2912 13.7851 38.2912 13.7914 38.2912 13.7977V13.7946Z" fill="#2ED198"/>
<path d="M7.77268 35.4672C7.77268 37.2798 7.76624 39.0925 7.77912 40.9083C7.77912 41.1682 7.68576 41.2728 7.44432 41.2823C7.29623 41.2886 7.15137 41.3044 7.00328 41.3044C4.94618 41.3044 2.88908 41.3108 0.831985 41.3076C0.0271734 41.3076 0.0110772 41.3013 0.0110772 40.5249C0.00785792 36.9629 0.0110772 33.4042 0.00463867 29.8423C0.00463867 29.6331 0.0754621 29.5507 0.258959 29.5317C0.432799 29.5159 0.606638 29.5032 0.777258 29.5032C2.90196 29.5063 5.02345 29.5095 7.14815 29.519C7.75337 29.519 7.77268 29.5539 7.77268 30.1433C7.77268 31.9179 7.77268 33.6894 7.77268 35.464C7.77268 35.464 7.76946 35.464 7.76624 35.464L7.77268 35.4672Z" fill="#2ED198"/>
<path d="M48.171 4.89609C48.1549 3.46371 48.2322 2.03134 48.1614 0.598958C48.1324 -0.00314744 48.1807 0.00952847 48.7891 0.0538941C50.946 0.209174 52.6361 1.23592 54.0204 2.78555C54.8638 3.72991 55.4626 4.81687 55.7169 6.08129C55.9294 7.14923 55.9616 8.21718 55.9326 9.29463C55.9262 9.57667 55.8199 9.70977 55.5366 9.7161C55.4047 9.71927 55.2695 9.74146 55.1375 9.74146C52.9999 9.74146 50.8623 9.74779 48.7247 9.74462C48.1742 9.74462 48.1678 9.72561 48.171 9.19005C48.1742 7.75768 48.171 6.3253 48.171 4.89292V4.89609Z" fill="#2ED198"/>
<path d="M7.77595 4.90869C7.77595 6.39177 7.76951 7.87802 7.78238 9.3611C7.78238 9.59877 7.7019 9.70335 7.47334 9.7192C7.31237 9.7287 7.15463 9.74455 6.99367 9.74455C4.93657 9.74772 2.88269 9.75089 0.82559 9.74772C0.0304358 9.74772 0.0239974 9.73821 0.0143396 8.95547C0.00790114 8.48329 -0.00497585 8.00795 0.0207781 7.53894C0.136671 5.43791 0.928606 3.65061 2.50282 2.18654C3.56839 1.19465 4.77239 0.497474 6.19851 0.196422C6.62667 0.104521 7.07093 0.10769 7.50875 0.0664936C7.75663 0.0443108 7.75019 0.218605 7.75341 0.377053C7.75985 0.982328 7.75985 1.58443 7.75985 2.18971C7.75985 3.09604 7.75985 4.00236 7.75985 4.90869C7.76629 4.90869 7.76951 4.90869 7.77595 4.90869Z" fill="#2ED198"/>
<path d="M33.8936 55.0451C32.7315 55.0451 31.5693 55.0387 30.4104 55.0514C30.0917 55.0546 29.9758 54.9785 29.9854 54.6299C30.0724 51.6891 30.0724 48.7451 29.9854 45.8043C29.9758 45.4652 30.0241 45.2973 30.4329 45.329C31.0317 45.3733 31.6337 45.3512 32.2357 45.3575C32.7733 45.3607 32.8248 45.4145 32.9729 45.9279C33.8743 49.0462 35.3906 51.8507 37.4831 54.3542C37.5088 54.3859 37.5346 54.4144 37.5603 54.4461C37.6794 54.5951 37.9724 54.7187 37.8855 54.893C37.7889 55.0894 37.4863 55.0387 37.2642 55.0419C36.1439 55.0419 35.0204 55.0419 33.9001 55.0419L33.8936 55.0451Z" fill="#2ED198"/>
</svg>
