<svg width="33" height="40" viewBox="0 0 33 40" fill="none" xmlns="http://www.w3.org/2000/svg">
<path d="M15.7953 9.63284C15.8712 9.6719 15.9319 9.76565 16.023 9.76565C16.1064 9.76565 16.2355 9.7344 16.2431 9.64846C16.2582 9.53909 16.0989 9.46877 16.0002 9.4219C15.8712 9.36721 15.7042 9.34377 15.5828 9.41409C15.5524 9.42971 15.5221 9.46877 15.5373 9.50002C15.56 9.60159 15.7118 9.58596 15.7953 9.63284ZM14.1332 9.76565C14.2243 9.76565 14.285 9.6719 14.3609 9.63284C14.4444 9.58596 14.5962 9.60158 14.6265 9.50783C14.6417 9.47658 14.6114 9.43752 14.581 9.4219C14.4596 9.35159 14.2926 9.37502 14.1636 9.42971C14.0649 9.47658 13.9056 9.5469 13.9207 9.65627C13.9283 9.7344 14.0573 9.77346 14.1332 9.76565ZM30.9131 31.5469C30.6399 31.2344 30.5109 30.6406 30.3667 30.0078C30.2301 29.375 30.0707 28.6953 29.5698 28.2578C29.4712 28.1719 29.3725 28.0938 29.2663 28.0313C29.1676 27.9688 29.0614 27.9141 28.9551 27.875C29.6533 25.7422 29.3801 23.6172 28.6743 21.6953C27.8091 19.3438 26.2989 17.2891 25.1453 15.8828C23.8475 14.2031 22.5877 12.6094 22.6105 10.2578C22.6484 6.6719 22.9975 0.00783509 16.8578 2.25918e-05C9.08636 -0.0156024 11.0292 8.07815 10.9457 10.5625C10.8167 12.3906 10.46 13.8281 9.23814 15.6172C7.80377 17.375 5.78502 20.211 4.82877 23.1719C4.37341 24.5703 4.16091 25.9922 4.35823 27.336C3.86493 27.7891 3.49306 28.4844 3.09841 28.9141C2.77966 29.25 2.31672 29.375 1.80823 29.5625C1.29975 29.75 0.745734 30.0313 0.404216 30.6953C0.244841 31 0.191716 31.3281 0.191716 31.6641C0.191716 31.9688 0.237252 32.2813 0.282788 32.586C0.373859 33.2188 0.47252 33.8125 0.343502 34.211C-0.0511409 35.336 -0.104266 36.1172 0.176538 36.6875C0.46493 37.2578 1.04172 37.5078 1.70198 37.6485C3.01493 37.9297 4.79841 37.8594 6.20243 38.625C7.70511 39.4375 9.23055 39.7266 10.4448 39.4375C11.3252 39.2344 12.0462 38.6875 12.4105 37.8594C13.3591 37.8516 14.4064 37.4375 16.0761 37.3438C17.2069 37.25 18.6261 37.7578 20.2578 37.6641C20.3033 37.8438 20.364 38.0235 20.4475 38.1875V38.1953C21.0774 39.5 22.2538 40.0938 23.506 39.9922C24.7658 39.8906 26.0939 39.1328 27.1716 37.8125C28.2038 36.5313 29.9038 36 31.0346 35.2969C31.5962 34.9453 32.0515 34.5078 32.0895 33.8672C32.1198 33.2266 31.7556 32.5156 30.9131 31.5469ZM16.0154 6.82034C16.7591 5.08596 18.6109 5.11721 19.3547 6.78909C19.848 7.89846 19.6279 9.20315 19.0283 9.94534C18.9069 9.88284 18.5806 9.74221 18.0721 9.56252C18.1556 9.46877 18.3073 9.35159 18.3681 9.20315C18.7323 8.28127 18.3529 7.09377 17.6774 7.07034C17.1234 7.03127 16.6225 7.91409 16.7819 8.86721C16.4707 8.71096 16.0685 8.59377 15.7953 8.52346C15.7194 7.9844 15.7725 7.38284 16.0154 6.82034ZM12.9265 5.9219C13.6931 5.9219 14.5051 7.03127 14.3761 8.53909C14.1105 8.61721 13.8373 8.7344 13.602 8.89846C13.6931 8.20315 13.3515 7.32815 12.8734 7.36721C12.2359 7.4219 12.1297 9.02346 12.7368 9.56252C12.8127 9.62502 12.881 9.5469 12.289 9.99221C11.1051 8.85159 11.4922 5.9219 12.9265 5.9219ZM11.8944 10.6641C12.3649 10.3047 12.9265 9.88284 12.9645 9.84377C13.3212 9.50002 13.989 8.7344 15.0819 8.7344C15.6207 8.7344 16.2658 8.91408 17.0475 9.42971C17.5256 9.75002 17.9051 9.77346 18.7627 10.1563C19.4002 10.4297 19.8024 10.9141 19.5596 11.5781C19.3622 12.1328 18.7247 12.7031 17.8368 12.9922C16.9944 13.2735 16.3341 14.2422 14.9377 14.1563C14.6417 14.1406 14.4064 14.0781 14.2091 13.9922C13.602 13.7188 13.2832 13.1797 12.6913 12.8203C12.0386 12.4453 11.6895 12.0078 11.5756 11.625C11.4694 11.2422 11.5756 10.9219 11.8944 10.6641ZM12.1448 36.7578C11.9399 39.5 8.81314 39.4453 6.43011 38.1641C4.16091 36.9297 1.22386 37.6563 0.624305 36.4531C0.442163 36.086 0.442163 35.461 0.821627 34.3906V34.375C1.00377 33.7813 0.867162 33.125 0.776091 32.5078C0.68502 31.8985 0.639484 31.336 0.844395 30.9453C1.11002 30.4219 1.48948 30.2344 1.96761 30.0625C2.74931 29.7735 2.86314 29.7969 3.45511 29.2891C3.87252 28.8438 4.17609 28.2813 4.54038 27.8828C4.92743 27.4531 5.2993 27.25 5.88368 27.3438C6.49841 27.4375 7.02966 27.875 7.54573 28.5938L9.03323 31.375C9.75422 32.9297 12.3042 35.1563 12.1448 36.7578ZM12.0386 34.7344C11.7274 34.2188 11.31 33.6719 10.9457 33.2031C11.4846 33.2031 12.0234 33.0313 12.2131 32.5078C12.3877 32.0235 12.2131 31.3438 11.6515 30.5625C10.627 29.1406 8.74484 28.0235 8.74484 28.0235C7.72029 27.3672 7.1435 26.5625 6.87788 25.6875C6.61225 24.8125 6.6502 23.8672 6.85511 22.9375C7.24975 21.1485 8.26672 19.4063 8.91939 18.3125C9.09395 18.1797 8.98011 18.5625 8.25913 19.9375C7.61404 21.1953 6.40734 24.1016 8.0618 26.375C8.10734 24.7578 8.47922 23.1094 9.10913 21.5703C10.0198 19.4297 11.9399 15.7188 12.0917 12.7656C12.1752 12.8281 12.4408 13.0156 12.5623 13.086C12.9114 13.2969 13.177 13.6094 13.5185 13.8906C14.4596 14.6719 15.6814 14.6094 16.7364 13.9844C17.2069 13.711 17.5864 13.3985 17.9431 13.2813C18.6944 13.0391 19.2939 12.6094 19.6355 12.1094C20.2198 14.4844 21.5859 17.9141 22.4587 19.586C22.9216 20.4766 23.8475 22.3594 24.2498 24.6328C24.5002 24.625 24.781 24.6641 25.077 24.7422C26.1243 21.9531 24.189 18.9453 23.3087 18.1094C22.952 17.75 22.9368 17.5938 23.1114 17.6016C24.0676 18.4766 25.3274 20.2344 25.7828 22.211C25.9953 23.1172 26.0332 24.0625 25.8131 25C27.0578 25.5313 28.5377 26.3985 28.1431 27.7188C27.9761 27.711 27.9002 27.7188 27.8243 27.7188C28.0672 26.9297 27.5283 26.3438 26.0939 25.6797C24.6064 25.0078 23.3618 25.0078 23.1873 26.6563C22.2689 26.9844 21.7984 27.8047 21.5631 28.7891C21.3506 29.6641 21.2899 30.7188 21.2292 31.9063C21.1913 32.5078 20.956 33.3125 20.7131 34.1719C18.277 35.961 14.8922 36.7422 12.0386 34.7344ZM31.5734 33.836C31.5051 35.1485 28.4466 35.3906 26.777 37.4688C25.7752 38.6953 24.5457 39.375 23.4681 39.461C22.3904 39.5469 21.4569 39.086 20.9105 37.9531C20.5538 37.086 20.7283 36.1485 20.9939 35.1172C21.2747 34.0078 21.6922 32.8672 21.7453 31.9453C21.806 30.7578 21.8743 29.7188 22.064 28.9219C22.2614 28.1172 22.5649 27.5781 23.1038 27.2735C23.1265 27.2578 23.1569 27.25 23.1797 27.2344C23.2404 28.2656 23.7337 29.3125 24.6064 29.5391C25.5627 29.7969 26.9364 28.9531 27.5207 28.2656C28.2038 28.2422 28.7122 28.1953 29.2359 28.6641C29.9872 29.3281 29.7747 31.0313 30.5337 31.9141C31.3381 32.8203 31.5962 33.4375 31.5734 33.836ZM12.1904 11.6172C12.3422 11.7656 12.5471 11.9688 12.7975 12.1719C13.2984 12.5781 13.9966 13 14.8694 13C15.7498 13 16.577 12.5391 17.2828 12.1563C17.6547 11.9531 18.11 11.6094 18.406 11.3438C18.702 11.0781 18.8538 10.8516 18.6413 10.8281C18.4288 10.8047 18.4439 11.0313 18.1859 11.2266C17.852 11.4766 17.4497 11.8047 17.131 11.9922C16.5694 12.3203 15.6511 12.7891 14.8618 12.7891C14.0725 12.7891 13.4426 12.4141 12.9721 12.0313C12.7368 11.836 12.5395 11.6406 12.3877 11.4922C12.2739 11.3828 12.2435 11.1328 12.0614 11.1094C11.9551 11.1016 11.9248 11.3985 12.1904 11.6172Z" fill="#030712"/>
</svg>
