<svg width="33" height="39" viewBox="0 0 33 39" fill="none" xmlns="http://www.w3.org/2000/svg">
<path d="M33 6.09375V9.75C33 13.1168 25.6118 15.8438 16.5 15.8438C7.38817 15.8438 0 13.1168 0 9.75V6.09375C0 2.72695 7.38817 0 16.5 0C25.6118 0 33 2.72695 33 6.09375ZM28.9634 16.3541C30.4955 15.7904 31.9025 15.0668 33 14.1756V21.9375C33 25.3043 25.6118 28.0312 16.5 28.0312C7.38817 28.0312 0 25.3043 0 21.9375V14.1756C1.09754 15.0744 2.50446 15.7904 4.03661 16.3541C7.34397 17.5729 11.7489 18.2812 16.5 18.2812C21.2511 18.2812 25.656 17.5729 28.9634 16.3541ZM0 26.3631C1.09754 27.2619 2.50446 27.9779 4.03661 28.5416C7.34397 29.7604 11.7489 30.4688 16.5 30.4688C21.2511 30.4688 25.656 29.7604 28.9634 28.5416C30.4955 27.9779 31.9025 27.2543 33 26.3631V32.9062C33 36.273 25.6118 39 16.5 39C7.38817 39 0 36.273 0 32.9062V26.3631Z" fill="#030712"/>
</svg>
