<svg width="66" height="58" viewBox="0 0 66 58" fill="none" xmlns="http://www.w3.org/2000/svg">
<path d="M33 6.1875C19.323 6.1875 8.04375 16.4227 6.39375 29.6484C7.60547 29.1586 8.92031 28.875 10.3125 28.875C13.7285 28.875 16.5 31.6465 16.5 35.0625V51.5625C16.5 54.9785 13.7285 57.75 10.3125 57.75C4.61484 57.75 0 53.1352 0 47.4375V45.375V39.1875V33C0 14.7727 14.7727 0 33 0C51.2273 0 66 14.7727 66 33V39.1875V45.375V47.4375C66 53.1352 61.3852 57.75 55.6875 57.75C52.2715 57.75 49.5 54.9785 49.5 51.5625V35.0625C49.5 31.6465 52.2715 28.875 55.6875 28.875C57.0797 28.875 58.3945 29.1457 59.6063 29.6484C57.9562 16.4227 46.677 6.1875 33 6.1875Z" fill="#2ED198"/>
</svg>
