<svg width="41" height="41" viewBox="0 0 41 41" fill="none" xmlns="http://www.w3.org/2000/svg">
<path d="M37.5833 12.8723V29.0416C37.5834 30.3489 37.0839 31.6067 36.1871 32.5578C35.2903 33.5089 34.0639 34.0814 32.759 34.1581L32.4583 34.1666H8.54163C7.23439 34.1667 5.97654 33.6672 5.02543 32.7704C4.07432 31.8736 3.50186 30.6473 3.42517 29.3423L3.41663 29.0416V12.8723L19.5518 23.6296L19.75 23.7424C19.9835 23.8565 20.24 23.9158 20.5 23.9158C20.7599 23.9158 21.0164 23.8565 21.2499 23.7424L21.4481 23.6296L37.5833 12.8723Z" fill="#030712"/>
<path d="M32.4583 6.83331C34.3033 6.83331 35.9211 7.80706 36.8231 9.2711L20.5 20.1532L4.17688 9.2711C4.60521 8.57542 5.1937 7.99225 5.89326 7.57026C6.59281 7.14827 7.38313 6.89969 8.1983 6.84527L8.54167 6.83331H32.4583Z" fill="#030712"/>
</svg>
