<svg width="42" height="42" viewBox="0 0 42 42" fill="none" xmlns="http://www.w3.org/2000/svg">
<circle cx="21" cy="21" r="21" fill="#2ED198"/>
<path d="M18.375 21.5C19.6182 21.5 20.8105 21.0061 21.6896 20.1271C22.5686 19.248 23.0625 18.0557 23.0625 16.8125C23.0625 15.5693 22.5686 14.377 21.6896 13.4979C20.8105 12.6189 19.6182 12.125 18.375 12.125C17.1318 12.125 15.9395 12.6189 15.0604 13.4979C14.1814 14.377 13.6875 15.5693 13.6875 16.8125C13.6875 18.0557 14.1814 19.248 15.0604 20.1271C15.9395 21.0061 17.1318 21.5 18.375 21.5ZM10.5625 30.875C10.5625 30.875 9 30.875 9 29.3125C9 27.75 10.5625 23.0625 18.375 23.0625C26.1875 23.0625 27.75 27.75 27.75 29.3125C27.75 30.875 26.1875 30.875 26.1875 30.875H10.5625ZM26.1875 14.4688C26.1875 14.2615 26.2698 14.0628 26.4163 13.9163C26.5628 13.7698 26.7615 13.6875 26.9688 13.6875H33.2188C33.426 13.6875 33.6247 13.7698 33.7712 13.9163C33.9177 14.0628 34 14.2615 34 14.4688C34 14.676 33.9177 14.8747 33.7712 15.0212C33.6247 15.1677 33.426 15.25 33.2188 15.25H26.9688C26.7615 15.25 26.5628 15.1677 26.4163 15.0212C26.2698 14.8747 26.1875 14.676 26.1875 14.4688ZM26.9688 18.375C26.7615 18.375 26.5628 18.4573 26.4163 18.6038C26.2698 18.7503 26.1875 18.949 26.1875 19.1562C26.1875 19.3635 26.2698 19.5622 26.4163 19.7087C26.5628 19.8552 26.7615 19.9375 26.9688 19.9375H33.2188C33.426 19.9375 33.6247 19.8552 33.7712 19.7087C33.9177 19.5622 34 19.3635 34 19.1562C34 18.949 33.9177 18.7503 33.7712 18.6038C33.6247 18.4573 33.426 18.375 33.2188 18.375H26.9688ZM30.0938 23.0625C29.8865 23.0625 29.6878 23.1448 29.5413 23.2913C29.3948 23.4378 29.3125 23.6365 29.3125 23.8438C29.3125 24.051 29.3948 24.2497 29.5413 24.3962C29.6878 24.5427 29.8865 24.625 30.0938 24.625H33.2188C33.426 24.625 33.6247 24.5427 33.7712 24.3962C33.9177 24.2497 34 24.051 34 23.8438C34 23.6365 33.9177 23.4378 33.7712 23.2913C33.6247 23.1448 33.426 23.0625 33.2188 23.0625H30.0938ZM30.0938 27.75C29.8865 27.75 29.6878 27.8323 29.5413 27.9788C29.3948 28.1253 29.3125 28.324 29.3125 28.5312C29.3125 28.7385 29.3948 28.9372 29.5413 29.0837C29.6878 29.2302 29.8865 29.3125 30.0938 29.3125H33.2188C33.426 29.3125 33.6247 29.2302 33.7712 29.0837C33.9177 28.9372 34 28.7385 34 28.5312C34 28.324 33.9177 28.1253 33.7712 27.9788C33.6247 27.8323 33.426 27.75 33.2188 27.75H30.0938Z" fill="#030712"/>
</svg>
