<svg width="42" height="42" viewBox="0 0 42 42" fill="none" xmlns="http://www.w3.org/2000/svg">
<circle cx="21" cy="21" r="21" fill="#2ED198"/>
<path d="M21.0975 18.5625C21.313 18.5625 21.5196 18.6481 21.672 18.8005C21.8244 18.9528 21.91 19.1595 21.91 19.375V20.636C21.9098 22.5771 21.6071 24.5064 21.013 26.3544L18.8501 33.0819C18.7802 33.2819 18.6351 33.4467 18.4455 33.5412C18.2559 33.6357 18.0369 33.6524 17.8351 33.5878C17.6334 33.5231 17.4648 33.3823 17.3655 33.1952C17.2661 33.0081 17.2437 32.7896 17.3031 32.5863L19.4643 25.8571C20.0069 24.1698 20.2832 22.4083 20.2833 20.636V19.375C20.2833 19.1595 20.3689 18.9528 20.5213 18.8005C20.6737 18.6481 20.8803 18.5625 21.0958 18.5625H21.0975Z" fill="#030712"/>
<path d="M17.8476 19.375C17.8476 18.9482 17.9317 18.5256 18.095 18.1313C18.2583 17.737 18.4977 17.3787 18.7995 17.0769C19.1013 16.7751 19.4596 16.5357 19.8539 16.3724C20.2482 16.2091 20.6708 16.125 21.0976 16.125C21.5244 16.125 21.947 16.2091 22.3413 16.3724C22.7356 16.5357 23.0939 16.7751 23.3957 17.0769C23.6975 17.3787 23.9369 17.737 24.1002 18.1313C24.2636 18.5256 24.3476 18.9482 24.3476 19.375C24.3476 19.5905 24.262 19.7972 24.1096 19.9495C23.9573 20.1019 23.7506 20.1875 23.5351 20.1875C23.3196 20.1875 23.113 20.1019 22.9606 19.9495C22.8082 19.7972 22.7226 19.5905 22.7226 19.375C22.7226 18.944 22.5514 18.5307 22.2467 18.226C21.9419 17.9212 21.5286 17.75 21.0976 17.75C20.6666 17.75 20.2533 17.9212 19.9486 18.226C19.6438 18.5307 19.4726 18.944 19.4726 19.375V19.9145C19.4726 20.5791 19.4369 21.2405 19.3654 21.8986C19.3372 22.1084 19.2283 22.299 19.0619 22.4297C18.8954 22.5605 18.6844 22.6211 18.4739 22.5986C18.2634 22.5762 18.07 22.4725 17.9348 22.3095C17.7996 22.1466 17.7334 21.9374 17.7501 21.7264C17.8151 21.1251 17.8476 20.5206 17.8476 19.9145V19.375ZM23.5497 21C23.6565 21.0027 23.7616 21.0265 23.8591 21.0699C23.9566 21.1132 24.0447 21.1754 24.1182 21.2528C24.1917 21.3303 24.2492 21.4214 24.2874 21.521C24.3257 21.6207 24.3439 21.7269 24.3411 21.8336C24.293 23.6794 23.9715 25.5079 23.3872 27.2595L21.33 33.4345C21.2617 33.639 21.1149 33.808 20.922 33.9043C20.7291 34.0006 20.5059 34.0163 20.3014 33.948C20.0969 33.8797 19.9279 33.7329 19.8316 33.54C19.7353 33.3471 19.7196 33.1239 19.7879 32.9194L21.8467 26.7444C22.3796 25.1454 22.6725 23.4763 22.7161 21.7914C22.7189 21.6847 22.7426 21.5795 22.786 21.482C22.8294 21.3845 22.8915 21.2964 22.9689 21.223C23.0464 21.1495 23.1375 21.0919 23.2372 21.0537C23.3368 21.0154 23.443 20.9972 23.5497 21ZM18.0962 24.4369C18.1983 24.4684 18.2931 24.5197 18.3753 24.5879C18.4575 24.6561 18.5255 24.7398 18.5753 24.8343C18.6251 24.9288 18.6558 25.0322 18.6656 25.1385C18.6754 25.2449 18.6642 25.3521 18.6325 25.4541L16.5151 32.2759C16.4851 32.3796 16.4347 32.4763 16.3669 32.5604C16.2991 32.6444 16.2152 32.7141 16.1201 32.7653C16.025 32.8166 15.9207 32.8483 15.8132 32.8588C15.7057 32.8692 15.5972 32.8581 15.4941 32.8262C15.3909 32.7942 15.2952 32.742 15.2124 32.6726C15.1297 32.6032 15.0616 32.518 15.0122 32.4219C14.9628 32.3259 14.933 32.221 14.9246 32.1133C14.9162 32.0057 14.9293 31.8974 14.9632 31.7949L17.0806 24.9715C17.1446 24.7661 17.2875 24.5944 17.4779 24.4942C17.6683 24.394 17.8907 24.3733 18.0962 24.4369Z" fill="#030712"/>
<path d="M15.7334 17.4787C16.1822 16.2155 17.0627 15.1513 18.2195 14.4739C19.3764 13.7964 20.7353 13.5493 22.0566 13.7761C23.3779 14.0028 24.5767 14.6889 25.4414 15.7133C26.3062 16.7376 26.7815 18.0345 26.7834 19.3751C26.7834 19.5906 26.6978 19.7973 26.5455 19.9496C26.3931 20.102 26.1864 20.1876 25.9709 20.1876C25.7554 20.1876 25.5488 20.102 25.3964 19.9496C25.244 19.7973 25.1584 19.5906 25.1584 19.3751C25.1583 18.4168 24.8194 17.4895 24.2017 16.7569C23.5839 16.0243 22.7271 15.5337 21.7826 15.3717C20.8382 15.2097 19.8668 15.3868 19.0403 15.8717C18.2138 16.3566 17.5853 17.118 17.2658 18.0215C17.1938 18.2247 17.0441 18.391 16.8495 18.4838C16.6549 18.5766 16.4315 18.5883 16.2282 18.5163C16.025 18.4443 15.8587 18.2946 15.766 18.1C15.6732 17.9054 15.6615 17.6819 15.7334 17.4787ZM16.2209 20.1925C16.4353 20.2134 16.6326 20.3187 16.7694 20.4851C16.9062 20.6514 16.9714 20.8653 16.9506 21.0797C16.8409 22.1983 16.6232 23.3035 16.3006 24.3801L14.3148 30.9971C14.253 31.2035 14.1116 31.377 13.9219 31.4792C13.7322 31.5814 13.5097 31.6041 13.3032 31.5423C13.0968 31.4805 12.9234 31.3391 12.8211 31.1494C12.7189 30.9597 12.6962 30.7372 12.7581 30.5307L14.7438 23.9137C15.0366 22.9374 15.2341 21.9349 15.3337 20.9205C15.3546 20.7061 15.4599 20.5088 15.6263 20.372C15.7926 20.2352 16.0065 20.1716 16.2209 20.1925ZM25.9709 21.2439C26.1864 21.2439 26.3931 21.3295 26.5455 21.4818C26.6978 21.6342 26.7834 21.8409 26.7834 22.0564C26.7834 24.1364 26.4373 26.2034 25.7564 28.1696L23.9852 33.2802C23.908 33.4748 23.7588 33.6321 23.5685 33.7193C23.3783 33.8066 23.1617 33.817 22.9639 33.7485C22.7662 33.68 22.6025 33.5378 22.5069 33.3516C22.4114 33.1654 22.3914 32.9495 22.4512 32.7489L24.2208 27.6382C24.8416 25.8426 25.1601 23.956 25.1601 22.0564C25.1601 21.8409 25.2457 21.6342 25.398 21.4818C25.5504 21.3295 25.7571 21.2439 25.9726 21.2439H25.9709Z" fill="#030712"/>
<path d="M14.3408 14.8608C15.2436 13.5074 16.5321 12.4564 18.0394 11.8441C19.5467 11.2319 21.2032 11.0866 22.794 11.4272C22.8985 11.4494 22.9976 11.4919 23.0856 11.5524C23.1736 11.6129 23.2488 11.6901 23.307 11.7796C23.3652 11.8692 23.4051 11.9693 23.4246 12.0743C23.4441 12.1793 23.4427 12.2871 23.4205 12.3916C23.3983 12.4961 23.3557 12.5951 23.2952 12.6831C23.2348 12.7712 23.1575 12.8464 23.068 12.9046C22.9784 12.9627 22.8783 13.0027 22.7733 13.0222C22.6683 13.0416 22.5605 13.0402 22.456 13.018C21.1831 12.7449 19.8574 12.8607 18.6511 13.3504C17.4448 13.8401 16.4135 14.6811 15.6912 15.7643C15.5696 15.9393 15.3842 16.0595 15.1749 16.0991C14.9656 16.1387 14.7491 16.0945 14.572 15.9761C14.395 15.8576 14.2715 15.6743 14.2283 15.4657C14.185 15.2571 14.2254 15.0399 14.3408 14.8608ZM25.2608 13.3089C25.4015 13.1458 25.6013 13.0453 25.8161 13.0295C26.0309 13.0136 26.2433 13.0838 26.4064 13.2244C27.2906 13.9866 27.9998 14.9307 28.4856 15.9923C28.9713 17.0538 29.2222 18.2077 29.2209 19.375V21.8125C29.2209 22.028 29.1353 22.2347 28.9829 22.3871C28.8306 22.5394 28.6239 22.625 28.4084 22.625C28.1929 22.625 27.9863 22.5394 27.8339 22.3871C27.6815 22.2347 27.5959 22.028 27.5959 21.8125V19.375C27.597 18.4411 27.3964 17.5178 27.0077 16.6686C26.6189 15.8193 26.0513 15.0641 25.3437 14.4545C25.1808 14.3136 25.0806 14.1137 25.0651 13.8989C25.0495 13.6841 25.1199 13.4719 25.2608 13.3089ZM13.98 17.4933C14.0857 17.5088 14.1873 17.545 14.2789 17.5998C14.3706 17.6546 14.4506 17.7269 14.5143 17.8126C14.5779 17.8984 14.6241 17.9958 14.6501 18.0994C14.6761 18.203 14.6814 18.3106 14.6658 18.4163C14.6187 18.7283 14.5943 19.05 14.5943 19.375C14.5943 20.5288 14.4318 21.6777 14.11 22.7875L12.2575 29.1624C12.2298 29.2671 12.1814 29.3652 12.1151 29.4509C12.0489 29.5366 11.9662 29.6082 11.8719 29.6615C11.7776 29.7148 11.6736 29.7487 11.566 29.7612C11.4584 29.7737 11.3494 29.7646 11.2454 29.7344C11.1414 29.7042 11.0445 29.6534 10.9604 29.5852C10.8762 29.517 10.8066 29.4326 10.7556 29.3371C10.7045 29.2416 10.6731 29.1368 10.6631 29.0289C10.6531 28.9211 10.6648 28.8123 10.6975 28.709L12.55 22.3342C12.8287 21.3725 12.9698 20.3763 12.9693 19.375C12.9693 18.9688 13.0002 18.569 13.057 18.179C13.0725 18.0734 13.1087 17.9718 13.1635 17.8801C13.2183 17.7885 13.2906 17.7085 13.3764 17.6448C13.4621 17.5811 13.5595 17.535 13.6631 17.509C13.7667 17.483 13.8744 17.4776 13.98 17.4933ZM28.4133 23.4408C28.6279 23.459 28.8265 23.5616 28.9654 23.7262C29.1043 23.8907 29.1723 24.1037 29.1543 24.3183C29.0178 25.9433 28.67 27.5455 28.1143 29.086L26.9053 32.4465C26.8299 32.6459 26.6792 32.8077 26.4857 32.897C26.2921 32.9863 26.0712 32.996 25.8706 32.9239C25.67 32.8518 25.5057 32.7038 25.4133 32.5118C25.3208 32.3198 25.3074 32.0991 25.3762 31.8973L26.5868 28.5335C27.0917 27.1306 27.4108 25.6676 27.5358 24.1818C27.554 23.9672 27.6566 23.7686 27.8212 23.6297C27.9857 23.4907 28.1987 23.4228 28.4133 23.4408Z" fill="#030712"/>
<path d="M15.8162 10.2261C17.422 9.29903 19.2436 8.81098 21.0978 8.81104C22.952 8.81109 24.7736 9.29927 26.3793 10.2265C27.9851 11.1537 29.3184 12.4873 30.2454 14.0932C31.1723 15.6991 31.6602 17.5207 31.66 19.3749C31.66 19.5904 31.5744 19.797 31.422 19.9494C31.2696 20.1018 31.063 20.1874 30.8475 20.1874C30.632 20.1874 30.4253 20.1018 30.273 19.9494C30.1206 19.797 30.035 19.5904 30.035 19.3749C30.0355 17.8058 29.6229 16.2642 28.8387 14.9051C28.0545 13.546 26.9263 12.4173 25.5675 11.6325C24.2088 10.8477 22.6674 10.4345 21.0982 10.4344C19.5291 10.4342 17.9876 10.8472 16.6287 11.6318C16.443 11.7289 16.227 11.7505 16.0257 11.6921C15.8245 11.6338 15.6536 11.4999 15.5487 11.3184C15.4438 11.137 15.4131 10.9221 15.463 10.7185C15.5128 10.515 15.6394 10.3386 15.8162 10.2261ZM14.37 12.2688C14.4496 12.3398 14.5144 12.4259 14.5608 12.522C14.6071 12.6181 14.6341 12.7224 14.6401 12.8289C14.6461 12.9355 14.6311 13.0421 14.5959 13.1429C14.5607 13.2436 14.5061 13.3364 14.435 13.416C12.9666 15.0531 12.1562 17.1758 12.16 19.3749C12.16 19.5904 12.0744 19.797 11.922 19.9494C11.7696 20.1018 11.563 20.1874 11.3475 20.1874C11.132 20.1874 10.9253 20.1018 10.773 19.9494C10.6206 19.797 10.535 19.5904 10.535 19.3749C10.535 16.6709 11.5522 14.2009 13.2244 12.3338C13.2954 12.2542 13.3815 12.1893 13.4776 12.143C13.5737 12.0966 13.678 12.0697 13.7845 12.0637C13.8911 12.0576 13.9977 12.0726 14.0985 12.1078C14.1992 12.143 14.2904 12.1977 14.37 12.2688ZM11.1119 21.0324C11.3191 21.0907 11.4946 21.2289 11.6001 21.4166C11.7055 21.6043 11.7321 21.8261 11.6741 22.0334L10.4082 26.5298C10.383 26.6363 10.3364 26.7366 10.2714 26.8247C10.2064 26.9128 10.1243 26.9868 10.0299 27.0424C9.93557 27.0979 9.83097 27.1338 9.7224 27.1479C9.61383 27.1621 9.50353 27.1541 9.39812 27.1245C9.29271 27.0949 9.19437 27.0443 9.109 26.9758C9.02362 26.9072 8.95299 26.8222 8.90132 26.7256C8.84966 26.6291 8.81804 26.5231 8.80836 26.4141C8.79868 26.305 8.81114 26.1951 8.84499 26.091L10.1092 21.5946C10.1381 21.4919 10.187 21.3958 10.253 21.3119C10.319 21.228 10.4009 21.158 10.494 21.1057C10.5871 21.0535 10.6896 21.0202 10.7956 21.0076C10.9017 20.995 11.0091 21.0034 11.1119 21.0324ZM30.8556 21.814C30.9623 21.8161 31.0676 21.8392 31.1653 21.882C31.2631 21.9248 31.3515 21.9865 31.4254 22.0634C31.4994 22.1404 31.5574 22.2312 31.5963 22.3306C31.6351 22.43 31.654 22.5361 31.6519 22.6428C31.6031 25.0786 31.3902 27.5584 30.4705 30.0089L30.3567 30.3128C30.2772 30.509 30.1241 30.6664 29.9302 30.7515C29.7363 30.8365 29.5168 30.8425 29.3185 30.7682C29.1202 30.6938 28.9588 30.545 28.8686 30.3534C28.7785 30.1618 28.7667 29.9426 28.8357 29.7424L28.9495 29.4385C29.7717 27.2448 29.9797 24.986 30.0269 22.6103C30.029 22.5036 30.0521 22.3983 30.0949 22.3005C30.1377 22.2028 30.1993 22.1144 30.2763 22.0405C30.3532 21.9665 30.444 21.9085 30.5434 21.8696C30.6428 21.8308 30.7489 21.8119 30.8556 21.814Z" fill="#030712"/>
</svg>
