<svg width="25" height="25" viewBox="0 0 25 25" fill="none" xmlns="http://www.w3.org/2000/svg">
<path d="M8.05176 1.20032C7.67578 0.292117 6.68457 -0.191282 5.7373 0.0675072L1.44043 1.23938C0.59082 1.47376 0 2.24524 0 3.12415C0 15.2042 9.79492 24.9991 21.875 24.9991C22.7539 24.9991 23.5254 24.4083 23.7598 23.5587L24.9316 19.2618C25.1904 18.3146 24.707 17.3234 23.7988 16.9474L19.1113 14.9943C18.3154 14.6622 17.3926 14.8917 16.8506 15.5607L14.8779 17.9679C11.4404 16.3419 8.65723 13.5587 7.03125 10.1212L9.43848 8.15344C10.1074 7.60657 10.3369 6.6886 10.0049 5.8927L8.05176 1.2052V1.20032Z" fill="#2ED198"/>
</svg>
