<svg width="58" height="61" viewBox="0 0 58 61" fill="none" xmlns="http://www.w3.org/2000/svg">
<path d="M29 0C29.5558 0 30.1117 0.119796 30.6192 0.347408L53.372 9.91909C56.0304 11.0332 58.012 13.6328 57.9999 16.7714C57.9395 28.6551 53.0095 50.3981 32.19 60.2812C30.1721 61.2396 27.8279 61.2396 25.81 60.2812C4.99046 50.3981 0.0604715 28.6551 5.49609e-05 16.7714C-0.0120283 13.6328 1.96963 11.0332 4.62796 9.91909L27.3929 0.347408C27.8883 0.119796 28.4442 0 29 0ZM29 8.00236V53.2851C45.675 45.2828 50.1579 27.565 50.2666 16.9391L29 8.00236Z" fill="#2ED198"/>
</svg>
