<svg width="37" height="37" viewBox="0 0 37 37" fill="none" xmlns="http://www.w3.org/2000/svg">
<g clip-path="url(#clip0_176_33)">
<path d="M36.9908 22.2535C36.9908 25.4767 36.9908 28.6998 36.9908 31.9229C36.9908 32.3632 37.0315 32.8183 36.9093 33.2345C36.6648 34.0611 36.3611 34.8655 35.7463 35.5176C34.8055 36.517 33.6628 37 32.2961 36.9982C26.9903 36.9926 21.6845 36.9982 16.3786 36.9982C16.0268 36.9982 15.9508 36.9164 16.0768 36.5839C16.1934 36.2699 16.199 35.9467 16.2008 35.629C16.2138 34.141 16.2083 32.653 16.2046 31.165C16.2046 30.8659 16.1564 30.5668 16.1768 30.2658C16.1842 30.1562 16.2138 30.0949 16.312 30.0541C17.0213 29.7512 17.5935 29.272 18.0509 28.6571C18.2917 28.3338 18.4473 27.9678 18.575 27.5852C18.6787 27.2768 18.7491 26.9703 18.7732 26.6452C18.7936 26.3684 19.0121 26.1863 19.2214 26.0563C19.9103 25.629 20.3011 24.9788 20.5418 24.2487C20.74 23.6412 20.9066 23.0022 20.7733 22.3483C20.6881 21.9303 20.6103 21.5012 20.4177 21.1203C20.2566 20.8027 20.3844 20.5593 20.4844 20.2881C20.7085 19.6713 20.8937 19.0341 20.7714 18.3802C20.6696 17.834 20.5455 17.2749 20.2529 16.7882C19.9473 16.281 19.6084 15.7924 19.0695 15.4915C18.8213 15.354 18.7843 15.1106 18.7528 14.8598C18.6084 13.6765 18.0658 12.7309 17.0935 12.0287C16.486 11.5903 15.8156 11.3469 15.0786 11.2522C14.7508 11.2113 14.4934 11.0181 14.323 10.7339C14.0563 10.2936 13.6266 10.0428 13.2155 9.7883C12.3025 9.22356 11.3043 9.16782 10.2765 9.39261C10.0191 9.44834 9.78756 9.57466 9.54496 9.67312C9.37643 9.74186 9.28754 9.69541 9.23939 9.52079C9.2042 9.39261 9.19124 9.26443 9.19124 9.13253C9.19124 7.65936 9.13938 6.18434 9.21161 4.71489C9.2505 3.92165 9.42458 3.1247 9.85053 2.40762C10.2117 1.79643 10.6839 1.30042 11.2321 0.878725C11.8303 0.41987 12.5451 0.226669 13.2785 0.0947712C13.7137 0.0167474 14.1489 2.79911e-05 14.5878 2.79911e-05C17.925 0.0018857 21.2622 2.79911e-05 24.5994 2.79911e-05C24.8365 2.79911e-05 25.0754 -0.0148337 25.3106 0.0408976C25.4439 0.0724787 25.4995 0.120779 25.4995 0.271254C25.4939 3.34762 25.4902 6.42399 25.4995 9.50035C25.5013 10.3345 25.9273 10.9271 26.6458 11.3172C26.9606 11.4881 27.294 11.5736 27.6607 11.5736C30.6145 11.5661 33.5665 11.5698 36.5204 11.568C36.9871 11.568 36.9871 11.5661 36.9871 12.025C36.9871 15.4339 36.9871 18.8409 36.9871 22.2498H36.9926L36.9908 22.2535Z" fill="#030712"/>
<path d="M4.58543 32.1663C4.58543 31.0089 4.58543 29.8534 4.58543 28.6961C4.58543 28.2836 4.47431 28.1517 4.05763 28.109C3.63723 28.0663 3.21499 28.0384 2.8446 27.7932C2.51866 27.5777 2.25568 27.3251 2.13531 26.9257C1.97234 26.3832 1.96493 25.8147 1.81862 25.2704C1.76307 25.0661 1.67973 24.9082 1.49083 24.7967C0.994509 24.5088 0.531523 24.1707 0.24262 23.6617C0.066685 23.3496 -0.0629511 23.017 0.0370539 22.6288C0.140763 22.2257 0.277807 21.8411 0.459297 21.4677C0.666715 21.0423 0.664863 20.6002 0.457445 20.1673C0.327809 19.8979 0.253731 19.6081 0.144467 19.3295C-0.142585 18.6013 0.144467 17.7671 0.798203 17.3269C0.931543 17.2358 1.05933 17.1318 1.20378 17.0631C1.74269 16.8086 1.89455 16.3256 1.93715 15.798C1.96863 15.4041 2.02975 15.014 2.15753 14.6499C2.30013 14.2412 2.61496 13.9496 3.02794 13.7824C3.44093 13.6152 3.87984 13.565 4.31319 13.5316C4.96508 13.4796 5.3151 13.0653 5.63363 12.5767C6.16514 11.7575 6.81147 11.4231 7.76707 11.7092C8.09116 11.8058 8.4134 11.9117 8.72453 12.0435C9.12455 12.2145 9.51345 12.1736 9.91162 12.0231C10.3061 11.8726 10.6913 11.685 11.1117 11.6256C11.8432 11.5234 12.384 11.8615 12.8192 12.4207C13.0229 12.6826 13.2433 12.9297 13.4562 13.1823C13.5859 13.3347 13.7451 13.4424 13.947 13.4591C14.347 13.4926 14.7341 13.5929 15.1286 13.656C15.8619 13.7731 16.4101 14.3434 16.4953 15.0828C16.5379 15.4487 16.6471 15.8036 16.6564 16.1751C16.662 16.4147 16.7953 16.6024 16.9972 16.751C17.3009 16.9758 17.5916 17.2154 17.8805 17.4569C18.4954 17.9678 18.6695 18.6366 18.3972 19.3852C18.2454 19.8051 18.125 20.2379 17.9342 20.6429C17.8731 20.7729 17.8935 20.8974 17.9454 21.0219C18.0972 21.3841 18.2546 21.7445 18.3991 22.1086C18.688 22.8387 18.5713 23.5038 18.0324 24.0704C17.7472 24.3713 17.4398 24.6574 17.1046 24.9008C16.8175 25.1107 16.7268 25.3745 16.6749 25.6996C16.6083 26.1231 16.5138 26.5448 16.3934 26.9572C16.1897 27.6576 15.6712 27.9753 14.9804 28.0644C14.7063 28.0997 14.4322 28.1164 14.1618 28.1926C14.0044 28.2372 13.9433 28.3134 13.947 28.4657C13.9507 28.6422 13.947 28.8205 13.947 28.997C13.947 31.0553 13.9489 33.1137 13.947 35.1739C13.947 35.4655 13.934 35.7591 13.9063 36.0507C13.8507 36.6415 13.1673 37.0873 12.5025 36.9796C12.3099 36.948 12.1321 36.8774 11.971 36.7678C11.1561 36.2198 10.3376 35.6773 9.53012 35.1182C9.34493 34.99 9.20974 35.003 9.0338 35.1219C8.24302 35.655 7.44668 36.1808 6.6485 36.7046C6.41145 36.8607 6.17069 37.0019 5.86327 36.9982C5.15027 36.9907 4.58913 36.4483 4.58543 35.7275C4.58173 34.5404 4.58543 33.3533 4.58543 32.1644V32.1663ZM4.67432 20.8565C4.67988 23.4109 6.84295 25.4302 9.26344 25.4376C11.8784 25.4469 13.7711 23.4183 13.8396 20.9606C13.9155 18.2297 11.7988 16.3702 9.47086 16.2253C7.02814 16.0729 4.67988 18.1889 4.67432 20.8584V20.8565Z" fill="#030712"/>
<path d="M32.1646 9.27552C30.8108 9.27552 29.4589 9.27552 28.1051 9.27552C27.7385 9.27552 27.6551 9.1975 27.6551 8.82596C27.6533 6.09698 27.6551 3.36801 27.6551 0.64089C27.6551 0.490415 27.7273 0.358518 27.7385 0.211759C27.7477 0.0965809 27.8255 0.131877 27.8903 0.170889C28.0514 0.26749 28.1737 0.406818 28.3033 0.536858C29.9515 2.18465 31.5998 3.83243 33.2461 5.48208C34.3703 6.60971 35.4907 7.74105 36.6074 8.87611C36.7019 8.97272 36.9093 9.0526 36.8722 9.16034C36.8241 9.29967 36.613 9.22536 36.4759 9.24766C36.3093 9.27366 36.1389 9.27552 35.9703 9.27738C34.7018 9.27924 33.4332 9.27738 32.1646 9.27738V9.27552Z" fill="#030712"/>
</g>
<defs>
<clipPath id="clip0_176_33">
<rect width="37" height="37" fill="white"/>
</clipPath>
</defs>
</svg>
