<svg width="14" height="25" viewBox="0 0 14 25" fill="none" xmlns="http://www.w3.org/2000/svg">
<path d="M0.590616 24.3843C0.776235 24.5794 0.997072 24.7343 1.24039 24.8399C1.4837 24.9456 1.74468 25 2.00827 25C2.27186 25 2.53283 24.9456 2.77615 24.8399C3.01947 24.7343 3.2403 24.5794 3.42592 24.3843L13.4094 13.9777C13.5965 13.7843 13.7451 13.5541 13.8464 13.3004C13.9478 13.0468 14 12.7748 14 12.5C14 12.2252 13.9478 11.9532 13.8464 11.6996C13.7451 11.4459 13.5965 11.2157 13.4094 11.0223L3.42592 0.615654C3.2403 0.420575 3.01947 0.265733 2.77615 0.160067C2.53284 0.0544014 2.27186 1.47809e-06 2.00827 1.45504e-06C1.74468 1.432e-06 1.4837 0.0544013 1.24039 0.160067C0.997074 0.265733 0.776237 0.420575 0.590618 0.615654C0.403472 0.80914 0.25493 1.03933 0.15356 1.29296C0.0521908 1.54659 -1.19188e-07 1.81863 -1.43208e-07 2.09339C-1.67228e-07 2.36815 0.0521907 2.64019 0.15356 2.89382C0.254929 3.14745 0.403471 3.37764 0.590618 3.57113L9.1764 12.5L0.590617 21.4289C0.40347 21.6224 0.254928 21.8526 0.153558 22.1062C0.0521889 22.3598 -1.93874e-06 22.6318 -1.96276e-06 22.9066C-1.98678e-06 23.1814 0.0521888 23.4534 0.153558 23.707C0.254928 23.9607 0.40347 24.1909 0.590616 24.3843Z" fill="#2ED198"/>
</svg>
