<svg width="27" height="20" viewBox="0 0 27 20" fill="none" xmlns="http://www.w3.org/2000/svg">
<path d="M18.0098 11.5282C19.7844 11.5282 22.352 11.1698 22.352 9.10128C22.3636 8.75326 22.3973 9.00731 21.2509 4.13188C21.0073 3.14306 20.7932 2.69434 19.0197 1.82635C17.6439 1.13753 14.647 0 13.7605 0C12.9347 0 12.6953 1.04149 11.7107 1.04149C10.7615 1.04149 10.0596 0.263858 9.17314 0.263858C8.32201 0.263858 7.76725 0.831849 7.33904 1.99984C5.88885 6.00418 5.95318 5.83482 5.96162 6.04136C5.96162 7.32192 11.1106 11.5204 18.0098 11.5204M22.623 9.94191C22.8683 11.0779 22.8683 11.1992 22.8683 11.349C22.8683 13.2936 20.636 14.3728 17.7003 14.3728C11.0695 14.3769 5.25973 10.5698 5.25973 8.05618C5.25917 7.70599 5.33205 7.35942 5.47383 7.03793C3.08812 7.15462 0 7.57132 0 10.2409C0 14.6129 10.5801 20 18.9575 20C25.38 20 27 17.1559 27 14.9098C27 13.1433 25.4396 11.1378 22.6267 9.94036" fill="#030712"/>
</svg>
