<svg width="40" height="35" viewBox="0 0 40 35" fill="none" xmlns="http://www.w3.org/2000/svg">
<path d="M5 0C2.24219 0 0 2.24219 0 5V10C0 12.7578 2.24219 15 5 15H35C37.7578 15 40 12.7578 40 10V5C40 2.24219 37.7578 0 35 0H5ZM26.875 5.625C27.3723 5.625 27.8492 5.82254 28.2008 6.17417C28.5525 6.52581 28.75 7.00272 28.75 7.5C28.75 7.99728 28.5525 8.47419 28.2008 8.82583C27.8492 9.17746 27.3723 9.375 26.875 9.375C26.3777 9.375 25.9008 9.17746 25.5492 8.82583C25.1975 8.47419 25 7.99728 25 7.5C25 7.00272 25.1975 6.52581 25.5492 6.17417C25.9008 5.82254 26.3777 5.625 26.875 5.625ZM30.625 7.5C30.625 7.00272 30.8225 6.52581 31.1742 6.17417C31.5258 5.82254 32.0027 5.625 32.5 5.625C32.9973 5.625 33.4742 5.82254 33.8258 6.17417C34.1775 6.52581 34.375 7.00272 34.375 7.5C34.375 7.99728 34.1775 8.47419 33.8258 8.82583C33.4742 9.17746 32.9973 9.375 32.5 9.375C32.0027 9.375 31.5258 9.17746 31.1742 8.82583C30.8225 8.47419 30.625 7.99728 30.625 7.5ZM5 20C2.24219 20 0 22.2422 0 25V30C0 32.7578 2.24219 35 5 35H35C37.7578 35 40 32.7578 40 30V25C40 22.2422 37.7578 20 35 20H5ZM26.875 25.625C27.3723 25.625 27.8492 25.8225 28.2008 26.1742C28.5525 26.5258 28.75 27.0027 28.75 27.5C28.75 27.9973 28.5525 28.4742 28.2008 28.8258C27.8492 29.1775 27.3723 29.375 26.875 29.375C26.3777 29.375 25.9008 29.1775 25.5492 28.8258C25.1975 28.4742 25 27.9973 25 27.5C25 27.0027 25.1975 26.5258 25.5492 26.1742C25.9008 25.8225 26.3777 25.625 26.875 25.625ZM31.25 27.5C31.25 27.0027 31.4475 26.5258 31.7992 26.1742C32.1508 25.8225 32.6277 25.625 33.125 25.625C33.6223 25.625 34.0992 25.8225 34.4508 26.1742C34.8025 26.5258 35 27.0027 35 27.5C35 27.9973 34.8025 28.4742 34.4508 28.8258C34.0992 29.1775 33.6223 29.375 33.125 29.375C32.6277 29.375 32.1508 29.1775 31.7992 28.8258C31.4475 28.4742 31.25 27.9973 31.25 27.5Z" fill="#030712"/>
</svg>
