<svg width="86" height="61" viewBox="0 0 86 61" fill="none" xmlns="http://www.w3.org/2000/svg">
<path fill-rule="evenodd" clip-rule="evenodd" d="M55.6529 23.2222C55.9031 23.4718 56.1017 23.7684 56.2372 24.0949C56.3727 24.4214 56.4424 24.7714 56.4424 25.1249C56.4424 25.4784 56.3727 25.8284 56.2372 26.155C56.1017 26.4815 55.9031 26.778 55.6529 27.0277L39.5279 43.1527C39.2782 43.403 38.9816 43.6015 38.6551 43.737C38.3286 43.8725 37.9786 43.9422 37.6251 43.9422C37.2716 43.9422 36.9216 43.8725 36.5951 43.737C36.2686 43.6015 35.972 43.403 35.7223 43.1527L27.6598 35.0902C27.41 34.8403 27.2118 34.5437 27.0765 34.2172C26.9413 33.8907 26.8717 33.5408 26.8717 33.1874C26.8717 32.834 26.9413 32.4841 27.0765 32.1577C27.2118 31.8312 27.41 31.5345 27.6598 31.2847C27.9097 31.0348 28.2064 30.8366 28.5328 30.7014C28.8593 30.5661 29.2092 30.4965 29.5626 30.4965C29.916 30.4965 30.2659 30.5661 30.5924 30.7014C30.9188 30.8366 31.2155 31.0348 31.4654 31.2847L37.6251 37.4498L51.8473 23.2222C52.097 22.9719 52.3936 22.7733 52.7201 22.6378C53.0466 22.5024 53.3966 22.4326 53.7501 22.4326C54.1036 22.4326 54.4536 22.5024 54.7801 22.6378C55.1066 22.7733 55.4032 22.9719 55.6529 23.2222Z" fill="#2ED198"/>
<path d="M23.6823 8.15075C29.0545 3.51823 35.9063 0.959745 43 0.9375C57.4588 0.9375 69.4611 11.6875 70.7673 25.5496C79.3242 26.759 86 33.9239 86 42.7174C86 52.3709 77.9482 60.0625 68.1926 60.0625H20.3229C9.1805 60.0625 0 51.2798 0 40.2718C0 30.7956 6.80475 22.9481 15.8132 20.9594C16.5819 16.3208 19.565 11.6983 23.6823 8.15075ZM27.1921 12.2196C23.1232 15.7295 20.9947 19.9596 20.9947 23.2706V25.6786L18.6029 25.942C11.094 26.7644 5.375 32.9295 5.375 40.2718C5.375 48.1569 11.9862 54.6875 20.3229 54.6875H68.1926C75.1425 54.6875 80.625 49.248 80.625 42.7174C80.625 36.1814 75.1425 30.7419 68.1926 30.7419H65.5051V28.0544C65.5105 16.1219 55.513 6.3125 43 6.3125C37.1943 6.33569 31.588 8.42721 27.1921 12.2196Z" fill="#2ED198"/>
</svg>
