<svg width="48" height="63" viewBox="0 0 48 63" fill="none" xmlns="http://www.w3.org/2000/svg">
<path d="M24 4.2C18.6957 4.2 13.6086 6.41249 9.85786 10.3508C6.10714 14.289 4 19.6305 4 25.2V29.4H8C9.06087 29.4 10.0783 29.8425 10.8284 30.6302C11.5786 31.4178 12 32.4861 12 33.6V46.2C12 47.3139 11.5786 48.3822 10.8284 49.1698C10.0783 49.9575 9.06087 50.4 8 50.4H4C2.93913 50.4 1.92172 49.9575 1.17157 49.1698C0.421427 48.3822 0 47.3139 0 46.2V25.2C-4.69644e-08 21.8907 0.620778 18.6138 1.82689 15.5564C3.033 12.499 4.80083 9.72095 7.02944 7.38091C9.25804 5.04087 11.9038 3.18465 14.8156 1.91824C17.7274 0.651817 20.8483 0 24 0C27.1517 0 30.2726 0.651817 33.1844 1.91824C36.0962 3.18465 38.742 5.04087 40.9706 7.38091C43.1992 9.72095 44.967 12.499 46.1731 15.5564C47.3792 18.6138 48 21.8907 48 25.2V50.4C48 53.1848 46.9464 55.8555 45.0711 57.8246C43.1957 59.7938 40.6522 60.9 38 60.9H29.464C29.1129 61.5385 28.608 62.0687 27.9999 62.4373C27.3919 62.8059 26.7021 63 26 63H22C20.9391 63 19.9217 62.5575 19.1716 61.7698C18.4214 60.9822 18 59.9139 18 58.8C18 57.6861 18.4214 56.6178 19.1716 55.8302C19.9217 55.0425 20.9391 54.6 22 54.6H26C26.7021 54.6 27.3919 54.7941 27.9999 55.1627C28.608 55.5313 29.1129 56.0615 29.464 56.7H38C39.5913 56.7 41.1174 56.0363 42.2426 54.8548C43.3679 53.6733 44 52.0709 44 50.4H40C38.9391 50.4 37.9217 49.9575 37.1716 49.1698C36.4214 48.3822 36 47.3139 36 46.2V33.6C36 32.4861 36.4214 31.4178 37.1716 30.6302C37.9217 29.8425 38.9391 29.4 40 29.4H44V25.2C44 22.4422 43.4827 19.7115 42.4776 17.1636C41.4725 14.6158 39.9993 12.3008 38.1421 10.3508C36.285 8.40073 34.0802 6.85388 31.6537 5.79853C29.2272 4.74318 26.6264 4.2 24 4.2Z" fill="#2ED198"/>
</svg>
