<svg width="82" height="61" viewBox="0 0 82 61" fill="none" xmlns="http://www.w3.org/2000/svg">
<path d="M23.5763 15.259C24.25 15.259 24.8961 14.9914 25.3725 14.515C25.8488 14.0387 26.1165 13.3926 26.1165 12.7189C26.1165 12.0452 25.8488 11.3991 25.3725 10.9227C24.8961 10.4463 24.25 10.1787 23.5763 10.1787C22.9026 10.1787 22.2565 10.4463 21.7801 10.9227C21.3038 11.3991 21.0361 12.0452 21.0361 12.7189C21.0361 13.3926 21.3038 14.0387 21.7801 14.515C22.2565 14.9914 22.9026 15.259 23.5763 15.259ZM15.9558 12.7189C15.9558 13.3926 15.6882 14.0387 15.2118 14.515C14.7354 14.9914 14.0893 15.259 13.4156 15.259C12.742 15.259 12.0959 14.9914 11.6195 14.515C11.1431 14.0387 10.8755 13.3926 10.8755 12.7189C10.8755 12.0452 11.1431 11.3991 11.6195 10.9227C12.0959 10.4463 12.742 10.1787 13.4156 10.1787C14.0893 10.1787 14.7354 10.4463 15.2118 10.9227C15.6882 11.3991 15.9558 12.0452 15.9558 12.7189Z" fill="#2ED198"/>
<path d="M0.714844 10.1787C0.714844 7.48394 1.78534 4.89954 3.69083 2.99405C5.59632 1.08856 8.18072 0.0180664 10.8755 0.0180664H71.8394C74.5341 0.0180664 77.1185 1.08856 79.024 2.99405C80.9295 4.89954 82 7.48394 82 10.1787V15.259C82 17.9538 80.9295 20.5382 79.024 22.4437C77.1185 24.3492 74.5341 25.4197 71.8394 25.4197H43.8976V40.6607C45.9187 40.6607 47.857 41.4635 49.2861 42.8926C50.7152 44.3218 51.5181 46.2601 51.5181 48.2811H79.4599C80.1335 48.2811 80.7796 48.5488 81.256 49.0251C81.7324 49.5015 82 50.1476 82 50.8213C82 51.495 81.7324 52.1411 81.256 52.6175C80.7796 53.0938 80.1335 53.3615 79.4599 53.3615H51.5181C51.5181 55.3825 50.7152 57.3208 49.2861 58.75C47.857 60.1791 45.9187 60.9819 43.8976 60.9819H38.8173C36.7962 60.9819 34.8579 60.1791 33.4288 58.75C31.9997 57.3208 31.1968 55.3825 31.1968 53.3615H3.25501C2.58131 53.3615 1.93521 53.0938 1.45884 52.6175C0.982467 52.1411 0.714844 51.495 0.714844 50.8213C0.714844 50.1476 0.982467 49.5015 1.45884 49.0251C1.93521 48.5488 2.58131 48.2811 3.25501 48.2811H31.1968C31.1968 46.2601 31.9997 44.3218 33.4288 42.8926C34.8579 41.4635 36.7962 40.6607 38.8173 40.6607V25.4197H10.8755C8.18072 25.4197 5.59632 24.3492 3.69083 22.4437C1.78534 20.5382 0.714844 17.9538 0.714844 15.259V10.1787ZM5.79517 10.1787V15.259C5.79517 16.6064 6.33041 17.8986 7.28316 18.8514C8.2359 19.8041 9.5281 20.3394 10.8755 20.3394H71.8394C73.1868 20.3394 74.479 19.8041 75.4317 18.8514C76.3844 17.8986 76.9197 16.6064 76.9197 15.259V10.1787C76.9197 8.83133 76.3844 7.53913 75.4317 6.58638C74.479 5.63364 73.1868 5.09839 71.8394 5.09839H10.8755C9.5281 5.09839 8.2359 5.63364 7.28316 6.58638C6.33041 7.53913 5.79517 8.83133 5.79517 10.1787ZM36.2771 48.2811V53.3615C36.2771 54.0352 36.5447 54.6813 37.0211 55.1576C37.4975 55.634 38.1436 55.9016 38.8173 55.9016H43.8976C44.5713 55.9016 45.2174 55.634 45.6938 55.1576C46.1701 54.6813 46.4378 54.0352 46.4378 53.3615V48.2811C46.4378 47.6074 46.1701 46.9613 45.6938 46.485C45.2174 46.0086 44.5713 45.741 43.8976 45.741H38.8173C38.1436 45.741 37.4975 46.0086 37.0211 46.485C36.5447 46.9613 36.2771 47.6074 36.2771 48.2811Z" fill="#2ED198"/>
</svg>
