<svg width="50" height="63" viewBox="0 0 50 63" fill="none" xmlns="http://www.w3.org/2000/svg">
<path d="M9.65833 7.0854C13.475 5.3382 18.9 4.2 25 4.2C31.1 4.2 36.525 5.334 40.3417 7.0854C44.35 8.925 45.8333 11.0334 45.8333 12.6C45.8333 14.1708 44.35 16.275 40.3417 18.1146C36.525 19.8618 31.1 21 25 21C18.9 21 13.475 19.866 9.65833 18.1146C5.65 16.275 4.16667 14.1666 4.16667 12.6C4.16667 11.0292 5.65 8.925 9.65833 7.0854ZM45.8333 19.7316V25.2C45.8333 26.7708 44.35 28.875 40.3417 30.7146C36.525 32.4618 31.1 33.6 25 33.6C18.9 33.6 13.475 32.466 9.65833 30.7146C5.65 28.875 4.16667 26.7666 4.16667 25.2V19.7316C5.29583 20.58 6.58333 21.3192 7.93333 21.9366C12.4083 23.9862 18.4458 25.2 25 25.2C31.5542 25.2 37.5917 23.9862 42.0667 21.9366C43.3963 21.3385 44.659 20.5993 45.8333 19.7316ZM50 12.6C50 8.3706 46.3542 5.229 42.0667 3.2634C37.5917 1.2138 31.5542 0 25 0C18.4458 0 12.4083 1.2138 7.93333 3.2634C3.64583 5.229 0 8.3706 0 12.6V50.4C0 54.6294 3.64583 57.771 7.93333 59.7366C12.4083 61.782 18.4458 63 25 63C31.5542 63 37.5917 61.7862 42.0667 59.7366C46.3542 57.771 50 54.6294 50 50.4V12.6ZM45.8333 32.3316V37.8C45.8333 39.3708 44.35 41.475 40.3417 43.3146C36.525 45.0618 31.1 46.2 25 46.2C18.9 46.2 13.475 45.066 9.65833 43.3146C5.65 41.475 4.16667 39.3666 4.16667 37.8V32.3316C5.29583 33.18 6.58333 33.9192 7.93333 34.5366C12.4083 36.582 18.4458 37.8 25 37.8C31.5542 37.8 37.5917 36.5862 42.0667 34.5366C43.3963 33.9385 44.659 33.1993 45.8333 32.3316ZM45.8333 44.9316V50.4C45.8333 51.9708 44.35 54.075 40.3417 55.9146C36.525 57.6618 31.1 58.8 25 58.8C18.9 58.8 13.475 57.666 9.65833 55.9146C5.65 54.075 4.16667 51.9666 4.16667 50.4V44.9316C5.29583 45.78 6.58333 46.5192 7.93333 47.1366C12.4083 49.182 18.4458 50.4 25 50.4C31.5542 50.4 37.5917 49.1862 42.0667 47.1366C43.4167 46.5192 44.7042 45.78 45.8333 44.9316Z" fill="#2ED198"/>
</svg>
