<svg width="63" height="63" viewBox="0 0 63 63" fill="none" xmlns="http://www.w3.org/2000/svg">
<g clip-path="url(#clip0_93_2361)">
<path d="M46.2857 35.6645C46.22 38.3174 46.8649 41.2392 43.1685 42.0458V46.1685C43.8075 46.1685 44.4226 46.1685 45.0436 46.1685C47.3904 46.1685 49.7313 46.1566 52.0781 46.1685C53.4874 46.1745 54.6339 46.2701 55.6312 44.627C57.2614 41.9502 61.5072 42.7449 62.6358 45.577C63.4719 47.6921 62.9165 49.7953 60.492 51.0082C58.3244 52.0957 55.9775 51.0082 55.1236 49.1321C54.8191 48.4629 54.4667 48.2359 53.7322 48.2418C49.9224 48.2837 46.1065 48.2418 42.2907 48.2717C41.3353 48.2777 40.9949 47.9072 41.0188 46.9751C41.0606 45.338 41.0307 43.7009 41.0307 42.0099H38.9825V50.357C41.0845 50.357 43.1745 50.3868 45.2646 50.351C48.4175 50.2972 48.4474 50.4048 48.3817 53.5297C48.3757 53.9121 48.3817 54.2945 48.3817 54.641C49.8865 55.4297 51.1286 56.2722 51.3615 58.1662C51.6601 60.5981 50.1493 62.5578 47.7308 62.9283C45.4258 63.2808 43.8792 61.8349 43.1805 59.8811C42.5356 58.0766 43.6104 55.8181 45.4915 54.9876C46.7694 54.4259 46.0827 53.4102 46.3335 52.4542C44.7391 52.4542 43.2103 52.4542 41.6876 52.4542C40.4992 52.4542 39.3049 52.4183 38.1226 52.4661C37.185 52.508 36.8148 52.1495 36.8267 51.1935C36.8626 48.1522 36.8387 45.111 36.8387 42.0159H32.7004V52.5677C34.1395 53.3146 35.3816 54.157 35.6205 56.0511C35.931 58.5128 34.3963 60.4487 32.0017 60.8251C29.7206 61.1836 28.168 59.7735 27.4454 57.7898C26.7945 56.0033 27.8933 53.7508 29.7445 52.8784C30.3536 52.5916 30.5745 52.2391 30.5626 51.546C30.5208 48.3972 30.5447 45.2484 30.5447 42.0279H26.3466C26.3466 42.4103 26.3466 42.8464 26.3466 43.2886C26.3466 45.81 26.3526 48.3255 26.3466 50.8469C26.3466 52.0479 25.9227 52.4542 24.7403 52.4542C22.1606 52.4542 19.5809 52.4542 16.9534 52.4542V54.6052C17.455 54.9338 18.0044 55.2505 18.506 55.6388C20.2019 56.9533 20.2437 58.9788 19.5868 60.5144C18.8762 62.1754 16.8519 63.2509 14.9828 62.9283C13.3346 62.6415 11.7283 61.0223 11.6446 59.1342C11.5491 57.1147 12.415 55.7404 14.1766 54.8143C14.4752 54.6589 14.7319 54.1809 14.7797 53.8165C14.8753 53.0935 14.8514 52.3466 14.7976 51.6177C14.714 50.5362 15.353 50.345 16.2069 50.345C18.7269 50.345 21.2469 50.345 23.761 50.345C23.8923 50.345 24.0237 50.345 24.2028 50.345V41.992H22.1486C22.1486 43.5156 22.1486 45.0154 22.1486 46.5091C22.1486 47.8594 21.7664 48.2478 20.4587 48.2478C16.6787 48.2478 12.9046 48.2598 9.12465 48.2359C8.56332 48.2359 8.30057 48.3972 8.06171 48.917C7.24958 50.6438 5.41631 51.6774 3.48749 51.3727C1.79157 51.1038 0.597257 49.9507 0.185219 48.3554C-0.394023 46.1147 0.80029 43.5575 3.30238 43.199C5.65517 42.8644 6.95697 43.5216 8.14531 45.6427C8.28266 45.8937 8.70664 46.1207 9.00522 46.1267C12.6419 46.1566 16.2786 46.1506 19.981 46.1506V42.0159C18.6135 41.9442 17.5386 41.287 17.0967 39.9247C16.8817 39.2615 16.9355 38.5026 16.9056 37.7857C16.8757 37.1224 16.9056 36.4592 16.9056 35.6466C15.3291 35.6466 13.7705 35.6287 12.2119 35.6466C9.54863 35.6825 7.23166 34.7205 5.1237 33.1969C2.3529 31.2012 0.692802 28.3811 0.185219 25.1068C-0.352222 21.6353 0.364366 18.2774 2.61565 15.4034C4.78332 12.643 7.54218 10.9581 11.0893 10.6533C11.2207 10.6414 11.358 10.5159 11.4715 10.5458C13.9258 11.1074 14.6663 9.11181 15.7949 7.67184C18.6672 4.00321 22.3099 1.51166 26.9199 0.591511C28.377 0.310688 29.8818 -0.0239098 31.3628 -9.98471e-06C36.779 0.0955894 41.5622 1.84028 45.4676 5.7479C47.8264 8.10801 49.6656 10.7609 50.4956 14.0471C50.5673 14.3279 50.7763 14.5789 50.8898 14.782C53.8338 14.5132 56.503 15.0509 58.826 16.8315C60.7787 18.3312 62.1999 20.2252 62.6538 22.7048C63.233 25.8596 62.9165 28.8352 60.8683 31.4821C59.0648 33.8063 56.6702 35.0969 53.8397 35.6347C53.1291 35.7721 52.3767 35.6586 51.6422 35.6586C49.8985 35.6586 48.1488 35.6586 46.2857 35.6586V35.6645ZM17.1564 33.5614C17.234 33.0834 17.455 32.5994 17.3475 32.211C16.619 29.6 16.601 27.0128 17.3654 24.4137C17.4311 24.1866 17.3654 23.9118 17.3176 23.6668C17.1922 23.0454 16.9414 22.43 16.9116 21.8086C16.8519 20.4463 16.8877 19.078 16.8996 17.7158C16.9116 16.0069 18.1477 14.6805 19.8376 14.6805C27.529 14.6566 35.2264 14.6506 42.9177 14.6805C44.6495 14.6805 45.7602 15.5648 46.0528 17.2975C46.2797 18.6478 46.3036 20.0579 46.2499 21.4322C46.214 22.3463 45.8856 23.2486 45.6408 24.3898C46.6619 25.9134 46.6619 30.777 45.4557 32.5098C45.7841 33.4359 46.4529 33.639 47.3845 33.5972C49.1282 33.5255 50.8838 33.6032 52.6275 33.5733C57.345 33.4837 60.8921 29.7673 60.922 25.1725C60.9399 22.3463 59.7277 19.9145 57.2913 18.3013C55.4819 17.1063 53.4934 16.5387 51.2899 16.9808C49.4506 17.3513 49.2834 17.1541 48.7878 15.3676C48.0294 12.6131 46.7216 10.1276 44.7629 8.02436C42.2131 5.28186 39.1616 3.45949 35.4592 2.62897C32.4436 1.9538 29.4877 1.94783 26.5556 2.8142C21.5992 4.27806 17.9327 7.33724 15.5262 11.926C15.3709 12.2188 14.9589 12.5175 14.6304 12.5594C13.5078 12.6968 12.3672 12.6968 11.2386 12.7984C6.25233 13.2584 2.97394 16.9749 2.26332 21.3067C1.59451 25.3876 2.96797 28.9726 6.37176 31.5418C7.78105 32.6054 9.39337 33.406 11.1729 33.5434C13.0838 33.6928 15.0126 33.5793 17.1504 33.5793L17.1564 33.5614ZM31.4822 23.0633C35.2264 23.0633 38.9646 23.0633 42.7087 23.0633C43.694 23.0633 44.1479 22.6331 44.1777 21.6353C44.2016 20.6196 44.1837 19.6038 44.1777 18.5941C44.1777 17.1481 43.7956 16.7717 42.3445 16.7717C37.2746 16.7717 32.2047 16.7717 27.1349 16.7717C24.8597 16.7717 22.5905 16.7717 20.3154 16.7717C19.4077 16.7717 18.912 17.0884 18.9777 18.122C19.0494 19.3409 19.0315 20.5718 18.9837 21.7967C18.9479 22.7347 19.3062 23.0992 20.2616 23.0872C24.0058 23.0514 27.744 23.0753 31.4882 23.0753L31.4822 23.0633ZM31.4344 31.4641C35.1786 31.4641 38.9168 31.4641 42.661 31.4641C43.7179 31.4641 44.1539 31.0399 44.1777 29.9764C44.1956 28.9965 44.1777 28.0166 44.1777 27.0367C44.1777 25.5191 43.8194 25.1665 42.2847 25.1665C35.083 25.1665 27.8754 25.1665 20.6737 25.1665C20.5005 25.1665 20.3213 25.1606 20.1482 25.1665C19.4077 25.2143 18.9359 25.4713 18.9718 26.3615C19.0315 27.6163 19.0255 28.883 18.9718 30.1377C18.93 31.1295 19.3121 31.488 20.3094 31.4761C24.0177 31.4402 27.7201 31.4582 31.4284 31.4582L31.4344 31.4641ZM31.3926 39.8649C35.1368 39.8649 38.875 39.8649 42.6192 39.8649C43.7299 39.8649 44.1598 39.4407 44.1718 38.3115C44.1837 37.3316 44.1718 36.3517 44.1718 35.3718C44.1718 33.9378 43.7896 33.5673 42.3206 33.5673C36.5879 33.5673 30.8492 33.5673 25.1165 33.5673C23.54 33.5673 21.9695 33.5614 20.393 33.5673C19.1927 33.5733 18.9897 33.7765 18.9837 34.9296C18.9837 36.1545 19.0195 37.3794 18.9718 38.6042C18.9359 39.5602 19.3301 39.8888 20.2676 39.8769C23.9759 39.841 27.6783 39.8649 31.3866 39.8649H31.3926ZM4.11451 49.3054C5.27896 49.3173 6.4255 48.3315 6.36579 47.244C6.3001 46.0789 5.54768 45.2006 4.16825 45.1289C3.02768 45.0691 2.20361 45.9534 2.19166 47.1365C2.17375 48.433 2.93811 49.2934 4.10854 49.3054H4.11451ZM56.7718 47.256C56.7837 48.4689 57.56 49.2994 58.7065 49.3054C59.8591 49.3114 61.0175 48.3016 60.9399 47.2261C60.8623 46.061 60.0979 45.1468 58.7245 45.1408C57.3689 45.1289 56.6105 46.2103 56.7658 47.2619L56.7718 47.256ZM29.4817 56.7024C29.4877 57.9213 30.27 58.7458 31.4165 58.7518C32.581 58.7518 33.6618 57.7599 33.6737 56.6725C33.6857 55.609 32.569 54.5275 31.4464 54.5693C30.0848 54.6231 29.3324 55.6568 29.4817 56.6964V56.7024ZM13.7407 58.7757C13.7407 59.9946 14.517 60.8371 15.6456 60.849C16.816 60.861 17.8909 59.893 17.9267 58.7996C17.9626 57.742 16.8519 56.6725 15.7232 56.6665C14.5349 56.6606 13.7347 57.509 13.7347 58.7817L13.7407 58.7757ZM45.2287 58.7518C45.2287 60.0424 46.005 60.8669 47.2113 60.855C48.3638 60.843 49.4506 59.7914 49.4148 58.7219C49.3849 57.6823 48.328 56.6904 47.2411 56.6665C46.0588 56.6426 45.2287 57.4971 45.2287 58.7518Z" fill="#2ED198"/>
<path d="M33.6437 18.9406V20.9183H21.1333V18.9406H33.6437Z" fill="#2ED198"/>
<path d="M37.8358 20.9303H35.8293V18.9108H37.8358V20.9303Z" fill="#2ED198"/>
<path d="M40.0154 20.9184V18.9108H42.0338V20.9184H40.0154Z" fill="#2ED198"/>
<path d="M21.1094 29.3072V27.3235H33.6198V29.3072H21.1094Z" fill="#2ED198"/>
<path d="M35.8354 27.2936H37.824V29.3132H35.8354V27.2936Z" fill="#2ED198"/>
<path d="M42.0278 29.3311H40.0273V27.3115H42.0278V29.3311Z" fill="#2ED198"/>
<path d="M33.6618 35.7243V37.708H21.1514V35.7243H33.6618Z" fill="#2ED198"/>
<path d="M35.8591 35.7064H37.8357V37.7259H35.8591V35.7064Z" fill="#2ED198"/>
<path d="M42.0039 37.7259H40.0571V35.7422H42.0039V37.7259Z" fill="#2ED198"/>
</g>
<defs>
<clipPath id="clip0_93_2361">
<rect width="63" height="63" fill="white"/>
</clipPath>
</defs>
</svg>
