<svg width="34" height="34" viewBox="0 0 34 34" fill="none" xmlns="http://www.w3.org/2000/svg">
<circle cx="17" cy="17" r="17" transform="rotate(-180 17 17)" fill="#030712"/>
<path d="M14.4219 25.5814C14.5545 25.714 14.7122 25.8193 14.886 25.8912C15.0598 25.963 15.2462 26 15.4345 26C15.6228 26 15.8092 25.963 15.983 25.8912C16.1568 25.8193 16.3145 25.714 16.4471 25.5814L23.5781 18.5049C23.7118 18.3733 23.8179 18.2168 23.8903 18.0443C23.9627 17.8718 24 17.6868 24 17.5C24 17.3132 23.9627 17.1282 23.8903 16.9557C23.8179 16.7832 23.7118 16.6267 23.5781 16.4951L16.4471 9.41864C16.3145 9.28599 16.1568 9.1807 15.983 9.10884C15.8092 9.03699 15.6228 9 15.4345 9C15.2462 9 15.0598 9.03699 14.886 9.10884C14.7122 9.1807 14.5545 9.28599 14.4219 9.41864C14.2882 9.55021 14.1821 9.70674 14.1097 9.87921C14.0373 10.0517 14 10.2367 14 10.4235C14 10.6103 14.0373 10.7953 14.1097 10.9678C14.1821 11.1403 14.2882 11.2968 14.4219 11.4284L20.5546 17.5L14.4219 23.5716C14.2882 23.7032 14.1821 23.8597 14.1097 24.0322C14.0373 24.2047 14 24.3897 14 24.5765C14 24.7633 14.0373 24.9483 14.1097 25.1208C14.1821 25.2933 14.2882 25.4498 14.4219 25.5814Z" fill="#2ED198"/>
</svg>
