<svg width="35" height="35" viewBox="0 0 35 35" fill="none" xmlns="http://www.w3.org/2000/svg">
<circle cx="17.5" cy="17.5" r="17.5" fill="#030712"/>
<path d="M13.4756 21.375C17.605 21.375 20.9509 18.6047 20.9509 15.1875C20.9509 11.7703 17.605 9 13.4756 9C9.34629 9 6.00039 11.7703 6.00039 15.1875C6.00039 16.5445 6.52869 17.7996 7.42357 18.8227C7.29778 19.1531 7.1109 19.4449 6.91324 19.691C6.74073 19.909 6.56463 20.0777 6.43525 20.1937C6.37056 20.25 6.31665 20.2957 6.28072 20.3238C6.26275 20.3379 6.24837 20.3484 6.24118 20.352L6.23399 20.359C6.03633 20.5031 5.95008 20.7562 6.02914 20.9848C6.10821 21.2133 6.32744 21.375 6.57541 21.375C7.35888 21.375 8.14953 21.1781 8.80721 20.9355C9.13784 20.8125 9.44692 20.6754 9.71646 20.5348C10.8198 21.0691 12.1028 21.375 13.4756 21.375ZM22.1009 15.1875C22.1009 19.1355 18.5394 22.1098 14.3202 22.4648C15.1935 25.0805 18.0902 27 21.5259 27C22.8988 27 24.1818 26.6941 25.2887 26.1598C25.5582 26.3004 25.8637 26.4375 26.1944 26.5605C26.852 26.8031 27.6427 27 28.4262 27C28.6741 27 28.8969 26.8418 28.9724 26.6098C29.0479 26.3777 28.9652 26.1246 28.764 25.9805L28.7568 25.9734C28.7496 25.9664 28.7352 25.9594 28.7173 25.9453C28.6813 25.9172 28.6274 25.875 28.5627 25.8152C28.4333 25.6992 28.2572 25.5305 28.0847 25.3125C27.8871 25.0664 27.7002 24.7711 27.5744 24.4441C28.4693 23.4246 28.9976 22.1695 28.9976 20.809C28.9976 17.5465 25.9464 14.8711 22.0758 14.6391C22.0902 14.8184 22.0973 15.0012 22.0973 15.184L22.1009 15.1875Z" fill="#2ED198"/>
</svg>
