<?xml version="1.0" encoding="UTF-8"?>
<svg id="Capa_2" data-name="Capa 2" xmlns="http://www.w3.org/2000/svg" viewBox="0 0 76.69 12">
  <defs>
    <style>
      .cls-1 {
        fill: #fff;
      }
    </style>
  </defs>
  <g id="Capa_1-2" data-name="Capa 1">
    <path class="cls-1" d="m12.08,0c.15.08.28.2.44.23.77.17,1.43.53,2.01,1.06.57.51,1.01,1.11,1.26,1.85.04.12.06.25.12.36.07.15.14.32.27.41.84.57,1.55,1.24,1.88,2.23.51,1.57.28,3.01-.79,4.29-.54.65-1.22,1.08-2.01,1.35-.08.03-.18,0-.26.05-.05.03-.07.11-.11.17h-.12c-.16-.06-.31-.12-.47-.17-.06-.02-.12-.06-.18-.06-.36,0-.72,0-1.08,0-3.21.02-6.42.03-9.63.05-.06.02-.13.04-.19.06-.06.04-.11.08-.17.12h-.06s-.08-.04-.12-.06c-.52-.26-1.11-.44-1.55-.8C.6,10.56.03,9.84.06,8.82c-.02-.48-.04-.96-.06-1.45.1-.3.16-.62.32-.89.61-1.06,1.47-1.81,2.73-1.98.31-.04.55-.15.68-.49.08-.22.26-.42.44-.58.75-.72,1.59-1.22,2.68-1.15.2.01.38-.05.52-.24.78-1.04,1.77-1.75,3.1-1.88.04,0,.08,0,.11,0,.1,0,.2,0,.3.01.27,0,.54.02.8,0,.07,0,.15-.07.22-.11,0-.02,0-.05,0-.07C11.96,0,12.02,0,12.08,0Zm-3.29,10.92h0c1.66,0,3.33,0,4.99.01,1.12.01,2.02-.41,2.74-1.26.73-.87.86-1.87.58-2.92-.25-.95-.91-1.6-1.75-2.08-.14-.08-.32-.25-.34-.4-.31-1.82-1.86-3.05-3.52-3.19-1.12-.09-2.1.3-2.89,1.11-.28.29-.49.66-.73.99-.1.13-.14.26-.4.21-.4-.08-.85-.1-1.25-.01-.87.18-1.51.71-1.87,1.52-.24.54-.22.53-.76.56-.82.05-1.54.38-2.05,1.04-.54.71-.84,1.49-.54,2.4.22.66.6,1.21,1.18,1.59.37.24.75.43,1.21.43,1.79,0,3.59,0,5.38,0Z"/>
    <path class="cls-1" d="m3.41,11.82c3.21-.02,6.42-.03,9.63-.05,0,.08,0,.15,0,.23h-.18s-.02-.06-.03-.09c0,.03-.02.06-.03.09h-.18s-.02-.06-.03-.09l-.03.09h-.18s-.02-.06-.03-.08c0,.03-.02.06-.03.08h-.18s-.02-.06-.03-.08c0,.03-.02.06-.03.08h-.18s-.02-.06-.03-.08c0,.03-.02.06-.03.08h-.18s-.02-.06-.03-.08c0,.03-.02.06-.03.08h-.18s-.02-.06-.03-.08c0,.03-.02.06-.03.08h-.18s-.02-.06-.03-.08c0,.03-.02.06-.03.08h-.18s-.02-.06-.03-.08c0,.03-.02.06-.03.08h-.18s-.02-.06-.03-.08c0,.03-.02.06-.03.08h-.18s-.02-.06-.03-.08c0,.03-.02.06-.03.08h-.18s-.02-.06-.03-.08c0,.03-.02.06-.03.08h-.18s-.02-.06-.03-.08c0,.03-.02.06-.03.08h-.18s-.02-.06-.03-.08c0,.03-.02.06-.03.08h-.18s-.02-.06-.03-.08c0,.03-.02.06-.03.08h-.18s-.02-.06-.03-.08c0,.03-.02.06-.03.08h-.18s-.02-.06-.03-.08c0,.03-.02.06-.03.08h-.18s-.02-.06-.03-.08c0,.03-.02.06-.03.08h-.18s-.02-.06-.03-.08c0,.03-.02.06-.03.08h-.18s-.02-.06-.03-.08c0,.03-.02.06-.03.08h-.18s-.02-.06-.03-.08c0,.03-.02.06-.03.08h-.18s-.02-.06-.03-.08c0,.03-.02.06-.03.08h-.18s-.02-.06-.03-.08c0,.03-.02.06-.03.08h-.18l-.03-.08s-.02.06-.03.08h-.18s-.02-.06-.03-.08c0,.03-.02.06-.03.08h-.18s-.02-.06-.03-.08c0,.03-.02.06-.03.08h-.18l-.03-.08s-.02.06-.03.08h-.18s-.02-.06-.03-.08c0,.03-.02.06-.03.08h-.18l-.03-.08s-.02.06-.03.08h-.18l-.03-.08s-.02.06-.03.08h-.18s-.02-.06-.03-.08c0,.03-.02.06-.03.08h-.18s-.02-.06-.03-.08c0,.03-.02.06-.03.08h-.18s-.02-.06-.03-.08c0,.03-.02.06-.03.08h-.18l-.03-.08s-.02.06-.03.08h-.18s-.02-.06-.03-.08c0,.03-.02.06-.03.08h-.18s-.02-.06-.03-.09c0,.03-.02.06-.03.09h-.18s-.02-.06-.03-.09c-.01.03-.02.06-.03.09h-.18s-.02-.06-.03-.09c0,.03-.02.06-.03.09h-.18s-.02-.06-.03-.09c0,.03-.02.06-.03.09h-.18c-.04-.06-.08-.12-.12-.18Z"/>
    <path class="cls-1" d="m13.04,12c0-.08,0-.15,0-.23.36,0,.72,0,1.08,0,.06,0,.12.04.18.06-.02.06-.05.12-.07.17h-1.2Z"/>
    <path class="cls-1" d="m14.24,12c.02-.06.05-.12.07-.17.16.06.31.12.47.17h-.54Z"/>
    <path class="cls-1" d="m11.37,0C11.51,0,11.65,0,11.79,0c0,.03,0,.05,0,.08-.14,0-.29.01-.43.02,0-.03,0-.07,0-.1Z"/>
    <path class="cls-1" d="m10.65,0C10.79,0,10.93,0,11.07,0c0,.03,0,.06-.01.09,0,.01,0,.02.01.04-.06,0-.13,0-.19.01-.07-.02-.15-.04-.22-.07,0-.02,0-.05,0-.07Z"/>
    <path class="cls-1" d="m3.41,11.82c.04.06.08.12.12.18h-.3s0-.08,0-.12c.06-.02.13-.04.19-.06Z"/>
    <path class="cls-1" d="m11.06.09S11.06.03,11.07,0c.1,0,.2,0,.3,0,0,.03,0,.07,0,.1-.06,0-.11,0-.17,0-.04,0-.09-.01-.13-.02Z"/>
    <path class="cls-1" d="m3.22,11.88s0,.08,0,.12h-.18c.06-.04.11-.08.17-.12Z"/>
    <path class="cls-1" d="m2.81,12s.04-.04.06-.06c.04.02.08.04.12.06h-.18Z"/>
    <path class="cls-1" d="m10.65,0s0,.05,0,.07c-.02,0-.05,0-.07,0-.04,0-.08,0-.12,0,0-.02,0-.05,0-.07.06,0,.12,0,.18,0Z"/>
    <path class="cls-1" d="m4.19,12s.02-.06.03-.09c0,.03.02.06.03.09h-.06Z"/>
    <path class="cls-1" d="m10.17,12s.02-.06.03-.08c0,.03.02.06.03.08h-.06Z"/>
    <path class="cls-1" d="m11.79.08s0-.05,0-.08c.04,0,.08,0,.12,0,0,.02,0,.05,0,.07-.04,0-.07,0-.11.01Z"/>
    <path class="cls-1" d="m12.8,12s.02-.06.03-.09c.01.03.02.06.03.09h-.06Z"/>
    <path class="cls-1" d="m3.71,12s.02-.06.03-.09c0,.03.02.06.03.09h-.06Z"/>
    <path class="cls-1" d="m3.95,12s.02-.06.03-.09c0,.03.02.06.03.09h-.06Z"/>
    <path class="cls-1" d="m4.43,12s.02-.06.03-.09c0,.03.02.06.03.09h-.06Z"/>
    <path class="cls-1" d="m4.67,12s.02-.06.03-.08c.01.03.02.06.03.08h-.06Z"/>
    <path class="cls-1" d="m4.91,12s.02-.06.03-.08l.03.08h-.06Z"/>
    <path class="cls-1" d="m5.15,12s.02-.06.03-.08c0,.03.02.06.03.08h-.06Z"/>
    <path class="cls-1" d="m12.56,12l.03-.09s.02.06.03.09h-.06Z"/>
    <path class="cls-1" d="m5.62,12s.02-.06.03-.08c0,.03.02.06.03.08h-.06Z"/>
    <path class="cls-1" d="m5.86,12s.02-.06.03-.08l.03.08h-.06Z"/>
    <path class="cls-1" d="m6.1,12s.02-.06.03-.08l.03.08h-.06Z"/>
    <path class="cls-1" d="m6.34,12s.02-.06.03-.08c0,.03.02.06.03.08h-.06Z"/>
    <path class="cls-1" d="m6.58,12s.02-.06.03-.08l.03.08h-.06Z"/>
    <path class="cls-1" d="m6.82,12s.02-.06.03-.08c0,.03.02.06.03.08h-.06Z"/>
    <path class="cls-1" d="m7.06,12s.02-.06.03-.08c0,.03.02.06.03.08h-.06Z"/>
    <path class="cls-1" d="m7.3,12s.02-.06.03-.08l.03.08h-.06Z"/>
    <path class="cls-1" d="m7.54,12s.02-.06.03-.08c0,.03.02.06.03.08h-.06Z"/>
    <path class="cls-1" d="m7.78,12s.02-.06.03-.08c0,.03.02.06.03.08h-.06Z"/>
    <path class="cls-1" d="m8.02,12s.02-.06.03-.08c0,.03.02.06.03.08h-.06Z"/>
    <path class="cls-1" d="m8.26,12s.02-.06.03-.08c0,.03.02.06.03.08h-.06Z"/>
    <path class="cls-1" d="m8.5,12s.02-.06.03-.08c0,.03.02.06.03.08h-.06Z"/>
    <path class="cls-1" d="m8.73,12s.02-.06.03-.08c0,.03.02.06.03.08h-.06Z"/>
    <path class="cls-1" d="m8.97,12s.02-.06.03-.08c0,.03.02.06.03.08h-.06Z"/>
    <path class="cls-1" d="m9.21,12s.02-.06.03-.08c0,.03.02.06.03.08h-.06Z"/>
    <path class="cls-1" d="m9.69,12s.02-.06.03-.08c0,.03.02.06.03.08h-.06Z"/>
    <path class="cls-1" d="m9.93,12s.02-.06.03-.08c0,.03.02.06.03.08h-.06Z"/>
    <path class="cls-1" d="m12.32,12s.02-.06.03-.08c0,.03.02.06.03.08h-.06Z"/>
    <path class="cls-1" d="m10.41,12s.02-.06.03-.08c0,.03.02.06.03.08h-.06Z"/>
    <path class="cls-1" d="m10.65,12s.02-.06.03-.08c0,.03.02.06.03.08h-.06Z"/>
    <path class="cls-1" d="m10.89,12s.02-.06.03-.08c0,.03.02.06.03.08h-.06Z"/>
    <path class="cls-1" d="m11.13,12s.02-.06.03-.08c0,.03.02.06.03.08h-.06Z"/>
    <path class="cls-1" d="m11.37,12s.02-.06.03-.08c0,.03.02.06.03.08h-.06Z"/>
    <path class="cls-1" d="m11.61,12s.02-.06.03-.08c0,.03.02.06.03.08h-.06Z"/>
    <path class="cls-1" d="m11.85,12s.02-.06.03-.08c0,.03.02.06.03.08h-.06Z"/>
    <path class="cls-1" d="m12.08,12s.02-.06.03-.08c0,.03.02.06.03.08h-.06Z"/>
    <path class="cls-1" d="m5.39,12l.03-.08s.02.06.03.08h-.06Z"/>
    <path class="cls-1" d="m39.76,6.39c-.23,1.2-.44,2.31-.65,3.41-.05.26-.15.44-.47.4-.21-.03-.42-.01-.63,0-.19,0-.25-.09-.21-.26.28-1.34.56-2.68.83-4.02.18-.89.35-1.79.55-2.68.02-.09.15-.2.25-.22.23-.04.49-.03.57.24.43,1.38.84,2.77,1.27,4.16.04.13.1.26.18.47.08-.17.14-.27.17-.37.19-.65.36-1.3.55-1.94.23-.77.49-1.54.72-2.31.11-.37.39-.17.59-.19.07,0,.22.15.24.26.33,1.56.63,3.13.95,4.69.13.65.27,1.3.4,1.94.03.16-.02.24-.19.24-.28,0-.56.01-.84-.01-.08,0-.2-.12-.21-.21-.13-.58-.24-1.16-.34-1.75-.09-.56-.16-1.12-.25-1.68,0-.05-.06-.09-.13-.2-.11.31-.19.56-.28.81-.33.91-.66,1.82-.99,2.73-.02.05-.04.12-.08.16-.1.09-.21.23-.33.24-.08,0-.23-.15-.27-.26-.24-.62-.45-1.26-.68-1.89-.18-.51-.37-1.02-.56-1.53-.02-.06-.08-.11-.17-.22Z"/>
    <path class="cls-1" d="m63.91,6.45c0,.96-.14,1.85-.73,2.64-.52.69-1.21,1.05-2.05,1.17-.7.1-1.34-.01-1.95-.37-.84-.5-1.18-1.33-1.39-2.22-.21-.91-.2-1.84.17-2.71.43-1.02,1.12-1.83,2.26-2,1.01-.15,2.01-.01,2.79.77.46.46.71,1.04.81,1.68.05.34.06.69.09,1.03Zm-4.86.16c-.08.6.04,1.18.35,1.71.3.51.69.84,1.35.8,1.01-.06,1.54-.71,1.73-1.52.17-.75.15-1.53-.03-2.29-.15-.61-.76-1.19-1.38-1.24-.8-.06-1.26.12-1.69.85-.31.52-.4,1.08-.34,1.68Z"/>
    <path class="cls-1" d="m26.44,3.01c1.35,0,2.69,0,4.04,0,.22,0,.31.06.23.3-.04.12-.02.28,0,.41.09.41.04.48-.36.48-.95,0-1.91,0-2.9,0,0,.5,0,.98.01,1.47,0,.05.17.14.26.15.58.01,1.16,0,1.73,0,.23,0,.34.04.33.31-.01.77,0,.77-.77.77-.45,0-.9,0-1.35.01-.07,0-.2.14-.2.22-.02.61,0,1.22,0,1.86.12,0,.24.02.37.02.86,0,1.71,0,2.57,0,.34,0,.33,0,.28.35-.02.13.02.27.05.41.06.31-.04.43-.35.43-1.29,0-2.59-.01-3.88,0-.32,0-.37-.11-.37-.39.03-1.81.05-3.63.06-5.45,0-.4-.04-.79-.05-1.19,0-.04.03-.08.05-.13.02-.01.05-.02.07-.03.04,0,.07,0,.11,0h.07Z"/>
    <path class="cls-1" d="m45.38,10.2c.69-1.7,1.35-3.33,2-4.96.27-.68.52-1.36.77-2.05.07-.19.16-.27.36-.26.19.01.33.01.42.26.58,1.52,1.18,3.03,1.78,4.54.3.75.6,1.5.91,2.24.07.17.01.22-.14.22-.35,0-.7.02-1.05-.01-.09,0-.21-.16-.25-.27-.12-.31-.19-.63-.32-.94-.04-.1-.19-.21-.29-.21-.67-.02-1.33-.02-2-.03-.2,0-.33.06-.38.28-.07.3-.16.6-.26.89-.06.19-.18.31-.41.3-.37-.02-.74,0-1.16,0Zm2.32-2.46s.05.05.09.06c.49,0,.97.01,1.46,0,.16,0,.15-.09.11-.22-.12-.33-.21-.66-.32-.99-.15-.46-.31-.91-.5-1.45-.3.92-.57,1.76-.84,2.61Z"/>
    <path class="cls-1" d="m36.47,4.51c-.59-.59-2.22-.66-2.84.34-.68,1.1-.77,2.2-.19,3.34.29.56.79.93,1.41.97.51.03,1.05-.08,1.45-.49.22-.22.3-.21.46.05.11.18.21.37.32.55.1.16.08.28-.09.38-.51.32-1.04.54-1.65.62-.78.1-1.49-.04-2.14-.45-.52-.33-.9-.81-1.12-1.37-.42-1.04-.5-2.13-.14-3.2.33-.96.97-1.7,1.91-2.13.6-.27,1.24-.22,1.87-.15.36.04.69.23,1.05.32.21.06.23.16.15.32-.15.3-.3.59-.45.89Z"/>
    <path class="cls-1" d="m66.59,7.02c0,.96-.02,1.92,0,2.88,0,.24-.08.32-.31.31-.25-.02-.5-.02-.75,0-.24.01-.29-.11-.26-.32.02-.15.06-.29.06-.44,0-1.9,0-3.8,0-5.7,0-.16-.03-.31-.06-.47-.03-.19.06-.28.24-.28.29,0,.58.01.87.01.88,0,1.75,0,2.63,0,.34,0,.67,0,1.04,0,0,.37,0,.69,0,1.01,0,.19-.15.18-.28.17-.96,0-1.91-.01-2.87-.02-.1,0-.19,0-.3.01v1.62c.68,0,1.34,0,2.01,0,.58,0,.48-.04.49.5,0,.18,0,.36,0,.62-.82.01-1.64.03-2.45.04-.02.02-.03.03-.05.05Z"/>
    <path class="cls-1" d="m55.89,4.53c-.4-.35-.82-.52-1.31-.51-.47,0-.73.19-.88.63-.09.26.08.66.41.87.56.35,1.14.67,1.69,1.03.54.36.86.87.85,1.55,0,1.24-.78,2.03-2.01,2.18-.76.09-1.42-.08-2.09-.37-.17-.07-.18-.17-.13-.3.1-.26.21-.52.31-.79.08-.2.2-.13.33-.07.35.14.68.33,1.04.42.38.09.77-.04,1.08-.26.28-.2.29-.83-.03-1.18-.44-.49-1.03-.76-1.59-1.07-.72-.4-1.18-.99-1.18-1.87,0-.91.88-1.78,1.69-1.83.54-.03,1.1.05,1.64.11.18.02.36.14.53.23.04.02.1.11.09.15-.11.37-.15.77-.46,1.08Z"/>
    <path class="cls-1" d="m21.46,4.2h-2.24v-1.14h5.91c0,.34.01.66-.01.98,0,.06-.16.16-.24.16-.6,0-1.2,0-1.79,0-.11,0-.21.01-.33.02,0,.21,0,.4,0,.58,0,1.52,0,3.04,0,4.56,0,.22,0,.44-.03.65-.01.08-.13.19-.21.2-.29.02-.58,0-.87,0-.21,0-.26-.1-.21-.28.02-.07.04-.13.04-.2,0-1.77,0-3.54,0-5.31,0-.06-.01-.12-.02-.21Z"/>
    <path class="cls-1" d="m70.74,3.02c.51,0,.97,0,1.44,0,1.38,0,2.77,0,4.15,0,.25,0,.38.07.35.34-.01.13,0,.26,0,.39,0,.43-.04.46-.48.45-.62-.01-1.25,0-1.9,0,0,.14,0,.25,0,.37,0,1.79,0,3.58,0,5.36,0,.22-.08.28-.28.27-.32-.01-.63,0-.98,0,0-.12-.02-.23-.02-.33,0-1.81,0-3.62.02-5.43,0-.21-.09-.25-.27-.25-.6,0-1.2,0-1.79,0-.25,0-.29-.08-.24-.32.05-.25.01-.51.01-.86Z"/>
    <path class="cls-1" d="m66.59,7.02s.03-.03.05-.05c-.02.02-.03.03-.05.05Z"/>
    <path class="cls-1" d="m26.27,3.02s-.05.02-.07.03c.02-.01.05-.02.07-.03Z"/>
    <path class="cls-1" d="m26.44,3.01h-.07s.05,0,.07,0Z"/>
    <path class="cls-1" d="m11.79.08s.07,0,.11-.01c-.07.04-.14.1-.22.11-.27,0-.54,0-.8,0,0-.01,0-.02,0-.03.06,0,.13,0,.19-.01.04,0,.08-.01.12-.02.06,0,.11,0,.17,0,.14,0,.29-.01.43-.02Z"/>
    <path class="cls-1" d="m10.88.13s0,.02,0,.03c-.1,0-.2,0-.3-.01,0-.03,0-.05,0-.08.02,0,.05,0,.07,0,.07.02.15.04.22.07Z"/>
    <path class="cls-1" d="m10.58.08s0,.05,0,.08c-.04,0-.08,0-.11,0,0-.03,0-.06,0-.09.04,0,.08,0,.12,0Z"/>
    <path class="cls-1" d="m11.19.1s-.08.01-.12.02c0-.01,0-.02-.01-.04.04,0,.09.01.13.02Z"/>
    <path class="cls-1" d="m7.77,6.72c.19.18.36.35.54.5.06.05.21.08.27.04.28-.18.56-.11.86-.1.09,0,.2-.05.26-.12.15-.19.28-.4.42-.6.12-.17.18-.32-.02-.49-.64-.53-.51-1.83.22-2.32.58-.4,1.15-.41,1.73-.08.55.31.84.81.8,1.44-.05.75-.51,1.25-1.28,1.49-.28.09-.53.06-.79-.07-.17-.09-.29-.09-.41.12-.17.3-.38.57-.57.84.65.74.37,1.48-.33,1.82-.34.16-.67.16-.98-.09-.38-.3-.56-.68-.48-1.17,0-.04.05-.08.08-.12.12-.16.12-.29-.05-.43-.12-.1-.19-.26-.32-.35-.08-.06-.23-.1-.32-.06-.41.16-.79.23-1.15-.1-.14-.13-.28-.08-.42.02-.33.23-.68.44-1.01.69-.09.07-.17.24-.15.33.13.53-.02.85-.44,1.15-.44.32-.86.32-1.2.03-.42-.36-.63-.77-.41-1.27.29-.64,1.03-1.09,1.8-.33.46-.31.93-.62,1.39-.94.04-.03.08-.13.07-.17-.16-.54.04-1.07.5-1.33.46-.26.98-.14,1.36.3.38.44.31.89.02,1.38Z"/>
  </g>
</svg>