<svg width="35" height="35" viewBox="0 0 35 35" fill="none" xmlns="http://www.w3.org/2000/svg">
<path d="M19.3503 5.3504C19.7879 4.91297 20.3813 4.66724 21 4.66724C21.6187 4.66724 22.2121 4.91297 22.6497 5.3504L33.1497 15.8504C33.5871 16.288 33.8328 16.8814 33.8328 17.5001C33.8328 18.1188 33.5871 18.7122 33.1497 19.1497L22.6497 29.6497C22.2096 30.0748 21.6202 30.31 21.0084 30.3046C20.3966 30.2993 19.8114 30.0539 19.3788 29.6213C18.9461 29.1887 18.7007 28.6035 18.6954 27.9917C18.6901 27.3799 18.9253 26.7905 19.3503 26.3504L25.6667 19.8334L3.5 19.8334C2.88116 19.8334 2.28767 19.5876 1.85008 19.15C1.4125 18.7124 1.16666 18.1189 1.16666 17.5001C1.16666 16.8812 1.4125 16.2877 1.85008 15.8502C2.28767 15.4126 2.88116 15.1667 3.5 15.1667L25.6667 15.1667L19.3503 8.64974C18.9129 8.21217 18.6672 7.61879 18.6672 7.00007C18.6672 6.38135 18.9129 5.78797 19.3503 5.3504Z" fill="white"/>
</svg>
