<?xml version="1.0" encoding="UTF-8"?>
<svg id="Capa_2" data-name="Capa 2" xmlns="http://www.w3.org/2000/svg" viewBox="0 0 80.6 80.6">
  <defs>
    <style>
      .cls-1 {
        fill: #2ed198;
      }
    </style>
  </defs>
  <g id="Capa_1-2" data-name="Capa 1">
    <path class="cls-1" d="m40.3,0c22.28,0,40.3,18.02,40.3,40.3s-18.02,40.3-40.3,40.3S0,62.58,0,40.3,18.02,0,40.3,0Zm-7.37,61.54c17.85,0,27.63-14.8,27.63-27.63v-1.27c1.9-1.38,3.57-3.11,4.84-5.07-1.73.75-3.63,1.27-5.58,1.55,2.01-1.21,3.57-3.11,4.26-5.35-1.9,1.09-3.97,1.9-6.16,2.36-1.78-1.9-4.32-3.05-7.08-3.05-5.35,0-9.73,4.38-9.73,9.73,0,.75.06,1.5.29,2.19-8.06-.4-15.26-4.26-20.03-10.13-.81,1.44-1.32,3.11-1.32,4.89,0,3.34,1.73,6.33,4.32,8.06-1.61,0-3.11-.46-4.38-1.21v.12c0,4.72,3.34,8.64,7.77,9.56-.81.23-1.67.35-2.53.35-.63,0-1.21-.06-1.84-.17,1.21,3.86,4.84,6.68,9.04,6.74-3.34,2.59-7.54,4.14-12.09,4.14-.81,0-1.55,0-2.3-.12,4.26,2.76,9.38,4.38,14.85,4.38"/>
  </g>
</svg>