<?xml version="1.0" encoding="UTF-8"?>
<svg id="Capa_2" data-name="Capa 2" xmlns="http://www.w3.org/2000/svg" viewBox="0 0 80.6 80.6">
  <defs>
    <style>
      .cls-1 {
        fill: #2ed198;
      }
    </style>
  </defs>
  <g id="Capa_1-2" data-name="Capa 1">
    <path class="cls-1" d="m47.03,39.6l-9.43-4.4c-.82-.38-1.5.05-1.5.96v8.29c0,.91.68,1.34,1.5.96l9.42-4.4c.83-.39.83-1.02,0-1.4ZM40.3,0C18.04,0,0,18.04,0,40.3s18.04,40.3,40.3,40.3,40.3-18.04,40.3-40.3S62.55,0,40.3,0Zm0,56.67c-20.63,0-20.99-1.86-20.99-16.37s.36-16.37,20.99-16.37,20.99,1.86,20.99,16.37-.36,16.37-20.99,16.37Z"/>
  </g>
</svg>