<?xml version="1.0" encoding="utf-8"?>
<!-- Generator: Adobe Illustrator 27.7.0, SVG Export Plug-In . SVG Version: 6.00 Build 0)  -->
<svg version="1.1" id="Capa_1" xmlns="http://www.w3.org/2000/svg" xmlns:xlink="http://www.w3.org/1999/xlink" x="0px" y="0px"
	 viewBox="0 0 34 34" style="enable-background:new 0 0 34 34;" xml:space="preserve">
<style type="text/css">
	.st0{fill:#2ED198;}
	.st1{fill:#030712;}
</style>
<circle class="st0" cx="17" cy="17" r="17"/>
<path class="st1" d="M14.4,25.6c0.1,0.1,0.3,0.2,0.5,0.3c0.2,0.1,0.3,0.1,0.5,0.1c0.2,0,0.4,0,0.5-0.1c0.2-0.1,0.3-0.2,0.5-0.3
	l7.1-7.1c0.1-0.1,0.2-0.3,0.3-0.5c0.2-0.1,0.2-0.3,0.2-0.5s0-0.4-0.1-0.5s-0.2-0.3-0.3-0.5l-7.1-7.1c-0.1-0.1-0.3-0.2-0.5-0.3
	C15.8,9,15.6,9,15.5,9c-0.2,0-0.4,0-0.5,0.1c-0.2,0.1-0.3,0.2-0.5,0.3c-0.1,0.1-0.2,0.3-0.3,0.5c-0.1,0.2-0.1,0.4-0.1,0.5
	s0,0.4,0.1,0.5c0.1,0.2,0.2,0.3,0.3,0.5l6.1,6.1l-6.1,6.1c-0.1,0.1-0.2,0.3-0.3,0.5C14,24.2,14,24.4,14,24.6c0,0.2,0,0.4,0.1,0.5
	C14.2,25.3,14.3,25.4,14.4,25.6z"/>
</svg>
