<svg width="34" height="34" viewBox="0 0 34 34" fill="none" xmlns="http://www.w3.org/2000/svg">
<circle cx="17" cy="17" r="17" fill="#030712"/>
<path d="M19.5781 8.41864C19.4455 8.28599 19.2878 8.1807 19.114 8.10885C18.9402 8.03699 18.7538 8 18.5655 8C18.3772 8 18.1908 8.03699 18.017 8.10885C17.8432 8.1807 17.6855 8.28599 17.5529 8.41864L10.4219 15.4951C10.2882 15.6267 10.1821 15.7832 10.1097 15.9557C10.0373 16.1282 10 16.3132 10 16.5C10 16.6868 10.0373 16.8718 10.1097 17.0443C10.1821 17.2168 10.2882 17.3733 10.4219 17.5049L17.5529 24.5814C17.6855 24.714 17.8432 24.8193 18.017 24.8912C18.1908 24.963 18.3772 25 18.5655 25C18.7538 25 18.9402 24.963 19.114 24.8912C19.2878 24.8193 19.4455 24.714 19.5781 24.5814C19.7118 24.4498 19.8179 24.2933 19.8903 24.1208C19.9627 23.9483 20 23.7633 20 23.5765C20 23.3897 19.9627 23.2047 19.8903 23.0322C19.8179 22.8597 19.7118 22.7032 19.5781 22.5716L13.4454 16.5L19.5781 10.4284C19.7118 10.2968 19.8179 10.1403 19.8903 9.9678C19.9627 9.79533 20 9.61034 20 9.42351C20 9.23667 19.9627 9.05168 19.8903 8.87921C19.8179 8.70675 19.7118 8.55021 19.5781 8.41864Z" fill="#2ED198"/>
</svg>
