<?xml version="1.0" encoding="UTF-8"?>
<svg id="Capa_2" data-name="Capa 2" xmlns="http://www.w3.org/2000/svg" viewBox="0 0 18.32 12.01">
  <defs>
    <style>
      .cls-1 {
        fill: #1d2942;
      }
    </style>
  </defs>
  <g id="Capa_2-2" data-name="Capa 2">
    <path class="cls-1" d="m12.08,0c.15.08.28.2.44.23.77.17,1.43.53,2.01,1.06.57.51,1.01,1.11,1.26,1.85.04.12.06.25.12.36.07.15.14.32.27.41.84.57,1.55,1.24,1.88,2.23.51,1.57.28,3.01-.79,4.29-.54.65-1.22,1.08-2.01,1.35-.08.03-.18,0-.26.05-.05.03-.07.11-.11.17h-.12c-.16-.06-.31-.12-.47-.17-.06-.02-.12-.06-.18-.06h-1.08c-3.21.02-6.42.03-9.63.05-.06.02-.13.04-.19.06-.06.04-.11.08-.17.12h-.06s-.08-.04-.12-.06c-.52-.26-1.11-.44-1.55-.8C.6,10.57.03,9.85.06,8.83c-.02-.48-.04-.96-.06-1.45.1-.3.16-.62.32-.89.61-1.06,1.47-1.81,2.73-1.98.31-.04.55-.15.68-.49.08-.22.26-.42.44-.58.75-.72,1.59-1.22,2.68-1.15.2,0,.38-.05.52-.24.78-1.04,1.77-1.75,3.1-1.88h.11c.1,0,.2,0,.3.01.27,0,.54.02.8,0,.07,0,.15-.07.22-.11v-.07c.06,0,.12,0,.18,0Zm-3.29,10.92h0c1.66,0,3.33,0,4.99.01,1.12.01,2.02-.41,2.74-1.26.73-.87.86-1.87.58-2.92-.25-.95-.91-1.6-1.75-2.08-.14-.08-.32-.25-.34-.4-.31-1.82-1.86-3.05-3.52-3.19-1.12-.09-2.1.3-2.89,1.11-.28.29-.49.66-.73.99-.1.13-.14.26-.4.21-.4-.08-.85-.1-1.25,0-.87.18-1.51.71-1.87,1.52-.24.54-.22.53-.76.56-.82.05-1.54.38-2.05,1.04-.54.71-.84,1.49-.54,2.4.22.66.6,1.21,1.18,1.59.37.24.75.43,1.21.43h5.4Z"/>
    <path class="cls-1" d="m3.41,11.83c3.21-.02,6.42-.03,9.63-.05v.23h-.18s-.02-.06-.03-.09c0,.03-.02.06-.03.09h-.18s-.02-.06-.03-.09l-.03.09h-.18s-.02-.06-.03-.08c0,.03-.02.06-.03.08h-.18s-.02-.06-.03-.08c0,.03-.02.06-.03.08h-.18s-.02-.06-.03-.08c0,.03-.02.06-.03.08h-.18s-.02-.06-.03-.08c0,.03-.02.06-.03.08h-.18s-.02-.06-.03-.08c0,.03-.02.06-.03.08h-.18s-.02-.06-.03-.08c0,.03-.02.06-.03.08h-.18s-.02-.06-.03-.08c0,.03-.02.06-.03.08h-.18s-.02-.06-.03-.08c0,.03-.02.06-.03.08h-.18s-.02-.06-.03-.08c0,.03-.02.06-.03.08h-.18s-.02-.06-.03-.08c0,.03-.02.06-.03.08h-.18s-.02-.06-.03-.08c0,.03-.02.06-.03.08h-.18s-.02-.06-.03-.08c0,.03-.02.06-.03.08h-.18s-.02-.06-.03-.08c0,.03-.02.06-.03.08h-.18s-.02-.06-.03-.08c0,.03-.02.06-.03.08h-.18s-.02-.06-.03-.08c0,.03-.02.06-.03.08h-.18s-.02-.06-.03-.08c0,.03-.02.06-.03.08h-.18s-.02-.06-.03-.08c0,.03-.02.06-.03.08h-.18s-.02-.06-.03-.08c0,.03-.02.06-.03.08h-.18s-.02-.06-.03-.08c0,.03-.02.06-.03.08h-.18s-.02-.06-.03-.08c0,.03-.02.06-.03.08h-.18s-.02-.06-.03-.08c0,.03-.02.06-.03.08h-.18l-.03-.08s-.02.06-.03.08h-.18s-.02-.06-.03-.08c0,.03-.02.06-.03.08h-.18s-.02-.06-.03-.08c0,.03-.02.06-.03.08h-.18l-.03-.08s-.02.06-.03.08h-.18s-.02-.06-.03-.08c0,.03-.02.06-.03.08h-.18l-.03-.08s-.02.06-.03.08h-.18l-.03-.08s-.02.06-.03.08h-.18s-.02-.06-.03-.08c0,.03-.02.06-.03.08h-.18s-.02-.06-.03-.08c0,.03-.02.06-.03.08h-.18s-.02-.06-.03-.08c0,.03-.02.06-.03.08h-.18l-.03-.08s-.02.06-.03.08h-.18s-.02-.06-.03-.08c0,.03-.02.06-.03.08h-.18s-.02-.06-.03-.09c0,.03-.02.06-.03.09h-.18s-.02-.06-.03-.09c-.01.03-.02.06-.03.09h-.18s-.02-.06-.03-.09c0,.03-.02.06-.03.09h-.18s-.02-.06-.03-.09c0,.03-.02.06-.03.09h-.18c-.04-.06-.08-.12-.12-.18h.03Z"/>
    <path class="cls-1" d="m13.04,12.01v-.23h1.08c.06,0,.12.04.18.06-.02.06-.05.12-.07.17h-1.2,0Z"/>
    <path class="cls-1" d="m14.24,12.01c.02-.06.05-.12.07-.17.16.06.31.12.47.17h-.54Z"/>
    <path class="cls-1" d="m11.37,0h.42v.08c-.14,0-.29,0-.43.02V0h.01Z"/>
    <path class="cls-1" d="m10.65,0h.42s0,.06-.01.09c0,0,0,.02.01.04-.06,0-.13,0-.19.01-.07-.02-.15-.04-.22-.07V0h-.01Z"/>
    <path class="cls-1" d="m3.41,11.83c.04.06.08.12.12.18h-.3v-.12c.06-.02.13-.04.19-.06h0Z"/>
    <path class="cls-1" d="m11.06.1s0-.06,0-.09h.3v.1h-.17s-.09,0-.13-.02h0Z"/>
    <path class="cls-1" d="m3.22,11.89v.12h-.18c.06-.04.11-.08.17-.12h0Z"/>
    <path class="cls-1" d="m2.81,12.01s.04-.04.06-.06c.04.02.08.04.12.06,0,0-.18,0-.18,0Z"/>
    <path class="cls-1" d="m10.65,0v.07h-.19V0h.19Z"/>
    <path class="cls-1" d="m4.19,12.01s.02-.06.03-.09c0,.03.02.06.03.09h-.06Z"/>
    <path class="cls-1" d="m10.17,12.01s.02-.06.03-.08c0,.03.02.06.03.08,0,0-.06,0-.06,0Z"/>
    <path class="cls-1" d="m11.79.09V0h.12v.07s-.07,0-.11,0h-.01Z"/>
    <path class="cls-1" d="m12.8,12.01s.02-.06.03-.09c.01.03.02.06.03.09,0,0-.06,0-.06,0Z"/>
    <path class="cls-1" d="m3.71,12.01s.02-.06.03-.09c0,.03.02.06.03.09h-.06Z"/>
    <path class="cls-1" d="m3.95,12.01s.02-.06.03-.09c0,.03.02.06.03.09h-.06Z"/>
    <path class="cls-1" d="m4.43,12.01s.02-.06.03-.09c0,.03.02.06.03.09h-.06Z"/>
    <path class="cls-1" d="m4.67,12.01s.02-.06.03-.08c.01.03.02.06.03.08h-.06Z"/>
    <path class="cls-1" d="m4.91,12.01s.02-.06.03-.08l.03.08h-.06Z"/>
    <path class="cls-1" d="m5.15,12.01s.02-.06.03-.08c0,.03.02.06.03.08h-.06Z"/>
    <path class="cls-1" d="m12.56,12.01l.03-.09s.02.06.03.09c0,0-.06,0-.06,0Z"/>
    <path class="cls-1" d="m5.62,12.01s.02-.06.03-.08c0,.03.02.06.03.08h-.06Z"/>
    <path class="cls-1" d="m5.86,12.01s.02-.06.03-.08l.03.08h-.06Z"/>
    <path class="cls-1" d="m6.1,12.01s.02-.06.03-.08l.03.08h-.06Z"/>
    <path class="cls-1" d="m6.34,12.01s.02-.06.03-.08c0,.03.02.06.03.08h-.06Z"/>
    <path class="cls-1" d="m6.58,12.01s.02-.06.03-.08l.03.08h-.06Z"/>
    <path class="cls-1" d="m6.82,12.01s.02-.06.03-.08c0,.03.02.06.03.08h-.06Z"/>
    <path class="cls-1" d="m7.06,12.01s.02-.06.03-.08c0,.03.02.06.03.08h-.06Z"/>
    <path class="cls-1" d="m7.3,12.01s.02-.06.03-.08l.03.08h-.06Z"/>
    <path class="cls-1" d="m7.54,12.01s.02-.06.03-.08c0,.03.02.06.03.08h-.06Z"/>
    <path class="cls-1" d="m7.78,12.01s.02-.06.03-.08c0,.03.02.06.03.08h-.06Z"/>
    <path class="cls-1" d="m8.02,12.01s.02-.06.03-.08c0,.03.02.06.03.08,0,0-.06,0-.06,0Z"/>
    <path class="cls-1" d="m8.26,12.01s.02-.06.03-.08c0,.03.02.06.03.08,0,0-.06,0-.06,0Z"/>
    <path class="cls-1" d="m8.5,12.01s.02-.06.03-.08c0,.03.02.06.03.08,0,0-.06,0-.06,0Z"/>
    <path class="cls-1" d="m8.73,12.01s.02-.06.03-.08c0,.03.02.06.03.08,0,0-.06,0-.06,0Z"/>
    <path class="cls-1" d="m8.97,12.01s.02-.06.03-.08c0,.03.02.06.03.08,0,0-.06,0-.06,0Z"/>
    <path class="cls-1" d="m9.21,12.01s.02-.06.03-.08c0,.03.02.06.03.08,0,0-.06,0-.06,0Z"/>
    <path class="cls-1" d="m9.69,12.01s.02-.06.03-.08c0,.03.02.06.03.08,0,0-.06,0-.06,0Z"/>
    <path class="cls-1" d="m9.93,12.01s.02-.06.03-.08c0,.03.02.06.03.08,0,0-.06,0-.06,0Z"/>
    <path class="cls-1" d="m12.32,12.01s.02-.06.03-.08c0,.03.02.06.03.08,0,0-.06,0-.06,0Z"/>
    <path class="cls-1" d="m10.41,12.01s.02-.06.03-.08c0,.03.02.06.03.08,0,0-.06,0-.06,0Z"/>
    <path class="cls-1" d="m10.65,12.01s.02-.06.03-.08c0,.03.02.06.03.08,0,0-.06,0-.06,0Z"/>
    <path class="cls-1" d="m10.89,12.01s.02-.06.03-.08c0,.03.02.06.03.08,0,0-.06,0-.06,0Z"/>
    <path class="cls-1" d="m11.13,12.01s.02-.06.03-.08c0,.03.02.06.03.08,0,0-.06,0-.06,0Z"/>
    <path class="cls-1" d="m11.37,12.01s.02-.06.03-.08c0,.03.02.06.03.08,0,0-.06,0-.06,0Z"/>
    <path class="cls-1" d="m11.61,12.01s.02-.06.03-.08c0,.03.02.06.03.08,0,0-.06,0-.06,0Z"/>
    <path class="cls-1" d="m11.85,12.01s.02-.06.03-.08c0,.03.02.06.03.08,0,0-.06,0-.06,0Z"/>
    <path class="cls-1" d="m12.08,12.01s.02-.06.03-.08c0,.03.02.06.03.08,0,0-.06,0-.06,0Z"/>
    <path class="cls-1" d="m5.39,12.01l.03-.08s.02.06.03.08h-.06Z"/>
    <path class="cls-1" d="m11.79.09s.07,0,.11,0c-.07.04-.14.1-.22.11h-.8v-.03c.06,0,.13,0,.19-.01.04,0,.08-.01.12-.02h.17c.14,0,.29,0,.43-.02v-.02Z"/>
    <path class="cls-1" d="m10.88.14v.03c-.1,0-.2,0-.3-.01v-.08h.07c.07.02.15.04.22.07h.01Z"/>
    <path class="cls-1" d="m10.58.09v.08h-.11v-.09h.12-.01Z"/>
    <path class="cls-1" d="m11.19.11s-.08,0-.12.02c0,0,0-.02-.01-.04.04,0,.09,0,.13.02Z"/>
    <path class="cls-1" d="m7.77,6.73c.19.18.36.35.54.5.06.05.21.08.27.04.28-.18.56-.11.86-.1.09,0,.2-.05.26-.12.15-.19.28-.4.42-.6.12-.17.18-.32-.02-.49-.64-.53-.51-1.83.22-2.32.58-.4,1.15-.41,1.73-.08.55.31.84.81.8,1.44-.05.75-.51,1.25-1.28,1.49-.28.09-.53.06-.79-.07-.17-.09-.29-.09-.41.12-.17.3-.38.57-.57.84.65.74.37,1.48-.33,1.82-.34.16-.67.16-.98-.09-.38-.3-.56-.68-.48-1.17,0-.04.05-.08.08-.12.12-.16.12-.29-.05-.43-.12-.1-.19-.26-.32-.35-.08-.06-.23-.1-.32-.06-.41.16-.79.23-1.15-.1-.14-.13-.28-.08-.42.02-.33.23-.68.44-1.01.69-.09.07-.17.24-.15.33.13.53-.02.85-.44,1.15-.44.32-.86.32-1.2.03-.42-.36-.63-.77-.41-1.27.29-.64,1.03-1.09,1.8-.33.46-.31.93-.62,1.39-.94.04-.03.08-.13.07-.17-.16-.54.04-1.07.5-1.33.46-.26.98-.14,1.36.3.38.44.31.89.02,1.38h0Z"/>
  </g>
</svg>