<?xml version="1.0" encoding="UTF-8"?>
<svg id="Capa_2" data-name="Capa 2" xmlns="http://www.w3.org/2000/svg" viewBox="0 0 80.6 80.6">
  <defs>
    <style>
      .cls-1 {
        fill: #030712;
      }

      .cls-2 {
        fill: #2ed198;
      }
    </style>
  </defs>
  <g id="Capa_1-2" data-name="Capa 1">
    <circle class="cls-1" cx="40.3" cy="40.3" r="40.3"/>
    <path class="cls-2" d="m22.39,55.97h35.82c1.23,0,2.24-1.01,2.24-2.24s-1.01-2.24-2.24-2.24H22.39c-1.23,0-2.24,1.01-2.24,2.24s1.01,2.24,2.24,2.24Zm0-11.19h35.82c1.23,0,2.24-1.01,2.24-2.24s-1.01-2.24-2.24-2.24H22.39c-1.23,0-2.24,1.01-2.24,2.24s1.01,2.24,2.24,2.24Zm-2.24-13.43c0,1.23,1.01,2.24,2.24,2.24h35.82c1.23,0,2.24-1.01,2.24-2.24s-1.01-2.24-2.24-2.24H22.39c-1.23,0-2.24,1.01-2.24,2.24Z"/>
  </g>
</svg>