<?xml version="1.0" encoding="UTF-8"?>
<svg id="Capa_2" data-name="Capa 2" xmlns="http://www.w3.org/2000/svg" viewBox="0 0 1800 1600">
  <defs>
    <style>
      .cls-1 {
        fill: #fff;
        fill-rule: evenodd;
      }
    </style>
  </defs>
  <g id="Capa_2-2" data-name="Capa 2">
    <g>
      <path class="cls-1" d="m1226.29,508.04c-9.87,9.98-22.1,12.02-35.59,7.44-10.7-3.64-19.49-9.76-26.03-18.8-10.75-14.87-11.58-30.75-2.23-46.94,7.48-12.95,18.78-21.23,33.18-25.01,13.42-3.52,25.61-.72,35.28,9.38,5.49,5.74,8.36,13.19,9.97,21.06.73,3.58.82,7.13.94,10.79-1.13,15.51-4.17,30.6-15.53,42.08h0Zm-53.88-76.69c-14.29,11.85-22.87,26.58-20.75,45.98,1.58,14.4,9.88,24.98,20.37,33.8,6.18,5.19,13.72,8.35,21.76,10.47,8.8,2.33,17.09,1.58,24.9-2.35,11.68-5.87,18.84-15.97,23.14-28.01,4.52-12.67,6.25-25.6,3.2-39.08-4.87-21.49-21.21-34-40.21-33.83-9.75,0-22.28,4.6-32.42,13.01Zm353.13,1037.88c-9.96-4.91-19.49-10.6-28.07-17.65-11.71-9.6-20.88-21.02-23.13-36.62-1.02-7.03,1.57-13.44,4.83-19.41,4.97-9.12,12.7-15.73,21.74-20.41,6.33-3.28,13.35-5.41,20.43-6.67,11.29-2,22.29-.43,32.66,4.4,10.68,4.97,19.39,12.45,26.69,21.73,6.73,8.54,12.39,17.81,15.98,27.9,4.1,11.51,7.1,23.6,3.91,36.02-3.83,14.94-12.31,20.45-28.18,22.3-1.23.14-2.5.02-3.75.02-15.25-.63-29.53-4.91-43.12-11.6h0Zm49.41,16.51c1.9-.26,3.74-1,5.63-1.37,18.57-3.64,27.15-21.95,25.93-37.84-.81-10.55-2.53-21.04-7.46-30.65-2.58-5.03-4.76-10.36-7.95-14.98-4.44-6.43-9.52-12.38-14.9-18.15-8.01-8.61-17.85-13.83-28.58-17.38-7.39-2.44-15.19-3.24-23.23-2.18-8.6,1.14-16.86,3.36-24.47,7.09-8.54,4.19-15.79,10.45-21.68,18.12-10.55,13.73-11.19,30.11-2.61,45.29,2.91,5.15,6.86,9.15,10.69,13.45,6.61,7.42,14.45,13.14,22.82,18.3,5.89,3.62,12.18,6.43,18.26,9.65,13.24,7.02,27.55,9.35,42.15,10.71,1.8,0,3.63.19,5.41-.05h0Zm-10.09-398.16c-6.17,12.92-16.15,21.49-30.56,22.12-10.55.46-19.98-4.48-27.77-11.91-11.99-11.42-20.41-25.17-27.61-40-5.71-11.76-9.29-24.19-13.08-36.5-3.75-12.18-5.81-24.89-7.65-37.58-1.17-8.12-1.79-16.21-1.51-24.37.33-9.3,1.76-18.58,6.67-26.54,7.48-12.12,20.85-19.05,36.22-13.97,12.26,4.05,20.9,12.46,28.85,22.07,9.21,11.14,15.59,23.97,22.24,36.61,3.18,6.04,5.39,12.65,7.84,19.09,2.75,7.23,5.32,14.49,6.94,22.01,2.61,12.1,6.47,24.05,5.3,36.47.69,11.47-.98,22.29-5.86,32.51h0Zm-111.54-104.27c1.55,12.33,3.67,24.59,7.16,36.5,3.57,12.17,7.02,24.39,12.31,36.03,4.58,10.08,9.73,19.82,15.93,28.9,5.12,7.5,11.56,14.06,18.77,19.68,10.45,8.15,21.89,13.16,35.41,8.9,7.73-2.44,14.13-6.78,19.43-13.28,5.83-7.15,9.67-15.13,11.68-23.83,2.53-10.97,2.26-22.17,1.09-33.42-1.69-16.36-5.99-32.09-11.74-47.31-6.28-16.6-13.63-32.75-24.1-47.4-7.68-10.75-15.2-21.36-26.67-28.46-6.78-4.19-14.08-7.58-21.98-7.5-15.1.17-25.98,8.08-32.99,21.14-4.9,9.12-5.37,19.32-6,27.65.08,8.69.85,15.54,1.71,22.4h0Zm-5.5-830.12c13.44,7.97,21.74,19.93,25.59,35.13,2.29,9.03,3.44,18.13,3.24,27.42-.28,13.16-2.47,25.97-6.19,38.64-4.73,16.1-11.34,31.3-20.43,45.33-10.01,15.45-21.81,29.3-38.45,38.11-10.83,5.73-22.3,6.7-34.2,4.24-11.36-2.35-21.11-8.05-30.36-14.63-13.99-9.95-27.06-21.04-39.08-33.3-6.48-6.62-12.53-13.7-17.38-21.62-8.82-14.42-8.28-29.13-.52-43.8,5.31-10.04,12.07-19.03,19.8-27.36,12.65-13.63,26.93-25.26,42.18-35.89,10.39-7.24,21.37-13.13,33.27-17.14,9.04-3.04,18.46-4.74,28.64-4.07,12.03-1.23,23.38,2.73,33.88,8.95h0Zm-41.72,192.52c16.71-6.17,29-18.11,39.6-31.66,12.82-16.39,22.35-34.63,28.66-54.67,6.81-21.62,9.44-43.38,5.6-65.78-1.97-11.5-6.33-22.14-13.84-31.02-7.82-9.24-17.4-16.03-29.32-19.84-13.82-4.41-27.55-5.23-41.59-2.38-15.04,3.05-28.43,10.03-41.41,17.92-12.92,7.85-24.42,17.59-35.72,27.53-7.78,6.84-14.77,14.59-20.94,22.87-5.73,7.69-10.93,15.83-14.65,24.88-4.98,12.1-4.9,23.91.59,35.6,3.58,7.62,8.69,14.21,14.3,20.56,7.25,8.2,15.02,15.79,23.14,23.06,9.65,8.64,19.86,16.53,30.92,23.36,11.58,7.15,23.57,12.64,38.9,12.22,4.57.47,10.22-.61,15.75-2.65h0Zm-132.65,17.19c7.84,6.01,14.86,12.78,21.26,20.22,11.72,13.62,21.07,28.73,27.09,45.69,4.25,11.97,6.99,24.3,8.36,37.03,1.46,13.61,1.58,27.24,2.43,40.86,1.14,18.15,3,36.24,6.35,54.17,2.65,14.22,5.75,28.41,6.72,42.86,1.11,16.6.64,33.11-9.59,47.42-8.07,11.29-18.96,18.17-32.62,21.45-14.62,3.51-28.44.81-41.77-4.39-9.31-3.63-18.14-8.65-26.27-14.76-12.95-9.72-24.79-20.71-37.13-31.14-15.27-12.91-30.11-26.32-45.7-38.87-10.62-8.55-21.23-17.2-31.31-26.48-8.93-8.22-18.05-16.27-25.87-25.51-8.73-10.32-16.33-21.6-19.7-34.98-4-15.88-.78-30.97,6.12-45.47,8.31-17.45,20.42-32.04,33.95-45.65,10.34-10.4,21.26-20.04,32.84-29.08,11.43-8.93,23.15-17.24,36.32-23.31,11.88-5.48,24.08-9.84,36.57-8.79,20.49-.68,36.84,7.13,51.94,18.72h0Zm61.49,101.5c-1.52-15.45-4.95-30.43-11.74-44.56-5.02-10.45-10.39-20.67-17.18-30.11-7.89-10.99-17.34-20.52-27.67-29.11-5.27-4.38-11.04-8.4-17.13-11.48-9.31-4.71-18.95-8.44-29.68-9.52-12.66-1.28-24.95-.19-36.73,3.97-12.84,4.53-24.77,11.13-35.97,19-11.98,8.42-23.52,17.44-34.12,27.46-17.09,16.15-33.48,33.01-44.96,53.94-9.24,16.85-13.14,34.55-8.82,53.49,1.24,5.43,3.92,10.49,6.46,15.55,3.88,7.71,8.78,14.72,14.18,21.31,8.33,10.15,18.1,18.98,27.89,27.68,10.73,9.54,22.13,18.32,33.12,27.56,14.58,12.26,29.26,24.4,43.49,37.05,15.68,13.95,31.06,28.07,49.34,38.86,14.21,8.39,29.11,13.63,45.41,13.44,10.82-.12,21.35-2.5,31.09-8.4,19.15-11.59,27.73-28.76,28.89-50.42.75-14.03-1.32-27.87-3.6-41.59-2.22-13.31-4.68-26.57-6.63-39.93-1.77-12.16-2.26-24.38-2.72-36.62-.96-12.52-1.7-25.07-2.92-37.57h0Zm465.05,689.75c-1.76.03-2.69,1.36-3.68,2.47-12.16,13.53-21.96,28.71-29.94,44.97-7.29,14.84-13.62,30.07-16.81,46.51-3.82,19.68-2.46,38.84,3.62,57.84,7.78,24.32,20.46,45.54,39.12,63.12,2.39,2.26,4.06,5.32,7.69,5.93v-6.67c-3.11-1.05-5.36-3.38-7.56-5.57-5.86-5.84-10.99-12.23-15.6-19.2-3.79-5.72-7.48-11.54-10.62-17.55-3.21-6.16-5.61-12.8-7.82-19.51-5.33-16.15-7.21-32.53-5.28-49.27,1.88-16.4,7.35-31.87,14.21-46.81,6.67-14.55,14.94-28.19,24.36-41.11,2.2-3.01,4.17-6.6,8.31-7.64,0,0,0-7.5,0-7.5Zm0-749.17c-4.32-.28-8.01,1.87-11.97,3-11.76,3.36-22.5,8.79-32.52,15.71-8.83,6.09-16.27,13.53-22.85,22.06-6.74,8.76-11.43,18.5-13.24,29.1-3.16,18.4-1,36.32,8.54,52.9,12.8,22.25,31.41,34.71,57.58,34.73,4.84,0,9.6-1.38,14.47-.84v-5.83c-9.85,1.68-19.76,2.34-29.53-.13-9.73-2.46-18.17-7.09-25.62-14.21-6.06-5.78-10.81-12.25-14.22-19.59-8-17.26-10.12-35.09-3.89-53.54,3.64-10.77,8.79-20.56,17.1-28.43,9.14-8.65,18.86-16.55,30.71-21.28,8.26-3.29,16.15-7.88,25.44-7.83v-5.83h0Zm-900-31.67c1.09.13,2.24.09,3.27.42,8.65,2.74,17.65,3.21,26.57,3.65,18.8.94,36.71-3.35,54.1-10.23,13.95-5.52,25.89-14.01,36.82-24.13,5.57-5.15,9.76-11.21,13.59-17.7,6.94-11.75,8.26-24.98-2.75-35.87-3.74-3.7-7.86-6.66-12.52-9.2-7.14-3.89-14.85-5.77-22.55-7.73-10.61-2.71-21.58-2.83-32.42-3.75-11.17-.95-22.41-.73-33.59-.31-10.19.39-20.35,1.53-30.52,2.33v5c9.75-.83,19.48-2.1,29.25-2.39,15.09-.46,30.2-.32,45.26.8,5.62.42,11.26,1.09,16.76,2.27,8.89,1.9,17.69,4.2,25.94,8.26,18.87,9.29,21.72,24.46,12.11,40.23-8.5,13.94-20.77,24.27-35.08,31.96-10.71,5.76-22.15,9.79-34.03,12.59-15.28,3.6-30.58,3.65-46.06,1.57-4.81-.65-9.13-3.49-14.15-2.78v5h0Zm295.83,1226.67c.53-4.87-.62-9.64-.9-14.47-.44-7.58-1.39-15.25-3.72-22.38-3.84-11.77-10.15-22.31-19.35-30.94-4.55-4.26-9.52-7.97-14.27-11.94-5.66-4.73-12.14-8.14-18.05-12.43-6.12-4.44-13.07-7.66-19.79-11.19-7.35-3.85-14.74-7.88-22.55-10.22-10.09-3.02-20.43-5.8-31.34-4.86-12.52,1.08-23.98,5.06-34.47,11.71-7.49,4.76-13.91,10.91-19.53,17.8-7.9,9.67-14.15,20.46-18.93,31.89-4.81,11.52-9.17,23.3-11.77,35.6-1.51,7.14-4.01,14.06-4.5,21.42h5c-.52-3.28,1.04-6.2,1.58-9.29,1.74-10.09,4.87-19.85,8.1-29.46,2.83-8.42,6.22-16.71,10.09-24.83,7.86-16.52,18.94-29.98,34.14-40.06,12.65-8.39,26.91-11.11,41.59-9.41,22.05,2.55,40.99,13.58,59.58,24.72,9.07,5.44,17.92,11.46,25.97,18.46,9.16,7.96,17.32,16.73,21.59,28.37,4.92,13.39,6.22,27.38,6.53,41.52h5ZM900,96.67c1.88-.21,3.49.55,5.16,1.3,11.84,5.29,23.65,10.64,35.58,15.7,7.62,3.23,15.44,6,23.2,8.9,7.99,3,16.11,5.65,24.33,7.94,11.13,3.09,22.47,5.53,33.92,7.36,14.05,2.24,28.16,3.97,42.34,4.52,18.54.71,37.03-.18,55.43-3.1,18.1-2.87,35.55-7.72,52.29-15.16,13.38-5.95,25.74-13.57,36.54-23.46,11.62-10.65,19.48-23.84,24.93-38.61,5.51-14.92,6.21-29.91,1.19-44.97-1.96-5.86-4.9-11.4-7.4-17.08h-5c.09,2.12.79,4.01,1.95,5.81,3.34,5.16,5.43,10.98,7.02,16.76,2.03,7.43,2.22,15.11,1.2,22.98-2.05,15.85-8.78,29.52-18.22,41.95-6.46,8.49-14.71,15.11-23.67,21.06-9.71,6.45-20.05,11.39-30.85,15.48-13.07,4.95-26.63,7.97-40.42,10.29-9.7,1.63-19.45,2.6-29.18,3-10.34.43-20.73.22-31.14-.45-16.28-1.05-32.35-3.18-48.35-6.07-13.61-2.47-26.78-6.65-39.87-10.97-7.43-2.45-14.74-5.35-22.04-8.21-12.59-4.93-25.02-10.29-37.24-16.07-3.66-1.73-7.4-3.76-11.68-3.88v5h0Zm30,1503.33c-.81-8.28.59-16.51,1.19-24.68,1.37-18.53,3.85-36.99,6.43-55.4,2.34-16.62,5.86-33,11.24-48.99,4.74-14.08,11.53-27.04,19.66-39.32,9.39-14.19,21.43-26.24,32.67-38.91,9.05-10.2,17.68-20.49,23.16-33.2,3.3-7.64,3.06-15.13.64-22.6-3.28-10.12-10.72-17.51-18.66-23.92-14.23-11.49-31.04-18.62-47.94-25.09-8.29-3.18-16.66-6.48-25.53-8.25-10.95-2.18-21.7-5.31-32.88-6.31v5c10.44,1.85,20.86,3.59,31.15,6.42,20.07,5.53,39.45,12.4,57.6,22.79,10.91,6.25,20.87,13.32,28.01,23.81,5.71,8.39,6.66,17.52,2.81,26.83-3.72,9-9.78,16.48-15.87,24.07-9.18,11.44-19.85,21.53-28.85,33.12-4.31,5.55-9.09,10.85-12.79,16.77-6.42,10.24-12.36,20.83-16.39,32.31-3.38,9.62-6.29,19.34-8.42,29.36-1.98,9.31-4.12,18.63-5.37,28.01-1.96,14.71-3.86,29.45-4.64,44.31-.6,11.3-2.6,22.51-2.24,33.87h5Zm870-571.67c-8.91-.49-15.94,4.3-22.48,9.11-8.29,6.09-14.32,14.62-19.39,23.49-7.2,12.61-12.75,26.07-18.15,39.56-4.39,10.96-8.8,21.92-13.2,32.89-4.46,11.13-9.18,22.17-13.29,33.43-4.29,11.74-8.79,23.4-12.82,35.25-2.97,8.74-5.83,17.47-7.81,26.48-3.37,15.33-4.54,30.83-2.78,46.45,2.17,19.31,7.66,37.81,15,55.69,5.17,12.6,11.66,24.62,18.32,36.55,4.72,8.46,9.87,16.67,15.63,24.32,12.33,16.38,26.58,31.13,42.94,43.59,5.52,4.21,10.85,9.14,18.04,10.7v-5.83c-2.14.16-3.86-.42-5.72-1.75-7.89-5.67-15.72-11.41-22.8-18.09-8.24-7.77-16.75-15.4-23.47-24.53-8.72-11.85-17.02-23.99-24.01-37.07-5.99-11.22-11.67-22.58-16.18-34.38-6.39-16.74-11.51-33.87-13.1-51.99-1.07-12.12-.51-24.32,1.66-36.29,1.93-10.66,4.97-21.12,8.43-31.47,3.33-9.94,6.64-19.91,10.54-29.6,5.49-13.63,10.87-27.31,16.34-40.95,4.03-10.06,8.11-20.1,12.17-30.15,3.88-9.59,7.59-19.25,12.29-28.48,5.78-11.36,11.04-23.11,21.29-31.4,6.66-5.39,13.48-10.67,22.55-11.35v-4.17h0Zm0-702.5c-4.11.76-8.21.02-12.31,0-15.37-.09-30.7.49-46.06,1.5-14.42.95-28.53,2.67-42.22,7.46-8.18,2.86-15.69,7.09-22.44,12.26-9.41,7.2-17.97,15.37-25.09,25.08-6.81,9.28-12.01,19.32-15.13,30.18-4.42,15.39-4.94,31.21-3.59,47.24,1.42,16.74,5.11,32.96,9.13,49.15,2.39,9.64,6.22,18.89,9.12,28.37,4.38,14.39,9.19,28.65,14.97,42.46,7,16.74,13.81,33.6,23.15,49.37,6.8,11.49,14.32,22.29,23.49,31.85,8.01,8.35,17.15,15.25,27.6,20.73,10.82,5.67,22,8.62,33.98,9.36,8.69.54,16.93-2.26,25.4-3.33v-5.83c-6.75,1.25-13.2,3.81-20.15,4.21-13.91.8-26.73-2.95-38.75-9.43-14.2-7.65-25.76-18.54-35.2-31.52-6.45-8.87-12.33-18.12-17.37-27.98-3.76-7.36-7.19-14.82-10.44-22.39-5.33-12.41-10.14-25-14.83-37.67-4.6-12.42-8.87-24.96-12.87-37.55-3.49-10.99-6.38-22.23-8.46-33.65-2.57-14.13-4.8-28.24-4.49-42.67.09-4.02.54-7.99.83-11.98.89-12.45,4.42-24.09,10.29-35.02,4.67-8.69,10.98-16.12,17.73-23.32,6.1-6.5,12.99-12.1,20.46-16.55,11.54-6.87,24.24-10.68,37.84-12.31,13.61-1.63,27.23-2.24,40.85-2.89,11.49-.55,23.04-.11,34.56-.11v-5h0Zm-900,566.67c1.38,0,2.71-.05,3.91.98,7.44,6.39,15.23,12.41,22.34,19.15,12.77,12.09,23.86,25.68,33.87,40.14,7.85,11.33,15.26,22.98,23.42,34.08,8.81,11.97,18.98,22.46,33.07,28.68,11.34,5,22.66,5.09,34.23,2.03,12.18-3.21,22.75-9.7,32.63-17.31,9.45-7.28,17.9-15.62,25.63-24.72,10.71-12.59,20.27-25.81,26.43-41.38,6.84-17.28,4.89-34.14-1.22-50.93-4.64-12.75-11.97-24.2-18.77-35.81-6.74-11.51-14.49-22.44-21.38-33.9-4.82-8.01-10.2-15.69-15.34-23.5-10.06-15.27-20.76-30.04-34.28-42.51-8.65-7.98-18.24-14.75-28.79-19.88-8.91-4.33-18.42-7-28.3-8.77-15.43-2.77-30.81-2.82-46.27-1.29-7.39.73-14.79,1.77-22.06,3.28-6.35,1.33-12.67,2.68-19.13,3.33v5.83c6.46-1.38,12.87-3.26,19.4-4.03,9.03-1.06,17.88-3.09,27-3.74,14.01-1.01,27.91-1.11,41.66,1.8,10.77,2.28,21.27,5.52,30.98,11,10.04,5.67,19.23,12.53,27.04,20.91,10.44,11.22,19.41,23.6,27.93,36.41,10.24,15.39,19.77,31.21,29.83,46.69,9.7,14.93,19.29,29.92,25.72,46.63,4.47,11.61,6.5,23.52,4.23,36.02-2.13,11.7-7.43,21.84-13.98,31.58-9.76,14.51-21,27.54-34.55,38.7-12.84,10.57-26.02,19.57-43.28,21.69-14.07,1.73-25.97-2.34-36.64-10.57-9.78-7.54-16.88-17.69-23.99-27.65-6.62-9.28-12.8-18.87-19.11-28.37-6.97-10.5-15.04-20.17-23.65-29.25-8.41-8.87-17.76-16.92-27.13-24.81-3.37-2.84-6.75-6.25-11.48-7.16v6.67h0Zm0,340c3.86.13,7.7.2,11.58.67,19.45,2.36,38.75,5.72,57.85,9.83,13.34,2.87,26.78,5.33,40.06,8.56,9.34,2.27,18.93,3.5,28.5,4.79,13.04,1.75,26.12,1.9,38.99.76,15.04-1.33,29.81-5.01,44.19-10.2,13.66-4.93,26.94-10.61,40.04-16.83,13.85-6.58,27.74-13.06,42.89-16.34,10.57-2.29,21.82,3.17,26.88,12.65,4.86,9.09,5.94,18.9,6.41,28.8.37,7.71-1.06,15.42-1.42,23.13-.48,10.17-2.32,20.15-3.8,30.15-2.43,16.5-5.92,32.84-8.79,49.27-2.87,16.43-5.85,32.85-8.17,49.35-1.49,10.6-3.12,21.22-3.59,31.96-.31,6.89-.88,13.78-1.76,20.62-2.13,16.62-2.33,33.44-.58,50.11,1.39,13.34,6.68,25.12,15.43,35.44,6.47,7.63,14.11,13.93,21.46,20.6,10.68,9.68,22.69,17.48,34.61,25.44,3.7,2.47,8.41,3.87,10.06,8.74h9.17c-.93-2.87-3.29-4.46-5.71-5.69-7.67-3.92-14.62-9.04-21.48-14.05-10.98-8.02-22.16-15.81-32.02-25.4-7.16-6.97-14.16-13.76-19.09-22.58-4.66-8.34-7.95-17.21-8.18-26.59-.33-13.14-.64-26.3.49-39.49,1.36-15.74,3.09-31.41,4.87-47.1,1.18-10.4,2.98-20.68,4.47-31,2.41-16.64,5.52-33.18,8.46-49.74,3.81-21.42,8.04-42.77,9.76-64.5,1.15-14.51,1.59-28.95-3.24-43.02-2.68-7.82-7.04-14.41-14.2-18.66-7.53-4.47-15.74-4.31-24.08-2.64-10.67,2.14-20.26,7.1-30.1,11.36-11.46,4.97-22.72,10.4-34.2,15.33-7.73,3.32-15.82,5.73-23.79,8.44-12.64,4.3-25.59,7.25-38.79,7.62-16.37.46-32.78,1.02-49.09-2.86-11.22-2.67-22.68-4.55-33.95-7.2-4.54-1.07-9.15-2.29-13.7-2.84-8.67-1.04-17.04-3.39-25.55-5.03-13.93-2.68-28.04-4.09-41.97-6.7-2.81-.53-5.95-1.59-8.94-.17v5h0Zm0-1074.17c5.42.07,10.5,1.96,15.62,3.31,7.22,1.9,14.51,3.39,21.78,4.99,16.29,3.59,32.63,6.93,48.96,10.3,4.31.89,8.66,1.58,13.01,2.2,7.5,1.07,15.01,2.04,22.53,3.01,7.52.97,15.02,2.41,22.57,2.72,9.77.4,19.53,1.27,29.21,2.28,17.49,1.82,35.05,1.51,52.54,2.77,6.05.44,12.17-.46,18.22-.6,19.49-.45,38.73-1.78,57.66-7.17,7.88-2.24,15.51-5.06,22.91-8.22,12.29-5.26,23.66-12.5,34.32-20.56,12.09-9.15,23.83-18.78,35.36-28.62,9.24-7.89,18.32-15.93,27.96-23.39,13.43-10.39,27.27-19.85,43.07-26.44,14.02-5.85,28.62-7.95,43.54-9.15,8.15-.66,16.26.26,24.38,0,5.58-.18,11.04.65,16.55,1.12,10.3.88,20.57,2.05,30.85,3.1,8.92.91,17.88,1.48,26.74,2.8,12.7,1.9,25.5,2.71,38.27,3.7,8.89.69,17.82,1.45,26.88.33,9.2-1.14,16.95-4.61,23.62-10.74,6.89-6.34,11.51-14.4,16.16-22.39,7.85-13.49,15.08-27.35,24.11-40.13.8-1.14.68-2.36.72-3.59h-5.83c.16,1.87-.24,3.6-1.43,5.08-5.87,7.34-10.01,15.79-14.86,23.76-6.1,10.02-11.11,20.68-18.46,29.94-5.76,7.26-13.16,11.37-22.27,12.92-10.11,1.72-20.17.3-30.21-.25-4.25-.23-8.56-.3-12.82-.78-9.29-1.05-18.54-2.53-27.86-3.05-9.53-.54-18.97-1.85-28.41-2.91-13.3-1.49-26.61-2.81-39.94-3.76-9.89-.7-19.88-1.02-29.78-.03-6.71.67-13.52.93-20.08,2.67-8.13,2.16-16.27,4.27-23.96,7.9-7.86,3.71-15.94,7.06-22.98,12.14-9.48,6.85-18.9,13.77-27.96,21.23-8.64,7.11-17.17,14.35-25.71,21.57-13.8,11.66-27.62,23.25-42.99,32.86-14.34,8.97-29.71,15.65-46.08,19.61-18.86,4.56-38.25,5.31-57.56,6.05-7.6.29-15.21-.26-22.82-.59-11.74-.51-23.47-.94-35.22-1.69-18.3-1.18-36.5-3.1-54.72-5.1-15.77-1.73-31.41-4.24-46.97-7.32-9.59-1.9-19.17-3.89-28.74-5.88-9.53-1.99-19-4.27-28.52-6.31-7.12-1.52-14.11-3.65-21.34-4.71v5h0Zm0,917.5c1.39.05,2.81-.09,4.15.17,16.52,3.25,32.64,8.1,48.89,12.4,9.88,2.61,19.81,4.94,29.9,6.61,8.98,1.49,17.97,2.73,27.04,3.66,10.62,1.09,21.16.61,31.28-1.73,13.55-3.14,26.18-8.85,38.21-16.31,13.53-8.39,25.48-18.58,37.31-28.97,11.18-9.82,21.48-20.61,32.43-30.72,13.43-12.4,26.48-25.23,39.69-37.88,11.21-10.73,22.2-21.69,32.14-33.66,6.55-7.89,12.51-16.01,16.75-25.54,5.78-13,4.73-25.66-.5-38.16-5.47-13.07-14.7-23.62-24.69-33.45-14.41-14.18-29.1-28.08-43.44-42.33-10.18-10.12-19.92-20.67-28.59-32.18-9.85-13.09-20.24-25.78-29.89-39.02-7.98-10.95-16.48-21.39-25.73-31.27-7.28-7.77-14.82-15.26-23.21-21.75-14.47-11.21-30.44-19.9-47.87-25.53-17.45-5.64-35.56-7.83-53.81-8.43-20.07-.66-40.1.53-60.08,2.43v5c11.28-.83,22.56-2.2,33.86-2.36,13.01-.19,26.03-.65,39.07.57,11.59,1.08,23.07,2.75,34.16,6.07,17.65,5.29,34.29,12.61,48.99,24.3,10.51,8.36,20.58,17.06,29.35,27.19,10.47,12.09,20.26,24.72,29.54,37.77,6.14,8.63,12.58,17.08,19.36,25.22,10.06,12.09,20.06,24.24,31.53,35.12,14.55,13.8,28.7,28.01,43.01,42.07,8.7,8.55,16.34,17.81,22.02,28.78,4.55,8.79,6.54,17.83,5.41,27.49-1.44,12.33-8.47,22.26-15.8,31.51-6.75,8.51-14.21,16.57-22.06,24.21-12.31,11.99-24.78,23.8-37.26,35.61-16.66,15.76-32.74,32.14-49.72,47.53-11.32,10.26-23.16,19.99-36.5,27.81-11.43,6.7-23.49,11.45-36.29,14.33-16.65,3.74-33.28,1.44-49.8-1.27-12.5-2.05-24.79-5.04-37.04-8.33-7.8-2.1-15.57-4.4-23.46-6.26-9.4-2.22-18.69-4.88-28.36-5.68v5h0Zm0,120.83c1.91.28,3.81.59,5.72.82,10.67,1.29,21.36,2.43,32.01,3.89,9.56,1.31,19.06,3.02,28.6,4.46,10.35,1.57,20.75,2.86,31.07,4.6,10.62,1.79,21.3,2.84,32.01,3.83,7.48.69,14.87.16,22.31-.02,8.5-.19,16.91-1.59,24.86-3.88,8.91-2.57,17.97-4.96,26.51-9.13,11.27-5.51,22.4-11.19,32.91-18.03,9.72-6.32,18.54-13.92,28.06-20.49,13.28-9.16,25.24-20.04,39.17-28.42,16.35-9.83,32.91-17.57,52.62-16.04,8.9.69,17.24,3.05,24.58,7.92,12.29,8.17,20.84,19.69,26.31,33.22,5.76,14.26,9.65,28.93,10.21,44.61.38,10.6-.26,20.9-1.98,31.26-2.59,15.58-7.54,30.52-12.36,45.49-2.62,8.15-5.72,16.16-7.99,24.4-2.2,7.99-4.79,15.89-7.44,23.68-4.23,12.44-6.58,25.25-9.69,37.92-2.51,10.23-3,20.74-3.94,31.16-.76,8.34-1.64,16.77-.87,25.15.92,10.06,1.78,20.11,3.72,30.12,1.58,8.16,3.34,16.32,6.21,23.95,4.8,12.76,10.7,25.19,19.98,35.57,5.72,6.4,11.11,13.15,17.76,18.6,11.42,9.35,23.12,18.29,36.18,25.41,8.74,4.77,17.68,9.09,26.67,13.29,8.6,4.02,17.4,7.63,26.15,11.32,9.17,3.86,18.53,7.31,27.54,11.53,3.78,1.77,8.55,2.61,10.6,7.15h10c-.67-2.65-2.48-4.26-4.96-5.08-8.52-2.8-16.27-7.38-24.51-10.84-11.14-4.69-22.35-9.3-33.41-14.2-10.34-4.58-20.75-9.07-30.72-14.36-12.05-6.39-23.59-13.76-34.2-22.39-14.6-11.88-27.11-25.55-35.77-42.51-5.88-11.53-9.56-23.7-12.38-36.3-2.55-11.41-3.66-22.93-3.94-34.49-.45-18.67,1.51-37.18,5.67-55.43,2.11-9.26,3.36-18.77,6.21-27.78,5.12-16.14,10.69-32.16,15.95-48.25,5.89-18,11.81-36.05,14.84-54.93,2.33-14.49,2.8-28.89.32-43.24-2.47-14.25-6.33-28.06-13.61-40.91-7.55-13.33-16.89-23.94-31.05-30.79-11.4-5.52-23.09-6.15-34.81-4.81-15.87,1.81-29.81,9.58-43.1,18.04-13.89,8.83-26.57,19.35-39.6,29.38-10.51,8.09-20.88,16.52-32.34,23.1-14.45,8.3-29.37,15.89-45.75,20.03-9.79,2.47-19.58,4.42-29.71,5.13-7.09.5-14.03.18-21.06-.1-11.62-.46-23.02-2.56-34.52-3.9-7.38-.86-14.65-2.82-22.04-3.58-12.36-1.27-24.53-3.73-36.81-5.5-12.03-1.74-24.01-3.68-36.19-3.78v4.17h0ZM1715,0c-.14,1.36-.66,2.8-.37,4.06,1.57,6.71,1.5,13.38.42,20.17-1.62,10.25-5.51,19.64-11.28,28.07-6.68,9.77-15.53,17.35-25.83,23.39-10.9,6.39-22.81,9.84-34.93,12.51-10.1,2.23-20.32,3.9-30.08,7.43-5.76,2.08-11.03,5.14-15.25,9.65-8.3,8.87-13.99,19.28-18.61,30.5-6.58,15.97-12.08,32.25-16.41,48.96-4.18,16.15-8.74,32.2-12.95,48.34-4.38,16.79-9.22,33.43-14.47,49.97-4.42,13.92-9.06,27.72-14.61,41.27-5.05,12.33-10.68,24.48-14.7,37.23-4.44,14.08-8.58,28.11-6.92,43.32,1.27,11.67,4.79,22.32,10.97,32.1,7.74,12.26,18.12,22.41,28.47,32.28,13.76,13.13,26.56,26.98,38.43,41.79,4.71,5.87,7.82,12.69,12.24,18.64,4.41,5.94,6.89,12.81,10.27,19.23,5.47,10.39,9.25,21.55,13.34,32.54,2.68,7.19,5.03,14.52,7.2,21.88,2.86,9.71,5,19.65,8.21,29.23,2.23,6.66,4.21,13.4,6.3,20.08,4.69,14.97,10.6,29.41,17.45,43.43,10.83,22.17,25.39,42.01,40.91,61.03,11.69,14.33,24.02,28.16,37.76,40.7,11.23,10.25,22.36,20.4,35.62,28.14,10.7,6.25,21.73,11.3,33.81,14.04v-5.83c-6.97-.17-13.03-3.36-19.2-5.99-15.71-6.7-28.9-17.23-41.65-28.29-7.81-6.78-14.78-14.46-21.85-22.02-9.73-10.4-18.44-21.61-27.63-32.44-4.67-5.5-8.51-11.53-12.75-17.31-7.2-9.81-13.57-20.2-19.25-30.92-5.08-9.58-9.08-19.69-12.87-29.9-4.99-13.45-9.14-27.15-13.27-40.86-3.46-11.48-6.2-23.2-10.02-34.55-4.83-14.34-10.03-28.57-16.43-42.34-7-15.06-15.37-29.27-25.25-42.57-11.59-15.59-25.56-29.04-39.29-42.67-8.21-8.15-16.21-16.43-23.3-25.66-12.15-15.81-15.41-33.6-12.84-52.75,1.57-11.65,5.56-22.76,9.97-33.58,7.63-18.76,15.63-37.34,22.02-56.59,5.26-15.84,10.05-31.81,14.48-47.9,4.8-17.44,9.29-34.96,13.88-52.46,2.28-8.69,5.27-17.19,7.56-25.86,3.11-11.76,7.57-22.99,12.02-34.23,3.43-8.64,8.25-16.53,14.09-23.78,5.49-6.81,12.64-11.02,21.03-13.23,15.43-4.07,31.54-5.36,46.43-11.61,11.75-4.93,22.85-10.85,31.99-19.96,7.12-7.1,12.38-15.29,16.71-24.45,6.49-13.74,7.29-27.72,4.6-42.27h-4.17Zm-170,1600c.11-1.33-.24-2.49-1.29-3.35-4.91-4.03-9.4-8.82-14.84-11.92-11.65-6.63-22.01-15.26-34.28-20.95-11.85-5.49-23.06-12.35-34.84-18.01-15.02-7.21-30.33-13.82-45.23-21.33-15.25-7.68-30.33-15.45-43.87-26.07-9.45-7.41-17.97-15.69-24.48-25.62-7.49-11.41-13.24-23.75-15.98-37.37-2.77-13.75-4.21-27.53-2.65-41.52.53-4.79.59-9.8,2.09-14.29,2.84-8.49,4.51-17.27,7.55-25.74,5.01-13.96,11.83-26.97,18.7-39.96,5.21-9.85,11.77-18.99,16.88-28.88,5.81-11.25,11.92-22.31,16.39-34.32,5.89-15.83,7.2-31.9,4.66-48.08-3.32-21.22-10.07-41.66-17.57-61.79-3.85-10.31-8.23-20.41-13.14-30.26-4.56-9.16-9.45-18.2-15.98-26.02-5.14-6.15-10.91-11.76-17.21-16.72-9.02-7.11-19.14-12.33-30.12-14.95-11.09-2.65-22.54-3.94-34.12-2.07-9.66,1.56-19.38,3.2-28.44,6.68-16.07,6.16-30.91,14.75-44.85,24.99-10.6,7.79-20.69,16.15-30.71,24.64-13.27,11.25-25.87,23.27-40.05,33.46-14.4,10.35-29.17,19.81-46.11,25.67-14.48,5.01-29.18,8.12-44.53,7.99-6.92-.06-13.84,0-20.74-.82-9.31-1.12-18.63-2.11-27.96-2.98-5.65-.53-11.12-2.31-16.7-2.75-11.58-.92-22.95-3.19-34.39-4.85-10.39-1.52-20.82-2.28-31.2-3.61v5c10.93,1.4,21.89,2.62,32.82,4.03,12.96,1.67,25.91,3.52,38.78,5.56,14.74,2.34,29.53,3.93,44.33,5.19,15.86,1.35,31.84.38,47.42-3.33,14.56-3.47,28.15-9.61,40.95-17.22,17.7-10.53,33.4-23.82,48.95-37.2,13.19-11.35,26.12-22.98,40.11-33.37,9.65-7.16,19.71-13.61,30.5-18.9,6.3-3.09,12.77-5.75,19.48-7.9,11.49-3.68,23.22-6.37,35.24-5.84,9.26.41,18.48,1.94,27.45,5.13,10.91,3.89,20.24,9.93,28.4,17.91,9.05,8.84,16.5,18.91,21.97,30.38,3.8,7.96,8.16,15.7,11.36,23.89,4.2,10.78,8.37,21.6,11.53,32.76,1.88,6.64,3.98,13.21,5.71,19.89,2.21,8.55,3.25,17.3,4.41,26.06,1.27,9.56-.02,18.8-2.15,27.88-2.66,11.39-7.53,22.04-12.89,32.45-8.02,15.56-17.66,30.19-25.94,45.6-5.54,10.32-10.71,20.82-14.98,31.69-3.47,8.82-6.21,17.92-8.19,27.19-3.44,16.21-4.19,32.44-2.11,48.86,1.59,12.57,5.33,24.46,10.57,35.99,4.43,9.74,10.6,18.36,17.47,26.31,9.24,10.69,20.54,19.34,32.61,26.56,12.77,7.65,25.94,14.63,39.44,20.89,13.08,6.06,26.27,11.9,39.27,18.16,10.29,4.96,20.55,9.99,30.5,15.6,6.91,3.9,14.12,7.39,20.58,11.92,6.67,4.68,13.31,9.41,20.04,14.01,2.01,1.37,3.54,3.11,3.86,5.66h7.5Zm92.5,0c-1.09-4.59-5.15-6.7-8.23-9.48-9.24-8.37-19.7-15.14-30.43-21.38-15.44-8.98-31.04-17.7-46.9-25.92-11.96-6.2-23.89-12.48-36.17-18.08-12.28-5.6-24.32-11.74-36.3-17.95-11.99-6.21-24.28-11.91-35.71-19.15-14.82-9.39-29.11-19.45-40.22-33.3-8.06-10.05-13.58-21.33-16.57-33.95-1.77-7.46-.98-14.91-1.07-22.36-.09-6.85,1.81-13.51,4.46-19.69,4.28-10,9.5-19.57,16.41-28.11,10.64-13.15,23.22-24.36,35.77-35.58,3.89-3.47,8.38-6.27,12.37-9.64,7.16-6.04,14.02-12.43,21.25-18.38,8.13-6.68,15.85-13.82,22.79-21.66,4.24-4.79,7.87-10.39,9.33-16.89,2.04-9.06-1.16-16.97-5.65-24.59-9.36-15.9-21.64-29.69-32.19-44.72-2.21-3.15-4.04-6.59-6.4-9.61-8.4-10.75-15.44-22.41-22.24-34.16-6.13-10.58-11.35-21.7-16.89-32.62-4.99-9.84-10.23-19.57-14.69-29.64-4.47-10.09-9.36-19.99-14.73-29.57-6.3-11.24-12.84-22.34-21.59-32.1-9.64-10.76-20.24-19.5-33.9-24.87-11.55-4.53-23.35-4.79-35.13-3.84-16.84,1.36-32.75,7.16-48.52,12.94-11.61,4.26-22.21,10.72-32.94,16.72-13.23,7.39-25.67,16.22-37.47,25.73-12.57,10.14-24.73,20.79-36.72,31.63-15.04,13.6-29.82,27.5-46.23,39.57-13.62,10.02-28,18.16-44.07,23.56-10.21,3.43-20.7,4.83-31.24,5.31-17.57.8-35.01-1.17-52.41-3.84-15.81-2.43-31.55-5.2-47.37-7.57-9.27-1.39-18.51-3.06-27.9-3.45v5c12.28.66,24.33,2.84,36.45,4.82,17.67,2.89,35.3,6.13,53.17,7.88,15.28,1.5,30.44,3.03,45.87,1.62,15.22-1.38,29.57-5.53,42.92-12.48,14.1-7.34,27.14-16.37,39.51-26.55,18.28-15.05,34.79-32.03,53.19-46.92,12.74-10.31,25.06-21.07,38.93-29.98,11.83-7.59,23.66-15.02,36.46-20.9,12.04-5.53,24.24-10.46,37.07-13.96,13.24-3.61,26.63-5.59,40.22-4.17,22.82,2.38,38.85,15.84,51.99,33.5,4.7,6.32,8.8,13.02,12.75,19.85,5.33,9.18,10.35,18.53,15.07,28.04,6.55,13.22,12.11,26.95,19.02,39.97,8.83,16.65,17.19,33.55,27.86,49.27,6.8,10.02,13.66,20.01,20.69,29.86,9.13,12.8,19.35,24.83,27.43,38.39,7.79,13.09,7.17,21.45.06,31.42-7.47,10.46-17.12,19.2-27.13,27.21-8.82,7.05-17.43,14.35-26.01,21.64-9.43,8.02-19.05,15.84-27.69,24.86-8.83,9.22-17.7,18.22-24.15,29.35-6.64,11.46-11.69,23.56-12.7,36.81-1.4,18.34,2.18,35.41,12.83,51.13,7.8,11.53,17.1,21.21,27.92,29.69,7.18,5.63,14.71,10.85,22.65,15.27,9.15,5.1,18.26,10.33,27.8,14.77,9.34,4.35,18.28,9.57,27.58,14.01,6.92,3.3,13.82,6.63,20.92,9.58,7.07,2.94,13.59,7.21,20.37,10.84,11.8,6.31,23.6,12.66,35.43,18.89,16.54,8.72,32.09,18.84,47.15,29.76,2.81,2.04,6.43,4.06,7.22,8.2h6.67Zm-737.5-1002.5c15.12-.59,30.21.53,45.31.97,5.44.16,10.97.46,16.39,1.17,15.05,1.97,29.98,4.71,44.54,9.02,11.52,3.41,22.7,7.83,33.64,12.87,7.18,3.3,13.95,7.31,20.58,11.51,10.39,6.58,20.37,13.8,29.3,22.32,7.1,6.77,14.56,13.28,20.93,20.69,6.92,8.04,14.04,15.92,20.43,24.46,7.67,10.27,16.17,19.93,24.14,29.98,8.59,10.82,17.96,21,28.04,30.45,9.26,8.68,18.88,17.05,29.6,23.96,9.04,5.83,17.88,12.08,27.69,16.56,10.02,4.59,20.14,8.97,30.34,13.15,10.87,4.44,22.13,6.98,33.39,9.29,12.63,2.59,25.53,3.76,38.61,2.91,10.83-.7,21.35-2.75,31.8-5.26,13.83-3.33,26.9-9,40.27-13.76,15.84-5.64,31.65-11.52,48.02-15.57,13.5-3.34,27.23-5.25,41.03-2.83,16.06,2.82,29.81,10.5,41.66,21.7,10.72,10.12,19.71,21.54,27.37,34.14,6.85,11.27,11.98,23.3,16.41,35.61,4.52,12.55,8.46,25.3,11.89,38.22,2.61,9.84,5.43,19.65,8.33,29.42,4.52,15.19,8.12,30.67,11.85,46.09,3.34,13.79,6.13,27.71,8.35,41.73.99,6.26,2.4,12.56,2.45,18.85.09,11.62.84,23.27-.61,34.9-1.53,12.27-4.27,24.2-8.43,35.81-4.81,13.43-11.2,26.08-18.62,38.28-6.68,10.99-14,21.53-21.86,31.65-8.54,10.98-17.51,21.62-24.88,33.46-5.31,8.54-7.4,17.68-4.02,27.37,4.33,12.46,12.93,22.39,20.89,32.5,7.6,9.67,15.13,19.39,22.59,29.16,8.98,11.75,17.34,23.96,25.29,36.45,6.95,10.93,13.39,22.17,19.49,33.54,7.66,14.3,14.33,29.14,21.11,43.9,4.94,10.73,9.63,21.6,13.93,32.6,3.77,9.65,8.21,19,12.03,28.61,5.11,12.84,10.88,25.37,17.16,37.67,4.46,8.73,9.43,17.2,14.06,25.86,3.95,7.4,7.98,14.77,11.5,22.38,3.15,6.81,7.24,13.24,8.85,20.72h5c0-1.25,0-2.47-.59-3.65-4.5-9.13-8.83-18.35-13.48-27.39-4.74-9.21-10.14-18.09-14.63-27.42-6.09-12.66-12.9-24.96-18.29-37.99-4.83-11.7-10.07-23.24-14.79-34.99-2.61-6.5-5.55-12.86-8.08-19.41-2.82-7.3-6.88-14.13-9.52-21.49-2.68-7.48-6.7-14.26-10.14-21.31-4.64-9.51-9.55-18.91-14.44-28.3-5.18-9.94-10.97-19.45-17.15-28.75-5.87-8.83-11.95-17.54-17.96-26.27-6.56-9.53-13.91-18.39-20.95-27.51-8.61-11.14-17.65-21.97-24.7-34.22-5.3-9.2-5.29-18.33-.09-27.78,4.22-7.66,9.74-14.32,14.79-21.34,4.56-6.33,9.83-12.13,14.45-18.42,3.41-4.65,6.57-9.52,9.97-14.16,7.62-10.41,13.91-21.55,19.61-33.03,5.22-10.51,9.26-21.48,12.26-32.9,3.03-11.54,5.48-23.09,5.36-35.05-.1-9.69.76-19.42-.83-29.05-1.37-8.28-1.93-16.68-3.8-24.9-1.55-6.8-2.92-13.66-4.29-20.48-2.07-10.26-4.41-20.47-7.01-30.61-3.61-14.03-7.92-27.87-11.62-41.88-3.85-14.56-7.98-29.03-12.51-43.4-2.45-7.76-6.08-15.06-8.77-22.67-3.96-11.22-10.19-21.14-16.4-31-6.64-10.55-15.27-19.66-24.48-28.12-8.26-7.6-17.84-13.63-28.26-17.81-16.97-6.8-34.66-6.36-52.1-2.52-18.43,4.05-36.21,10.53-53.87,17.15-14.02,5.25-27.96,10.75-42.54,14.23-14.38,3.43-28.91,5.15-43.83,4.3-11.51-.66-22.72-2.69-33.77-5.42-12.82-3.17-25.26-7.64-37.37-13.06-9.45-4.23-18.79-8.7-27.63-14-10.42-6.25-20.12-13.6-29.64-21.19-13.07-10.41-24.6-22.34-35.16-35.18-6.56-7.98-13.03-16.04-19.51-24.09-7.25-9-14.3-18.18-21.99-26.86-8.08-9.13-16.4-18.05-25.04-26.58-9.6-9.47-20.37-17.69-31.88-24.91-12.05-7.56-24.46-14.5-37.66-19.73-18.38-7.28-37.48-11.96-57.09-14.84-16.6-2.43-33.29-2.81-49.98-3.45-6.79-.26-13.61-.04-20.41-.04v5h0Zm900,919.17c-5.2-.16-8.32-4.24-12.04-6.86-13.6-9.55-26.12-20.46-37.77-32.31-7.72-7.85-15.08-15.98-21.76-24.84-6.57-8.71-12.87-17.58-18.64-26.78-7.76-12.37-15.42-24.82-22.07-37.85-5.07-9.94-10.8-19.58-15.35-29.75-4-8.92-8.47-17.61-12.55-26.48-4.9-10.66-9.86-21.29-13.38-32.47-3.68-11.69-7.04-23.41-8.33-35.79-1.39-13.33.32-26.31,3.1-39.01,2.57-11.76,6.59-23.28,11.2-34.53,5.02-12.24,9.56-24.68,13.97-37.15,5.5-15.52,9.5-31.49,13-47.55,4.23-19.41,4.53-39.2,3.88-58.97-.44-13.65-2.09-27.26-3.55-40.81-1.8-16.69-3.57-33.43-6.08-50.07-1.23-8.14-1.99-16.43-2.67-24.66-.62-7.58-2.38-14.97-2.97-22.57-.66-8.49-2.3-16.92-3.87-25.31-1.98-10.56-4.25-21.06-7.87-31.22-1.97-5.55-3.42-11.32-5.68-16.75-2.44-5.85-5.78-11.32-8.32-17.13-3.19-7.32-7.01-14.31-11.17-21.05-3.24-5.27-5.84-10.88-9.51-15.96-5.11-7.09-9.12-14.97-13.62-22.5-5.99-10.02-12.23-19.89-17.96-30.06-9.32-16.53-17.27-33.76-22.88-51.9-2.72-8.79-5.31-17.64-7.51-26.62-3.89-15.84-8.14-31.72-16.39-45.97-7.51-12.97-16.9-24.11-31.87-29.39-13.4-4.72-27.19.32-33.8,12.93-4.82,9.19-6.8,19.12-8.4,29.21-2.2,13.89-4.21,27.85-8.43,41.29-4.02,12.77-10.16,24.39-18.06,35.39-7.82,10.9-17.66,19.3-27.75,27.67-15.81,13.11-33.79,22.45-53.01,29.24-11.42,4.04-23.3,6.61-35.53,7.54-6.65.5-13.27.67-19.91.66-15.04-.04-29.59-2.61-43.85-7.66-11.41-4.04-22.28-9.17-32.3-15.72-9.77-6.39-19.07-13.49-27.65-21.61-10.48-9.91-20.6-20.15-29.87-31.12-10.97-12.99-22.37-25.6-33.71-38.24-9.14-10.19-19.21-19.55-29.57-28.59-8.77-7.65-18.07-14.56-27.23-21.64-8.93-6.9-18.47-13.01-27.81-19.37-11.62-7.91-23.39-15.59-34.94-23.6-14.67-10.18-28.97-20.85-40.08-35.09-8.43-10.8-11.47-25.74-4.28-39.1,5.6-10.38,12.87-19.27,20.71-27.84,4.28-4.67,8.5-9.42,13.05-13.83,8.35-8.09,17.12-15.76,25.35-23.97,5.96-5.94,12.33-11.43,18.33-17.32,12.76-12.53,26.29-24.24,38.78-37.05,5.51-5.65,10.42-11.88,16-17.41,10.32-10.23,19.67-21.3,27.65-33.31,5.45-8.21,11.22-16.72,11.69-27.37.38-8.75-3.06-15.64-9.53-21.03-8.56-7.14-18.38-11.99-28.9-15.74-11.88-4.24-24.09-7.12-36.36-9.68-13.61-2.84-27.41-4.89-41.17-6.96-11.16-1.68-22.33-3.52-33.53-4.74-10.69-1.17-21.33-2.75-32.05-3.75-11.11-1.04-22.13-2.91-33.21-4.35-8.33-1.08-16.68-2.04-25.03-3.05-2.32-.28-4.65-.55-6.97-.83v-5c10.9.52,21.65,2.36,32.45,3.73,10.12,1.28,20.24,2.47,30.36,3.79,9.02,1.17,18.02,2.51,27.04,3.67,10.39,1.33,20.8,2.48,31.18,3.85,7.38.98,14.73,2.15,22.08,3.34,15.52,2.52,31.07,4.86,46.32,8.8,15.56,4.02,30.69,9.24,44.35,17.78,9.98,6.24,17.62,14.68,18.35,27.2.33,5.64-1.33,11.21-3.7,16.38-7.69,16.79-19.26,30.78-31.55,44.38-8.73,9.66-17.58,19.2-26.63,28.52-9.41,9.69-20.23,18.02-29.52,27.82-5.42,5.72-11.34,10.87-17.09,16.1-8.63,7.83-16.58,16.36-25.34,24-7.34,6.41-13.53,13.87-20.22,20.85-6.56,6.84-12.19,14.59-17.31,22.66-5.17,8.15-6.09,25.25,1.18,34.6,8.15,10.47,17.46,19.67,28.28,27.26,9.23,6.47,18.65,12.72,27.85,19.22,11.05,7.81,22.53,14.98,33.59,22.77,11.27,7.95,22.03,16.53,33.15,24.66,4.21,3.08,8.12,6.72,11.91,10.28,9.98,9.39,19.92,18.85,29.05,29.1,7.61,8.55,15.17,17.15,22.77,25.72,8.81,9.93,17.27,20.2,26.6,29.62,5.41,5.47,10.98,10.9,17.04,15.79,5.69,4.59,11.62,8.83,17.45,13.23,9.15,6.9,19.46,11.44,29.94,15.73,20.26,8.29,41.52,10.67,63.03,8.92,14.08-1.14,27.88-4.5,41.39-9.31,12.66-4.51,24.67-10.23,35.6-17.67,16.46-11.21,31.98-23.7,42.9-40.96,9.67-15.28,15.25-31.97,18.3-49.62,1.57-9.09,2.23-18.39,4.41-27.33,2.55-10.5,5.34-20.99,12.46-29.83,9.23-11.47,24.87-13.31,36.52-8.53,15.67,6.42,26.18,18.51,34.07,33.05,7.62,14.05,12.1,29.22,16.09,44.63,2.06,7.96,4.62,15.87,6.78,23.8,3.47,12.73,8.62,24.66,14.04,36.55,5.9,12.91,13.56,24.83,20.75,37.03,6.45,10.94,13.28,21.65,19.74,32.58,3.42,5.79,6.7,11.72,10.26,17.45,3.69,5.95,6.55,12.42,9.86,18.61,4.68,8.76,8.7,17.83,12.28,27.06,2.74,7.07,4.89,14.41,6.83,21.76,3.77,14.27,6.23,28.83,8.1,43.43,1.31,10.24,2.6,20.52,3.71,30.8,1,9.32,2.4,18.59,3.5,27.9,1.12,9.44,2.1,18.9,3.12,28.35,1.29,11.92,2.66,23.84,3.8,35.77.61,6.33.99,12.67,1.15,19.03.19,7.63.18,15.28.02,22.91-.29,14.25-2.14,28.28-5.33,42.21-2.19,9.56-4.3,19.16-7.42,28.4-2.32,6.86-4.49,13.83-7.25,20.6-2.32,5.68-4.77,11.43-6.45,17.37-1.93,6.83-5.38,13.03-7.59,19.74-5,15.18-9.77,30.31-11.08,46.44-1.38,16.92,2.29,32.83,7.11,48.75,4.21,13.91,10.25,27.06,16.18,40.23,6.46,14.34,13.5,28.43,20.92,42.32,7.36,13.78,15.13,27.3,22.98,40.8,6.73,11.58,14.41,22.45,22.52,33.09,12.48,16.38,27.14,30.49,42.99,43.56,6.61,5.45,13.72,10.22,20.22,15.79,1.2,1.03,2.53.97,3.9.98v5.83h0Z"/>
      <path class="cls-1" d="m573.71,508.04c9.87,9.98,22.1,12.02,35.59,7.44,10.7-3.64,19.49-9.76,26.03-18.8,10.75-14.87,11.58-30.75,2.23-46.94-7.48-12.95-18.78-21.23-33.18-25.01-13.42-3.52-25.61-.72-35.28,9.38-5.49,5.74-8.36,13.19-9.97,21.06-.73,3.58-.82,7.13-.94,10.79,1.13,15.51,4.17,30.6,15.53,42.08Zm53.88-76.69c14.29,11.85,22.87,26.58,20.75,45.98-1.58,14.4-9.88,24.98-20.37,33.8-6.18,5.19-13.72,8.35-21.76,10.47-8.8,2.33-17.09,1.58-24.9-2.35-11.68-5.87-18.84-15.97-23.14-28.01-4.52-12.67-6.25-25.6-3.2-39.08,4.87-21.49,21.21-34,40.21-33.83,9.75,0,22.28,4.6,32.42,13.01Zm-353.13,1037.88c9.96-4.91,19.49-10.6,28.07-17.65,11.71-9.6,20.88-21.02,23.13-36.62,1.02-7.03-1.57-13.44-4.83-19.41-4.97-9.12-12.7-15.73-21.74-20.41-6.33-3.28-13.35-5.41-20.43-6.67-11.29-2-22.29-.43-32.66,4.4-10.68,4.97-19.39,12.45-26.69,21.73-6.72,8.54-12.39,17.81-15.98,27.9-4.1,11.51-7.1,23.6-3.91,36.02,3.83,14.94,12.31,20.45,28.18,22.3,1.23.14,2.5.02,3.75.02,15.25-.63,29.53-4.91,43.12-11.6h0Zm-49.41,16.51c-1.9-.26-3.74-1-5.63-1.37-18.57-3.64-27.15-21.95-25.93-37.84.81-10.55,2.53-21.04,7.46-30.65,2.58-5.03,4.76-10.36,7.95-14.98,4.44-6.43,9.52-12.38,14.9-18.15,8.01-8.61,17.85-13.83,28.58-17.38,7.39-2.44,15.19-3.24,23.23-2.18,8.6,1.14,16.86,3.36,24.47,7.09,8.54,4.19,15.79,10.45,21.69,18.12,10.55,13.73,11.19,30.11,2.61,45.29-2.91,5.15-6.86,9.15-10.69,13.45-6.61,7.42-14.44,13.14-22.82,18.3-5.89,3.62-12.18,6.43-18.26,9.65-13.24,7.02-27.55,9.35-42.15,10.71-1.81,0-3.64.19-5.41-.05h0Zm10.09-398.16c6.17,12.92,16.15,21.49,30.56,22.12,10.55.46,19.98-4.48,27.77-11.91,11.99-11.42,20.41-25.17,27.61-40,5.71-11.76,9.29-24.19,13.08-36.5,3.75-12.18,5.81-24.89,7.65-37.58,1.18-8.12,1.79-16.21,1.51-24.37-.33-9.3-1.76-18.58-6.67-26.54-7.47-12.12-20.85-19.05-36.22-13.97-12.26,4.05-20.9,12.46-28.85,22.07-9.21,11.14-15.59,23.97-22.23,36.61-3.18,6.04-5.39,12.65-7.83,19.09-2.75,7.23-5.32,14.49-6.94,22.01-2.61,12.1-6.47,24.05-5.3,36.47-.69,11.47.98,22.29,5.86,32.51h0Zm111.54-104.27c-1.55,12.33-3.68,24.59-7.16,36.5-3.57,12.17-7.02,24.39-12.31,36.03-4.58,10.08-9.72,19.82-15.93,28.9-5.12,7.5-11.56,14.06-18.77,19.68-10.45,8.15-21.89,13.16-35.41,8.9-7.73-2.44-14.13-6.78-19.43-13.28-5.83-7.15-9.67-15.13-11.68-23.83-2.53-10.97-2.26-22.17-1.09-33.42,1.69-16.36,5.99-32.09,11.74-47.31,6.28-16.6,13.63-32.75,24.1-47.4,7.68-10.75,15.2-21.36,26.68-28.46,6.78-4.19,14.08-7.58,21.98-7.5,15.09.17,25.98,8.08,32.99,21.14,4.9,9.12,5.37,19.32,6,27.65-.07,8.69-.85,15.54-1.71,22.4h0Zm5.5-830.12c-13.44,7.97-21.74,19.93-25.59,35.13-2.29,9.03-3.44,18.13-3.24,27.42.28,13.16,2.47,25.97,6.19,38.64,4.73,16.1,11.34,31.3,20.43,45.33,10.01,15.45,21.81,29.3,38.45,38.11,10.82,5.73,22.3,6.7,34.2,4.24,11.36-2.35,21.11-8.05,30.36-14.63,13.99-9.95,27.06-21.04,39.08-33.3,6.48-6.62,12.53-13.7,17.38-21.62,8.82-14.42,8.28-29.13.53-43.8-5.31-10.04-12.07-19.03-19.8-27.36-12.66-13.63-26.93-25.26-42.18-35.89-10.39-7.24-21.37-13.13-33.27-17.14-9.04-3.04-18.46-4.74-28.64-4.07-12.03-1.23-23.38,2.73-33.88,8.95h0Zm41.72,192.52c-16.71-6.17-29-18.11-39.6-31.66-12.82-16.39-22.35-34.63-28.66-54.67-6.81-21.62-9.44-43.38-5.6-65.78,1.97-11.5,6.33-22.14,13.84-31.02,7.82-9.24,17.4-16.03,29.32-19.84,13.82-4.41,27.55-5.23,41.59-2.38,15.04,3.05,28.44,10.03,41.41,17.92,12.92,7.85,24.42,17.59,35.72,27.53,7.78,6.84,14.77,14.59,20.94,22.87,5.73,7.69,10.93,15.83,14.65,24.88,4.98,12.1,4.9,23.91-.59,35.6-3.57,7.62-8.69,14.21-14.31,20.56-7.25,8.2-15.02,15.79-23.14,23.06-9.65,8.64-19.86,16.53-30.92,23.36-11.58,7.15-23.57,12.64-38.9,12.22-4.57.47-10.22-.61-15.75-2.65h0Zm132.65,17.19c-7.84,6.01-14.86,12.78-21.26,20.22-11.72,13.62-21.07,28.73-27.09,45.69-4.25,11.97-6.99,24.3-8.36,37.03-1.46,13.61-1.58,27.24-2.44,40.86-1.14,18.15-3,36.24-6.34,54.17-2.65,14.22-5.75,28.41-6.72,42.86-1.11,16.6-.64,33.11,9.59,47.42,8.07,11.29,18.96,18.17,32.62,21.45,14.62,3.51,28.44.81,41.77-4.39,9.31-3.63,18.14-8.65,26.27-14.76,12.95-9.72,24.79-20.71,37.13-31.14,15.27-12.91,30.11-26.32,45.7-38.87,10.62-8.55,21.23-17.2,31.31-26.48,8.93-8.22,18.05-16.27,25.87-25.51,8.73-10.32,16.33-21.6,19.7-34.98,4-15.88.78-30.97-6.12-45.47-8.31-17.45-20.42-32.04-33.95-45.65-10.34-10.4-21.26-20.04-32.84-29.08-11.43-8.93-23.15-17.24-36.32-23.31-11.88-5.48-24.08-9.84-36.57-8.79-20.49-.68-36.84,7.13-51.94,18.72h0Zm-61.49,101.5c1.52-15.45,4.95-30.43,11.74-44.56,5.03-10.45,10.39-20.67,17.18-30.11,7.89-10.99,17.34-20.52,27.68-29.11,5.27-4.38,11.04-8.4,17.13-11.48,9.31-4.71,18.95-8.44,29.68-9.52,12.66-1.28,24.95-.19,36.73,3.97,12.84,4.53,24.77,11.13,35.97,19,11.98,8.42,23.52,17.44,34.12,27.46,17.09,16.15,33.48,33.01,44.96,53.94,9.24,16.85,13.14,34.55,8.82,53.49-1.24,5.43-3.92,10.49-6.46,15.55-3.88,7.71-8.78,14.72-14.18,21.31-8.33,10.15-18.1,18.98-27.89,27.68-10.73,9.54-22.13,18.32-33.12,27.56-14.57,12.26-29.26,24.4-43.49,37.05-15.68,13.95-31.06,28.07-49.34,38.86-14.21,8.39-29.11,13.63-45.41,13.44-10.81-.12-21.35-2.5-31.09-8.4-19.15-11.59-27.73-28.76-28.9-50.42-.75-14.03,1.32-27.87,3.6-41.59,2.22-13.31,4.68-26.57,6.63-39.93,1.78-12.16,2.26-24.38,2.72-36.62.96-12.52,1.7-25.07,2.92-37.57h0ZM0,1154.17c1.76.03,2.69,1.36,3.68,2.47,12.16,13.53,21.96,28.71,29.94,44.97,7.29,14.84,13.62,30.07,16.81,46.51,3.82,19.68,2.46,38.84-3.62,57.84-7.78,24.32-20.46,45.54-39.12,63.12-2.4,2.26-4.06,5.32-7.69,5.93v-6.67c3.11-1.05,5.36-3.38,7.56-5.57,5.86-5.84,10.99-12.23,15.6-19.2,3.79-5.72,7.48-11.54,10.61-17.55,3.21-6.16,5.61-12.8,7.82-19.51,5.33-16.15,7.21-32.53,5.29-49.27-1.88-16.4-7.35-31.87-14.21-46.81-6.67-14.55-14.94-28.19-24.36-41.11-2.2-3.01-4.17-6.6-8.31-7.64v-7.5ZM0,405c4.31-.28,8.01,1.87,11.97,3,11.76,3.36,22.5,8.79,32.52,15.71,8.83,6.09,16.28,13.53,22.85,22.06,6.74,8.76,11.43,18.5,13.24,29.1,3.16,18.4,1,36.32-8.54,52.9-12.8,22.25-31.41,34.71-57.58,34.73-4.84,0-9.6-1.38-14.47-.84v-5.83c9.85,1.68,19.76,2.34,29.53-.13,9.72-2.46,18.17-7.09,25.62-14.21,6.06-5.78,10.81-12.25,14.22-19.59,8-17.26,10.12-35.09,3.89-53.54-3.64-10.77-8.79-20.56-17.1-28.43-9.14-8.65-18.86-16.55-30.71-21.28-8.26-3.29-16.15-7.88-25.44-7.83v-5.83Zm900-31.67c-1.09.13-2.24.09-3.27.42-8.65,2.74-17.65,3.21-26.57,3.65-18.8.94-36.71-3.35-54.1-10.23-13.95-5.52-25.89-14.01-36.82-24.13-5.57-5.15-9.76-11.21-13.59-17.7-6.94-11.75-8.26-24.98,2.75-35.87,3.74-3.7,7.86-6.66,12.52-9.2,7.14-3.89,14.85-5.77,22.55-7.73,10.61-2.71,21.58-2.83,32.42-3.75,11.17-.95,22.41-.73,33.59-.31,10.19.39,20.35,1.53,30.52,2.33v5c-9.75-.83-19.48-2.1-29.25-2.39-15.09-.46-30.2-.32-45.26.8-5.62.42-11.26,1.09-16.76,2.27-8.89,1.9-17.69,4.2-25.94,8.26-18.87,9.29-21.72,24.46-12.11,40.23,8.5,13.94,20.77,24.27,35.08,31.96,10.71,5.76,22.15,9.79,34.03,12.59,15.28,3.6,30.58,3.65,46.06,1.57,4.81-.65,9.13-3.49,14.15-2.78v5h0Zm-295.83,1226.67c-.53-4.87.62-9.64.9-14.47.44-7.58,1.39-15.25,3.71-22.38,3.84-11.77,10.15-22.31,19.35-30.94,4.55-4.26,9.52-7.97,14.27-11.94,5.66-4.73,12.14-8.14,18.05-12.43,6.12-4.44,13.07-7.66,19.8-11.19,7.35-3.85,14.74-7.88,22.55-10.22,10.09-3.02,20.43-5.8,31.34-4.86,12.52,1.08,23.98,5.06,34.47,11.71,7.49,4.76,13.91,10.91,19.53,17.8,7.9,9.67,14.15,20.46,18.93,31.89,4.81,11.52,9.17,23.3,11.77,35.6,1.51,7.14,4.01,14.06,4.5,21.42h-5c.52-3.28-1.04-6.2-1.58-9.29-1.74-10.09-4.87-19.85-8.1-29.46-2.83-8.42-6.22-16.71-10.09-24.83-7.86-16.52-18.94-29.98-34.14-40.06-12.65-8.39-26.91-11.11-41.59-9.41-22.05,2.55-40.99,13.58-59.58,24.72-9.07,5.44-17.92,11.46-25.97,18.46-9.16,7.96-17.32,16.73-21.59,28.37-4.92,13.39-6.22,27.38-6.53,41.52h-5ZM900,96.67c-1.88-.21-3.49.55-5.16,1.3-11.84,5.29-23.65,10.64-35.58,15.7-7.62,3.23-15.44,6-23.2,8.9-7.99,3-16.11,5.65-24.33,7.94-11.13,3.09-22.47,5.53-33.92,7.36-14.05,2.24-28.16,3.97-42.34,4.52-18.54.71-37.03-.18-55.43-3.1-18.1-2.87-35.55-7.72-52.29-15.16-13.38-5.95-25.74-13.57-36.54-23.46-11.62-10.65-19.48-23.84-24.93-38.61-5.51-14.92-6.21-29.91-1.19-44.97,1.95-5.86,4.9-11.4,7.4-17.08h5c-.09,2.12-.79,4.01-1.95,5.81-3.34,5.16-5.43,10.98-7.02,16.76-2.03,7.43-2.21,15.11-1.2,22.98,2.05,15.85,8.78,29.52,18.22,41.95,6.46,8.49,14.71,15.11,23.67,21.06,9.71,6.45,20.05,11.39,30.85,15.48,13.07,4.95,26.63,7.97,40.42,10.29,9.7,1.63,19.45,2.6,29.18,3,10.34.43,20.73.22,31.14-.45,16.28-1.05,32.35-3.18,48.35-6.07,13.61-2.47,26.78-6.65,39.87-10.97,7.43-2.45,14.74-5.35,22.04-8.21,12.59-4.93,25.02-10.29,37.24-16.07,3.66-1.73,7.4-3.76,11.68-3.88v5h0Zm-30,1503.33c.81-8.28-.59-16.51-1.19-24.68-1.37-18.53-3.85-36.99-6.43-55.4-2.34-16.62-5.86-33-11.24-48.99-4.74-14.08-11.53-27.04-19.66-39.32-9.39-14.19-21.43-26.24-32.67-38.91-9.05-10.2-17.68-20.49-23.17-33.2-3.3-7.64-3.06-15.13-.64-22.6,3.28-10.12,10.72-17.51,18.66-23.92,14.23-11.49,31.04-18.62,47.94-25.09,8.29-3.18,16.66-6.48,25.53-8.25,10.95-2.18,21.7-5.31,32.88-6.31v5c-10.44,1.85-20.86,3.59-31.15,6.42-20.07,5.53-39.45,12.4-57.6,22.79-10.91,6.25-20.87,13.32-28.01,23.81-5.71,8.39-6.66,17.52-2.81,26.83,3.72,9,9.78,16.48,15.87,24.07,9.18,11.44,19.85,21.53,28.85,33.12,4.31,5.55,9.09,10.85,12.79,16.77,6.42,10.24,12.36,20.83,16.39,32.31,3.38,9.62,6.29,19.34,8.42,29.36,1.98,9.31,4.12,18.63,5.37,28.01,1.96,14.71,3.86,29.45,4.64,44.31.6,11.3,2.6,22.51,2.24,33.87h-5ZM0,1028.33c8.91-.49,15.94,4.3,22.48,9.11,8.29,6.09,14.32,14.62,19.39,23.49,7.2,12.61,12.75,26.07,18.15,39.56,4.39,10.96,8.8,21.92,13.2,32.89,4.46,11.13,9.18,22.17,13.3,33.43,4.3,11.74,8.79,23.4,12.82,35.25,2.97,8.74,5.83,17.47,7.81,26.48,3.37,15.33,4.54,30.83,2.78,46.45-2.17,19.31-7.66,37.81-15,55.69-5.17,12.6-11.66,24.62-18.31,36.55-4.72,8.46-9.87,16.67-15.63,24.32-12.33,16.38-26.58,31.13-42.94,43.59-5.53,4.21-10.85,9.14-18.04,10.7v-5.83c2.14.16,3.85-.42,5.72-1.75,7.89-5.67,15.71-11.41,22.8-18.09,8.24-7.77,16.75-15.4,23.46-24.53,8.72-11.85,17.02-23.99,24.01-37.07,5.99-11.22,11.67-22.58,16.18-34.38,6.39-16.74,11.51-33.87,13.1-51.99,1.07-12.12.51-24.32-1.66-36.29-1.93-10.66-4.97-21.12-8.43-31.47-3.33-9.94-6.64-19.91-10.54-29.6-5.48-13.63-10.87-27.31-16.34-40.95-4.03-10.06-8.11-20.1-12.17-30.15-3.88-9.59-7.59-19.25-12.29-28.48-5.78-11.36-11.04-23.11-21.29-31.4-6.67-5.39-13.48-10.67-22.55-11.35v-4.17H0ZM0,325.83c4.1.76,8.21.02,12.31,0,15.37-.09,30.7.49,46.06,1.5,14.42.95,28.53,2.67,42.22,7.46,8.18,2.86,15.69,7.09,22.44,12.26,9.41,7.2,17.97,15.37,25.09,25.08,6.81,9.28,12.01,19.32,15.13,30.18,4.42,15.39,4.94,31.21,3.58,47.24-1.42,16.74-5.11,32.96-9.13,49.15-2.39,9.64-6.22,18.89-9.11,28.37-4.39,14.39-9.19,28.65-14.97,42.46-7,16.74-13.81,33.6-23.15,49.37-6.8,11.49-14.32,22.29-23.49,31.85-8.01,8.35-17.15,15.25-27.6,20.73-10.82,5.67-22,8.62-33.98,9.36-8.69.54-16.93-2.26-25.4-3.33v-5.83c6.75,1.25,13.2,3.81,20.15,4.21,13.91.8,26.73-2.95,38.75-9.43,14.2-7.65,25.76-18.54,35.2-31.52,6.45-8.87,12.33-18.12,17.37-27.98,3.76-7.36,7.19-14.82,10.44-22.39,5.33-12.41,10.14-25,14.83-37.67,4.6-12.42,8.87-24.96,12.87-37.55,3.49-10.99,6.38-22.23,8.46-33.65,2.57-14.13,4.8-28.24,4.48-42.67-.09-4.02-.54-7.99-.83-11.98-.89-12.45-4.42-24.09-10.29-35.02-4.67-8.69-10.98-16.12-17.73-23.32-6.1-6.5-12.99-12.1-20.46-16.55-11.54-6.87-24.24-10.68-37.84-12.31-13.61-1.63-27.23-2.24-40.85-2.89-11.49-.55-23.04-.11-34.56-.11v-5h0Zm900,566.67c-1.38,0-2.71-.05-3.91.98-7.44,6.39-15.23,12.41-22.34,19.15-12.77,12.09-23.86,25.68-33.87,40.14-7.85,11.33-15.26,22.98-23.42,34.08-8.81,11.97-18.98,22.46-33.07,28.68-11.34,5-22.66,5.09-34.23,2.03-12.18-3.21-22.75-9.7-32.63-17.31-9.45-7.28-17.9-15.62-25.63-24.72-10.71-12.59-20.27-25.81-26.43-41.38-6.84-17.28-4.89-34.14,1.22-50.93,4.64-12.75,11.97-24.2,18.77-35.81,6.74-11.51,14.49-22.44,21.38-33.9,4.82-8.01,10.2-15.69,15.34-23.5,10.06-15.27,20.76-30.04,34.28-42.51,8.65-7.98,18.24-14.75,28.79-19.88,8.91-4.33,18.42-7,28.3-8.77,15.43-2.77,30.81-2.82,46.27-1.29,7.39.73,14.79,1.77,22.06,3.28,6.35,1.33,12.67,2.68,19.13,3.33v5.83c-6.46-1.38-12.87-3.26-19.4-4.03-9.03-1.06-17.88-3.09-27-3.74-14.01-1.01-27.91-1.11-41.66,1.8-10.77,2.28-21.27,5.52-30.98,11-10.04,5.67-19.23,12.53-27.04,20.91-10.44,11.22-19.41,23.6-27.94,36.41-10.24,15.39-19.77,31.21-29.83,46.69-9.7,14.93-19.29,29.92-25.72,46.63-4.47,11.61-6.5,23.52-4.23,36.02,2.13,11.7,7.43,21.84,13.98,31.58,9.76,14.51,21,27.54,34.55,38.7,12.84,10.57,26.02,19.57,43.28,21.69,14.07,1.73,25.97-2.34,36.64-10.57,9.78-7.54,16.88-17.69,23.99-27.65,6.62-9.28,12.8-18.87,19.11-28.37,6.97-10.5,15.04-20.17,23.65-29.25,8.41-8.87,17.76-16.92,27.13-24.81,3.37-2.84,6.75-6.25,11.48-7.16v6.67h0Zm0,340c-3.86.13-7.7.2-11.58.67-19.45,2.36-38.75,5.72-57.85,9.83-13.34,2.87-26.78,5.33-40.06,8.56-9.34,2.27-18.93,3.5-28.5,4.79-13.04,1.75-26.12,1.9-38.99.76-15.04-1.33-29.81-5.01-44.19-10.2-13.67-4.93-26.94-10.61-40.04-16.83-13.85-6.58-27.74-13.06-42.89-16.34-10.57-2.29-21.81,3.17-26.88,12.65-4.86,9.09-5.94,18.9-6.41,28.8-.37,7.71,1.06,15.42,1.42,23.13.48,10.17,2.32,20.15,3.8,30.15,2.43,16.5,5.92,32.84,8.79,49.27,2.87,16.43,5.85,32.85,8.17,49.35,1.49,10.6,3.12,21.22,3.59,31.96.31,6.89.88,13.78,1.76,20.62,2.13,16.62,2.33,33.44.58,50.11-1.39,13.34-6.68,25.12-15.43,35.44-6.47,7.63-14.11,13.93-21.46,20.6-10.68,9.68-22.69,17.48-34.61,25.44-3.7,2.47-8.41,3.87-10.06,8.74h-9.17c.93-2.87,3.29-4.46,5.71-5.69,7.67-3.92,14.62-9.04,21.48-14.05,10.98-8.02,22.17-15.81,32.02-25.4,7.16-6.97,14.16-13.76,19.09-22.58,4.66-8.34,7.94-17.21,8.18-26.59.33-13.14.64-26.3-.49-39.49-1.36-15.74-3.09-31.41-4.87-47.1-1.18-10.4-2.98-20.68-4.47-31-2.41-16.64-5.52-33.18-8.46-49.74-3.81-21.42-8.04-42.77-9.76-64.5-1.15-14.51-1.59-28.95,3.24-43.02,2.68-7.82,7.04-14.41,14.2-18.66,7.53-4.47,15.74-4.31,24.08-2.64,10.67,2.14,20.26,7.1,30.1,11.36,11.46,4.97,22.72,10.4,34.2,15.33,7.73,3.32,15.82,5.73,23.8,8.44,12.64,4.3,25.59,7.25,38.79,7.62,16.37.46,32.78,1.02,49.09-2.86,11.22-2.67,22.68-4.55,33.95-7.2,4.54-1.07,9.15-2.29,13.7-2.84,8.67-1.04,17.04-3.39,25.55-5.03,13.93-2.68,28.04-4.09,41.97-6.7,2.81-.53,5.95-1.59,8.94-.17v5h0Zm0-1074.17c-5.42.07-10.5,1.96-15.62,3.31-7.22,1.9-14.51,3.39-21.78,4.99-16.29,3.59-32.63,6.93-48.96,10.3-4.31.89-8.66,1.58-13.01,2.2-7.5,1.07-15.01,2.04-22.53,3.01-7.52.97-15.02,2.41-22.57,2.72-9.77.4-19.54,1.27-29.2,2.28-17.49,1.82-35.05,1.51-52.54,2.77-6.05.44-12.17-.46-18.22-.6-19.49-.45-38.73-1.78-57.66-7.17-7.88-2.24-15.51-5.06-22.91-8.22-12.29-5.26-23.66-12.5-34.32-20.56-12.08-9.15-23.82-18.78-35.36-28.62-9.24-7.89-18.32-15.93-27.96-23.39-13.43-10.39-27.27-19.85-43.07-26.44-14.02-5.85-28.62-7.95-43.54-9.15-8.15-.66-16.26.26-24.38,0-5.57-.18-11.04.65-16.55,1.12-10.3.88-20.57,2.05-30.85,3.1-8.92.91-17.88,1.48-26.74,2.8-12.7,1.9-25.5,2.71-38.27,3.7-8.89.69-17.82,1.45-26.88.33-9.2-1.14-16.95-4.61-23.62-10.74-6.89-6.34-11.51-14.4-16.16-22.39-7.85-13.49-15.08-27.35-24.11-40.13-.81-1.14-.68-2.36-.72-3.59h5.83c-.17,1.87.24,3.6,1.43,5.08,5.87,7.34,10.01,15.79,14.86,23.76,6.1,10.02,11.11,20.68,18.46,29.94,5.77,7.26,13.16,11.37,22.27,12.92,10.11,1.72,20.17.3,30.21-.25,4.25-.23,8.56-.3,12.82-.78,9.29-1.05,18.54-2.53,27.86-3.05,9.53-.54,18.97-1.85,28.41-2.91,13.3-1.49,26.61-2.81,39.94-3.76,9.89-.7,19.88-1.02,29.78-.03,6.71.67,13.52.93,20.08,2.67,8.13,2.16,16.27,4.27,23.96,7.9,7.86,3.71,15.94,7.06,22.98,12.14,9.48,6.85,18.9,13.77,27.96,21.23,8.64,7.11,17.17,14.35,25.71,21.57,13.81,11.66,27.62,23.25,42.99,32.86,14.33,8.97,29.71,15.65,46.08,19.61,18.86,4.56,38.25,5.31,57.56,6.05,7.6.29,15.21-.26,22.82-.59,11.74-.51,23.47-.94,35.21-1.69,18.3-1.18,36.5-3.1,54.71-5.1,15.77-1.73,31.41-4.24,46.97-7.32,9.59-1.9,19.17-3.89,28.74-5.88,9.53-1.99,19-4.27,28.52-6.31,7.12-1.52,14.11-3.65,21.34-4.71v5h0Zm0,917.5c-1.39.05-2.81-.09-4.15.17-16.52,3.25-32.64,8.1-48.89,12.4-9.88,2.61-19.81,4.94-29.9,6.61-8.98,1.49-17.97,2.73-27.04,3.66-10.62,1.09-21.16.61-31.28-1.73-13.55-3.14-26.18-8.85-38.21-16.31-13.53-8.39-25.48-18.58-37.31-28.97-11.19-9.82-21.48-20.61-32.44-30.72-13.43-12.4-26.48-25.23-39.69-37.88-11.21-10.73-22.2-21.69-32.14-33.66-6.56-7.89-12.51-16.01-16.75-25.54-5.78-13-4.73-25.66.5-38.16,5.47-13.07,14.7-23.62,24.69-33.45,14.41-14.18,29.1-28.08,43.44-42.33,10.19-10.12,19.92-20.67,28.58-32.18,9.85-13.09,20.24-25.78,29.89-39.02,7.98-10.95,16.48-21.39,25.73-31.27,7.28-7.77,14.82-15.26,23.21-21.75,14.47-11.21,30.44-19.9,47.87-25.53,17.45-5.64,35.56-7.83,53.81-8.43,20.07-.66,40.1.53,60.08,2.43v5c-11.28-.83-22.56-2.2-33.86-2.36-13.01-.19-26.03-.65-39.07.57-11.59,1.08-23.07,2.75-34.16,6.07-17.65,5.29-34.29,12.61-48.99,24.3-10.51,8.36-20.57,17.06-29.35,27.19-10.47,12.09-20.26,24.72-29.54,37.77-6.14,8.63-12.58,17.08-19.36,25.22-10.06,12.09-20.06,24.24-31.53,35.12-14.55,13.8-28.7,28.01-43.01,42.07-8.7,8.55-16.34,17.81-22.02,28.78-4.55,8.79-6.54,17.83-5.41,27.49,1.44,12.33,8.47,22.26,15.8,31.51,6.75,8.51,14.21,16.57,22.06,24.21,12.31,11.99,24.78,23.8,37.26,35.61,16.66,15.76,32.74,32.14,49.72,47.53,11.32,10.26,23.16,19.99,36.5,27.81,11.43,6.7,23.49,11.45,36.29,14.33,16.65,3.74,33.28,1.44,49.8-1.27,12.5-2.05,24.79-5.04,37.04-8.33,7.8-2.1,15.57-4.4,23.46-6.26,9.4-2.22,18.69-4.88,28.36-5.68v5h0Zm0,120.83c-1.91.28-3.81.59-5.72.82-10.67,1.29-21.36,2.43-32.01,3.89-9.56,1.31-19.06,3.02-28.6,4.46-10.35,1.57-20.75,2.86-31.07,4.6-10.62,1.79-21.3,2.84-32.01,3.83-7.48.69-14.87.16-22.31-.02-8.5-.19-16.92-1.59-24.86-3.88-8.91-2.57-17.97-4.96-26.51-9.13-11.27-5.51-22.4-11.19-32.91-18.03-9.72-6.32-18.54-13.92-28.06-20.49-13.28-9.16-25.24-20.04-39.17-28.42-16.35-9.83-32.91-17.57-52.62-16.04-8.9.69-17.24,3.05-24.58,7.92-12.29,8.17-20.84,19.69-26.31,33.22-5.76,14.26-9.65,28.93-10.21,44.61-.38,10.6.26,20.9,1.98,31.26,2.59,15.58,7.54,30.52,12.35,45.49,2.62,8.15,5.72,16.16,7.99,24.4,2.2,7.99,4.79,15.89,7.44,23.68,4.23,12.44,6.58,25.25,9.69,37.92,2.51,10.23,3,20.74,3.94,31.16.76,8.34,1.64,16.77.87,25.15-.92,10.06-1.79,20.11-3.72,30.12-1.58,8.16-3.34,16.32-6.21,23.95-4.8,12.76-10.7,25.19-19.98,35.57-5.72,6.4-11.11,13.15-17.76,18.6-11.42,9.35-23.12,18.29-36.18,25.41-8.74,4.77-17.68,9.09-26.67,13.29-8.6,4.02-17.4,7.63-26.15,11.32-9.17,3.86-18.53,7.31-27.54,11.53-3.78,1.77-8.55,2.61-10.6,7.15h-10c.67-2.65,2.47-4.26,4.96-5.08,8.52-2.8,16.27-7.38,24.51-10.84,11.14-4.69,22.34-9.3,33.41-14.2,10.34-4.58,20.75-9.07,30.72-14.36,12.05-6.39,23.59-13.76,34.2-22.39,14.6-11.88,27.11-25.55,35.77-42.51,5.88-11.53,9.56-23.7,12.38-36.3,2.55-11.41,3.66-22.93,3.94-34.49.45-18.67-1.51-37.18-5.67-55.43-2.11-9.26-3.36-18.77-6.21-27.78-5.12-16.14-10.69-32.16-15.95-48.25-5.89-18-11.81-36.05-14.84-54.93-2.33-14.49-2.81-28.89-.32-43.24,2.47-14.25,6.33-28.06,13.61-40.91,7.55-13.33,16.89-23.94,31.05-30.79,11.4-5.52,23.09-6.15,34.81-4.81,15.87,1.81,29.81,9.58,43.1,18.04,13.89,8.83,26.57,19.35,39.6,29.38,10.51,8.09,20.88,16.52,32.33,23.1,14.45,8.3,29.37,15.89,45.75,20.03,9.79,2.47,19.58,4.42,29.71,5.13,7.09.5,14.03.18,21.06-.1,11.62-.46,23.02-2.56,34.52-3.9,7.38-.86,14.65-2.82,22.04-3.58,12.36-1.27,24.53-3.73,36.81-5.5,12.03-1.74,24.01-3.68,36.19-3.78v4.17h0ZM85,0c.14,1.36.66,2.8.37,4.06-1.57,6.71-1.49,13.38-.42,20.17,1.62,10.25,5.51,19.64,11.28,28.07,6.68,9.77,15.53,17.35,25.82,23.39,10.9,6.39,22.81,9.84,34.93,12.51,10.1,2.23,20.32,3.9,30.08,7.43,5.76,2.08,11.03,5.14,15.25,9.65,8.3,8.87,13.99,19.28,18.61,30.5,6.58,15.97,12.08,32.25,16.41,48.96,4.18,16.15,8.74,32.2,12.95,48.34,4.38,16.79,9.22,33.43,14.47,49.97,4.42,13.92,9.06,27.72,14.61,41.27,5.05,12.33,10.68,24.48,14.7,37.23,4.44,14.08,8.58,28.11,6.92,43.32-1.27,11.67-4.79,22.32-10.97,32.1-7.74,12.26-18.12,22.41-28.47,32.28-13.76,13.13-26.56,26.98-38.44,41.79-4.7,5.87-7.82,12.69-12.24,18.64-4.41,5.94-6.89,12.81-10.27,19.23-5.47,10.39-9.25,21.55-13.34,32.54-2.68,7.19-5.03,14.52-7.2,21.88-2.86,9.71-5,19.65-8.21,29.23-2.23,6.66-4.21,13.4-6.3,20.08-4.69,14.97-10.6,29.41-17.45,43.43-10.83,22.17-25.39,42.01-40.91,61.03-11.69,14.33-24.02,28.16-37.76,40.7-11.23,10.25-22.36,20.4-35.62,28.14-10.7,6.25-21.73,11.3-33.81,14.04v-5.83c6.97-.17,13.03-3.36,19.2-5.99,15.71-6.7,28.9-17.23,41.65-28.29,7.81-6.78,14.78-14.46,21.85-22.02,9.73-10.4,18.44-21.61,27.63-32.44,4.67-5.5,8.52-11.53,12.75-17.31,7.2-9.81,13.56-20.2,19.25-30.92,5.08-9.58,9.08-19.69,12.87-29.9,4.99-13.45,9.14-27.15,13.28-40.86,3.46-11.48,6.19-23.2,10.02-34.55,4.83-14.34,10.03-28.57,16.44-42.34,7-15.06,15.37-29.27,25.25-42.57,11.59-15.59,25.56-29.04,39.29-42.67,8.21-8.15,16.21-16.43,23.3-25.66,12.15-15.81,15.41-33.6,12.84-52.75-1.56-11.65-5.56-22.76-9.97-33.58-7.63-18.76-15.63-37.34-22.03-56.59-5.26-15.84-10.06-31.81-14.48-47.9-4.8-17.44-9.29-34.96-13.88-52.46-2.28-8.69-5.27-17.19-7.56-25.86-3.11-11.76-7.56-22.99-12.02-34.23-3.43-8.64-8.25-16.53-14.09-23.78-5.49-6.81-12.64-11.02-21.03-13.23-15.43-4.07-31.54-5.36-46.43-11.61-11.75-4.93-22.85-10.85-31.99-19.96-7.12-7.1-12.38-15.29-16.71-24.45C78.94,28.53,78.14,14.55,80.83,0h4.17Zm170,1600c-.11-1.33.24-2.49,1.29-3.35,4.91-4.03,9.4-8.82,14.84-11.92,11.65-6.63,22.01-15.26,34.28-20.95,11.85-5.49,23.06-12.35,34.84-18.01,15.02-7.21,30.33-13.82,45.23-21.33,15.25-7.68,30.33-15.45,43.87-26.07,9.45-7.41,17.97-15.69,24.48-25.62,7.49-11.41,13.24-23.75,15.98-37.37,2.77-13.75,4.21-27.53,2.65-41.52-.53-4.79-.59-9.8-2.09-14.29-2.84-8.49-4.51-17.27-7.55-25.74-5.01-13.96-11.83-26.97-18.7-39.96-5.21-9.85-11.77-18.99-16.88-28.88-5.81-11.25-11.92-22.31-16.39-34.32-5.89-15.83-7.2-31.9-4.66-48.08,3.32-21.22,10.07-41.66,17.57-61.79,3.85-10.31,8.23-20.41,13.14-30.26,4.56-9.16,9.45-18.2,15.98-26.02,5.14-6.15,10.91-11.76,17.21-16.72,9.02-7.11,19.14-12.33,30.12-14.95,11.09-2.65,22.54-3.94,34.12-2.07,9.66,1.56,19.38,3.2,28.44,6.68,16.07,6.16,30.91,14.75,44.85,24.99,10.6,7.79,20.69,16.15,30.71,24.64,13.27,11.25,25.87,23.27,40.05,33.46,14.4,10.35,29.17,19.81,46.11,25.67,14.48,5.01,29.18,8.12,44.53,7.99,6.92-.06,13.84,0,20.74-.82,9.31-1.12,18.63-2.11,27.96-2.98,5.65-.53,11.12-2.31,16.7-2.75,11.58-.92,22.95-3.19,34.39-4.85,10.39-1.52,20.82-2.28,31.2-3.61v5c-10.93,1.4-21.89,2.62-32.82,4.03-12.96,1.67-25.91,3.52-38.78,5.56-14.74,2.34-29.53,3.93-44.33,5.19-15.86,1.35-31.84.38-47.42-3.33-14.56-3.47-28.15-9.61-40.94-17.22-17.69-10.53-33.4-23.82-48.95-37.2-13.19-11.35-26.12-22.98-40.11-33.37-9.65-7.16-19.71-13.61-30.5-18.9-6.3-3.09-12.77-5.75-19.48-7.9-11.49-3.68-23.22-6.37-35.24-5.84-9.26.41-18.48,1.94-27.45,5.13-10.91,3.89-20.24,9.93-28.4,17.91-9.05,8.84-16.5,18.91-21.97,30.38-3.8,7.96-8.16,15.7-11.36,23.89-4.2,10.78-8.37,21.6-11.53,32.76-1.88,6.64-3.98,13.21-5.71,19.89-2.21,8.55-3.25,17.3-4.41,26.06-1.27,9.56.02,18.8,2.15,27.88,2.66,11.39,7.53,22.04,12.9,32.45,8.02,15.56,17.66,30.19,25.94,45.6,5.54,10.32,10.71,20.82,14.98,31.69,3.47,8.82,6.21,17.92,8.19,27.19,3.44,16.21,4.19,32.44,2.11,48.86-1.59,12.57-5.33,24.46-10.57,35.99-4.43,9.74-10.6,18.36-17.47,26.31-9.24,10.69-20.54,19.34-32.61,26.56-12.77,7.65-25.94,14.63-39.44,20.89-13.08,6.06-26.27,11.9-39.27,18.16-10.29,4.96-20.55,9.99-30.5,15.6-6.91,3.9-14.12,7.39-20.58,11.92-6.67,4.68-13.31,9.41-20.04,14.01-2.01,1.37-3.54,3.11-3.86,5.66h-7.5Zm-92.5,0c1.08-4.59,5.15-6.7,8.23-9.48,9.24-8.37,19.7-15.14,30.43-21.38,15.44-8.98,31.04-17.7,46.9-25.92,11.96-6.2,23.89-12.48,36.17-18.08,12.28-5.6,24.32-11.74,36.3-17.95,11.99-6.21,24.28-11.91,35.71-19.15,14.82-9.39,29.11-19.45,40.22-33.3,8.06-10.05,13.58-21.33,16.57-33.95,1.77-7.46.98-14.91,1.07-22.36.09-6.85-1.81-13.51-4.46-19.69-4.28-10-9.5-19.57-16.41-28.11-10.64-13.15-23.22-24.36-35.77-35.58-3.89-3.47-8.38-6.27-12.37-9.64-7.16-6.04-14.02-12.43-21.25-18.38-8.13-6.68-15.85-13.82-22.79-21.66-4.24-4.79-7.87-10.39-9.33-16.89-2.04-9.06,1.16-16.97,5.66-24.59,9.36-15.9,21.64-29.69,32.19-44.72,2.21-3.15,4.04-6.59,6.4-9.61,8.4-10.75,15.44-22.41,22.24-34.16,6.13-10.58,11.35-21.7,16.89-32.62,4.99-9.84,10.23-19.57,14.69-29.64,4.47-10.09,9.35-19.99,14.73-29.57,6.3-11.24,12.84-22.34,21.59-32.1,9.64-10.76,20.23-19.5,33.9-24.87,11.55-4.53,23.35-4.79,35.13-3.84,16.84,1.36,32.75,7.16,48.52,12.94,11.61,4.26,22.21,10.72,32.94,16.72,13.23,7.39,25.67,16.22,37.47,25.73,12.56,10.14,24.73,20.79,36.72,31.63,15.04,13.6,29.82,27.5,46.23,39.57,13.62,10.02,28,18.16,44.07,23.56,10.21,3.43,20.7,4.83,31.24,5.31,17.57.8,35.01-1.17,52.41-3.84,15.81-2.43,31.55-5.2,47.37-7.57,9.27-1.39,18.51-3.06,27.9-3.45v5c-12.28.66-24.33,2.84-36.45,4.82-17.67,2.89-35.3,6.13-53.17,7.88-15.28,1.5-30.44,3.03-45.87,1.62-15.22-1.38-29.57-5.53-42.92-12.48-14.1-7.34-27.14-16.37-39.51-26.55-18.28-15.05-34.79-32.03-53.19-46.92-12.74-10.31-25.06-21.07-38.93-29.98-11.83-7.59-23.66-15.02-36.46-20.9-12.04-5.53-24.24-10.46-37.07-13.96-13.24-3.61-26.63-5.59-40.22-4.17-22.82,2.38-38.85,15.84-51.99,33.5-4.7,6.32-8.8,13.02-12.75,19.85-5.33,9.18-10.35,18.53-15.07,28.04-6.55,13.22-12.11,26.95-19.02,39.97-8.83,16.65-17.19,33.55-27.86,49.27-6.8,10.02-13.66,20.01-20.69,29.86-9.13,12.8-19.35,24.83-27.43,38.39-7.79,13.09-7.17,21.45-.06,31.42,7.47,10.46,17.12,19.2,27.13,27.21,8.82,7.05,17.43,14.35,26.01,21.64,9.43,8.02,19.05,15.84,27.69,24.86,8.83,9.22,17.7,18.22,24.15,29.35,6.64,11.46,11.69,23.56,12.7,36.81,1.4,18.34-2.18,35.41-12.83,51.13-7.81,11.53-17.1,21.21-27.92,29.69-7.18,5.63-14.71,10.85-22.65,15.27-9.15,5.1-18.26,10.33-27.8,14.77-9.34,4.35-18.28,9.57-27.58,14.01-6.92,3.3-13.82,6.63-20.92,9.58-7.07,2.94-13.59,7.21-20.37,10.84-11.8,6.31-23.6,12.66-35.43,18.89-16.54,8.72-32.09,18.84-47.15,29.76-2.81,2.04-6.43,4.06-7.22,8.2h-6.67Zm737.5-1002.5c-15.12-.59-30.21.53-45.31.97-5.44.16-10.97.46-16.39,1.17-15.05,1.97-29.98,4.71-44.54,9.02-11.52,3.41-22.7,7.83-33.64,12.87-7.18,3.3-13.95,7.31-20.58,11.51-10.39,6.58-20.37,13.8-29.3,22.32-7.1,6.77-14.56,13.28-20.93,20.69-6.92,8.04-14.05,15.92-20.43,24.46-7.68,10.27-16.17,19.93-24.14,29.98-8.59,10.82-17.96,21-28.04,30.45-9.26,8.68-18.88,17.05-29.6,23.96-9.05,5.83-17.88,12.08-27.69,16.56-10.02,4.59-20.14,8.97-30.34,13.15-10.87,4.44-22.13,6.98-33.39,9.29-12.63,2.59-25.53,3.76-38.61,2.91-10.83-.7-21.35-2.75-31.8-5.26-13.83-3.33-26.9-9-40.27-13.76-15.84-5.64-31.65-11.52-48.02-15.57-13.5-3.34-27.23-5.25-41.03-2.83-16.06,2.82-29.81,10.5-41.66,21.7-10.72,10.12-19.71,21.54-27.37,34.14-6.85,11.27-11.98,23.3-16.41,35.61-4.52,12.55-8.46,25.3-11.89,38.22-2.61,9.84-5.43,19.65-8.33,29.42-4.52,15.19-8.12,30.67-11.85,46.09-3.34,13.79-6.13,27.71-8.34,41.73-.99,6.26-2.4,12.56-2.45,18.85-.09,11.62-.84,23.27.61,34.9,1.53,12.27,4.27,24.2,8.43,35.81,4.81,13.43,11.2,26.08,18.62,38.28,6.68,10.99,14,21.53,21.86,31.65,8.54,10.98,17.51,21.62,24.88,33.46,5.31,8.54,7.4,17.68,4.03,27.37-4.33,12.46-12.93,22.39-20.89,32.5-7.6,9.67-15.13,19.39-22.59,29.16-8.98,11.75-17.34,23.96-25.3,36.45-6.95,10.93-13.39,22.17-19.49,33.54-7.67,14.3-14.33,29.14-21.11,43.9-4.94,10.73-9.63,21.6-13.93,32.6-3.77,9.65-8.21,19-12.04,28.61-5.11,12.84-10.88,25.37-17.16,37.67-4.46,8.73-9.43,17.2-14.06,25.86-3.95,7.4-7.98,14.77-11.5,22.38-3.15,6.81-7.24,13.24-8.85,20.72h-5c0-1.25,0-2.47.59-3.65,4.5-9.13,8.83-18.35,13.48-27.39,4.74-9.21,10.14-18.09,14.63-27.42,6.09-12.66,12.91-24.96,18.29-37.99,4.83-11.7,10.07-23.24,14.79-34.99,2.61-6.5,5.55-12.86,8.08-19.41,2.82-7.3,6.88-14.13,9.52-21.49,2.68-7.48,6.7-14.26,10.14-21.31,4.64-9.51,9.55-18.91,14.44-28.3,5.18-9.94,10.97-19.45,17.15-28.75,5.87-8.83,11.95-17.54,17.96-26.27,6.56-9.53,13.91-18.39,20.95-27.51,8.61-11.14,17.65-21.97,24.7-34.22,5.3-9.2,5.29-18.33.08-27.78-4.22-7.66-9.74-14.32-14.79-21.34-4.56-6.33-9.83-12.13-14.45-18.42-3.41-4.65-6.57-9.52-9.97-14.16-7.62-10.41-13.91-21.55-19.61-33.03-5.22-10.51-9.26-21.48-12.26-32.9-3.03-11.54-5.48-23.09-5.36-35.05.1-9.69-.76-19.42.83-29.05,1.37-8.28,1.93-16.68,3.8-24.9,1.55-6.8,2.92-13.66,4.29-20.48,2.07-10.26,4.41-20.47,7.01-30.61,3.61-14.03,7.92-27.87,11.62-41.88,3.85-14.56,7.97-29.03,12.51-43.4,2.45-7.76,6.08-15.06,8.77-22.67,3.96-11.22,10.19-21.14,16.4-31,6.64-10.55,15.27-19.66,24.48-28.12,8.26-7.6,17.84-13.63,28.26-17.81,16.97-6.8,34.66-6.36,52.1-2.52,18.43,4.05,36.21,10.53,53.87,17.15,14.02,5.25,27.96,10.75,42.54,14.23,14.38,3.43,28.91,5.15,43.83,4.3,11.51-.66,22.72-2.69,33.77-5.42,12.82-3.17,25.26-7.64,37.37-13.06,9.45-4.23,18.79-8.7,27.63-14,10.42-6.25,20.12-13.6,29.64-21.19,13.06-10.41,24.6-22.34,35.16-35.18,6.56-7.98,13.03-16.04,19.51-24.09,7.25-9,14.3-18.18,21.99-26.86,8.08-9.13,16.4-18.05,25.04-26.58,9.6-9.47,20.37-17.69,31.88-24.91,12.06-7.56,24.46-14.5,37.66-19.73,18.38-7.28,37.48-11.96,57.09-14.84,16.6-2.43,33.29-2.81,49.98-3.45,6.79-.26,13.61-.04,20.41-.04v5h0ZM0,1516.67c5.2-.16,8.32-4.24,12.04-6.86,13.6-9.55,26.12-20.46,37.77-32.31,7.72-7.85,15.08-15.98,21.77-24.84,6.57-8.71,12.87-17.58,18.64-26.78,7.76-12.37,15.42-24.82,22.06-37.85,5.07-9.94,10.8-19.58,15.35-29.75,4-8.92,8.47-17.61,12.55-26.48,4.91-10.66,9.86-21.29,13.38-32.47,3.68-11.69,7.04-23.41,8.33-35.79,1.39-13.33-.32-26.31-3.1-39.01-2.57-11.76-6.59-23.28-11.2-34.53-5.02-12.24-9.56-24.68-13.97-37.15-5.5-15.52-9.5-31.49-13-47.55-4.23-19.41-4.53-39.2-3.88-58.97.44-13.65,2.09-27.26,3.55-40.81,1.8-16.69,3.57-33.43,6.08-50.07,1.23-8.14,1.99-16.43,2.67-24.66.62-7.58,2.38-14.97,2.97-22.57.66-8.49,2.3-16.92,3.87-25.31,1.98-10.56,4.25-21.06,7.86-31.22,1.97-5.55,3.42-11.32,5.68-16.75,2.44-5.85,5.78-11.32,8.32-17.13,3.19-7.32,7.01-14.31,11.17-21.05,3.24-5.27,5.84-10.88,9.51-15.96,5.11-7.09,9.12-14.97,13.62-22.5,5.99-10.02,12.23-19.89,17.96-30.06,9.32-16.53,17.27-33.76,22.88-51.9,2.72-8.79,5.31-17.64,7.51-26.62,3.89-15.84,8.14-31.72,16.39-45.97,7.51-12.97,16.9-24.11,31.87-29.39,13.4-4.72,27.19.32,33.8,12.93,4.82,9.19,6.8,19.12,8.4,29.21,2.2,13.89,4.21,27.85,8.44,41.29,4.02,12.77,10.16,24.39,18.06,35.39,7.82,10.9,17.66,19.3,27.75,27.67,15.81,13.11,33.79,22.45,53.01,29.24,11.42,4.04,23.3,6.61,35.53,7.54,6.65.5,13.27.67,19.91.66,15.04-.04,29.59-2.61,43.85-7.66,11.42-4.04,22.28-9.17,32.3-15.72,9.77-6.39,19.07-13.49,27.65-21.61,10.48-9.91,20.6-20.15,29.87-31.12,10.97-12.99,22.37-25.6,33.71-38.24,9.14-10.19,19.21-19.55,29.57-28.59,8.77-7.65,18.06-14.56,27.23-21.64,8.93-6.9,18.47-13.01,27.81-19.37,11.62-7.91,23.39-15.59,34.94-23.6,14.67-10.18,28.97-20.85,40.08-35.09,8.43-10.8,11.47-25.74,4.28-39.1-5.6-10.38-12.87-19.27-20.71-27.84-4.28-4.67-8.5-9.42-13.05-13.83-8.35-8.09-17.12-15.76-25.35-23.97-5.96-5.94-12.33-11.43-18.33-17.32-12.76-12.53-26.29-24.24-38.78-37.05-5.51-5.65-10.42-11.88-16-17.41-10.32-10.23-19.67-21.3-27.65-33.31-5.45-8.21-11.22-16.72-11.69-27.37-.38-8.75,3.06-15.64,9.53-21.03,8.56-7.14,18.38-11.99,28.9-15.74,11.88-4.24,24.09-7.12,36.36-9.68,13.61-2.84,27.41-4.89,41.17-6.96,11.16-1.68,22.33-3.52,33.53-4.74,10.69-1.17,21.33-2.75,32.05-3.75,11.11-1.04,22.13-2.91,33.21-4.35,8.33-1.08,16.68-2.04,25.03-3.05,2.32-.28,4.65-.55,6.97-.83v-5c-10.9.52-21.65,2.36-32.45,3.73-10.12,1.28-20.24,2.47-30.36,3.79-9.02,1.17-18.02,2.51-27.04,3.67-10.39,1.33-20.8,2.48-31.18,3.85-7.38.98-14.73,2.15-22.08,3.34-15.52,2.52-31.07,4.86-46.32,8.8-15.56,4.02-30.69,9.24-44.35,17.78-9.98,6.24-17.62,14.68-18.35,27.2-.33,5.64,1.33,11.21,3.7,16.38,7.69,16.79,19.26,30.78,31.55,44.38,8.73,9.66,17.58,19.2,26.63,28.52,9.41,9.69,20.23,18.02,29.52,27.82,5.42,5.72,11.34,10.87,17.09,16.1,8.63,7.83,16.58,16.36,25.34,24,7.34,6.41,13.53,13.87,20.22,20.85,6.56,6.84,12.19,14.59,17.31,22.66,5.17,8.15,6.09,25.25-1.18,34.6-8.15,10.47-17.46,19.67-28.28,27.26-9.23,6.47-18.65,12.72-27.85,19.22-11.06,7.81-22.53,14.98-33.59,22.77-11.27,7.95-22.03,16.53-33.15,24.66-4.21,3.08-8.12,6.72-11.91,10.28-9.98,9.39-19.92,18.85-29.05,29.1-7.61,8.55-15.17,17.15-22.77,25.72-8.81,9.93-17.27,20.2-26.6,29.62-5.41,5.47-10.98,10.9-17.04,15.79-5.69,4.59-11.62,8.83-17.44,13.23-9.15,6.9-19.46,11.44-29.94,15.73-20.26,8.29-41.52,10.67-63.03,8.92-14.07-1.14-27.88-4.5-41.4-9.31-12.66-4.51-24.68-10.23-35.6-17.67-16.46-11.21-31.98-23.7-42.9-40.96-9.67-15.28-15.25-31.97-18.3-49.62-1.57-9.09-2.23-18.39-4.41-27.33-2.56-10.5-5.34-20.99-12.46-29.83-9.23-11.47-24.87-13.31-36.52-8.53-15.67,6.42-26.18,18.51-34.07,33.05-7.62,14.05-12.1,29.22-16.09,44.63-2.06,7.96-4.62,15.87-6.78,23.8-3.47,12.73-8.61,24.66-14.04,36.55-5.9,12.91-13.56,24.83-20.75,37.03-6.45,10.94-13.28,21.65-19.74,32.58-3.42,5.79-6.7,11.72-10.26,17.45-3.69,5.95-6.55,12.42-9.86,18.61-4.68,8.76-8.7,17.83-12.28,27.06-2.74,7.07-4.89,14.41-6.83,21.76-3.77,14.27-6.23,28.83-8.1,43.43-1.31,10.24-2.6,20.52-3.7,30.8-1,9.32-2.4,18.59-3.5,27.9-1.12,9.44-2.1,18.9-3.12,28.35-1.29,11.92-2.66,23.84-3.8,35.77-.61,6.32-.99,12.68-1.15,19.03-.19,7.63-.18,15.28-.02,22.91.29,14.25,2.14,28.28,5.33,42.21,2.19,9.56,4.3,19.16,7.42,28.4,2.32,6.86,4.49,13.83,7.25,20.6,2.31,5.68,4.77,11.43,6.45,17.37,1.94,6.83,5.38,13.03,7.59,19.74,5,15.18,9.77,30.31,11.08,46.44,1.38,16.92-2.29,32.83-7.11,48.75-4.21,13.91-10.25,27.06-16.18,40.23-6.46,14.34-13.5,28.43-20.92,42.32-7.36,13.78-15.13,27.3-22.98,40.8-6.73,11.58-14.41,22.45-22.52,33.09-12.48,16.38-27.14,30.49-42.99,43.56-6.61,5.45-13.72,10.22-20.22,15.79-1.2,1.03-2.53.97-3.9.98v5.83h0Z"/>
    </g>
  </g>
</svg>