<svg width="18" height="25" viewBox="0 0 18 25" fill="none" xmlns="http://www.w3.org/2000/svg">
<path d="M10.1109 24.375C12.5156 21.2402 18 13.6426 18 9.375C18 4.19922 13.9688 0 9 0C4.03125 0 0 4.19922 0 9.375C0 13.6426 5.48438 21.2402 7.88906 24.375C8.46562 25.1221 9.53438 25.1221 10.1109 24.375ZM9 6.25C9.79565 6.25 10.5587 6.57924 11.1213 7.16529C11.6839 7.75134 12 8.5462 12 9.375C12 10.2038 11.6839 10.9987 11.1213 11.5847C10.5587 12.1708 9.79565 12.5 9 12.5C8.20435 12.5 7.44129 12.1708 6.87868 11.5847C6.31607 10.9987 6 10.2038 6 9.375C6 8.5462 6.31607 7.75134 6.87868 7.16529C7.44129 6.57924 8.20435 6.25 9 6.25Z" fill="#2ED198"/>
</svg>
