<svg width="26" height="20" viewBox="0 0 26 20" fill="none" xmlns="http://www.w3.org/2000/svg">
<path d="M2.4375 0C1.0918 0 0 1.11979 0 2.5C0 3.28646 0.360547 4.02604 0.975 4.5L12.025 13C12.6039 13.4427 13.3961 13.4427 13.975 13L25.025 4.5C25.6395 4.02604 26 3.28646 26 2.5C26 1.11979 24.9082 0 23.5625 0H2.4375ZM0 5.83333V16.6667C0 18.5052 1.45742 20 3.25 20H22.75C24.5426 20 26 18.5052 26 16.6667V5.83333L14.95 14.3333C13.7922 15.224 12.2078 15.224 11.05 14.3333L0 5.83333Z" fill="#2ED198"/>
</svg>
